<?xml version="1.0" encoding="UTF-8"?>
<svg id="_レイヤー_2" data-name="レイヤー 2" xmlns="http://www.w3.org/2000/svg" xmlns:xlink="http://www.w3.org/1999/xlink" viewBox="0 0 121.17 132.06">
  <defs>
    <style>
      .cls-1 {
        mask: url(#mask);
      }

      .cls-2 {
        filter: url(#luminosity-noclip);
      }

      .cls-3 {
        fill: #e66446;
      }
    </style>
    <filter id="luminosity-noclip" x="-8.55" y=".08" width="136.26" height="141.72" color-interpolation-filters="sRGB" filterUnits="userSpaceOnUse">
      <feFlood flood-color="#fff" result="bg"/>
      <feBlend in="SourceGraphic" in2="bg"/>
    </filter>
    <mask id="mask" x="-8.55" y=".08" width="136.26" height="141.72" maskUnits="userSpaceOnUse">
      <g class="cls-2">
        <g>
          <path d="M91.39,54.79c.42-.23.88-.03,1.01.43,0,0,.27.94.19,1.43-.04.23-.77.53-1.13.47-1.02-.16-2.17-.51-2.17-.51-.46-.14-.49-.44-.07-.66l2.16-1.16Z"/>
          <path d="M53.16,77.7c-.28.55-.47.45-.42-.22,0,0,.01-.18.11-.4.65-1.49,1.5-3.35,1.5-3.35.27-.58.59-.65.72-.15,0,0,.05.18-.03.33-.68,1.45-1.89,3.79-1.89,3.79Z"/>
          <path d="M7.17,108.26c-.32.2-.7.22-.86.05-.15-.17-.2-.65.16-.78,0,0,.55-.2,1.15-.38.04-.01.31.54.27.58-.39.32-.72.53-.72.53Z"/>
          <path d="M74.25,130.89c-.22.04-.31-.09-.18-.28,0,0,.21-.32.32-.32.35,0,.66.06.66.06.22.05.32.19.22.32l-.12.03c-.33.09-.9.19-.9.19Z"/>
          <path d="M57.44,132.1s-.83.27-1.82.68c-.99.41-3.62,1.02-3.67.44-.04-.58.72-1.97,1.79-1.78,0,0,1.82.32,3.7.66h0Z"/>
          <path d="M76.5,13.1c1.25-.06,1.83.82,1.28,1.94,0,0-.47.96-1.19,2-.11.16-1.74-.45-1.72-.54.17-1.01.31-2.16.92-2.91.39-.48.72-.5.72-.5Z"/>
          <path d="M46.47,105.49c.13.79-.39,1.48-1.14,1.54v-.06c-.21-1.01-.28-1.62-.28-1.62-.09-.8.36-1.48,1-1.53l.04.13c.27.87.38,1.54.38,1.54Z"/>
          <path d="M97.99,91.64c-.7.85-1.61.78-2.03-.15l.19-.27c.64-.92.84-1.13.84-1.13.79-.77,1.8-.91,2.26-.33l-.13.22c-.57.97-1.13,1.66-1.13,1.66Z"/>
          <path d="M69.25,101.92c.52.5.41,1.18-.23,1.51,0,0-.25.12-.82.25l-.18.04c-.3-.41-.16-1.16.31-1.68l.53-.22c.21-.09.4.11.4.11Z"/>
          <path d="M17.55,121.44c-.6.64-1.18.45-1.3-.42,0,0,0-.04.17-.26.63-.78.94-1.07.94-1.07.63-.6,1.4-.66,1.71-.13l-.13.19c-.57.82-1.39,1.69-1.39,1.69Z"/>
          <path d="M6.55,58.07c.59-.36,1.22-.39,1.39-.08.17.32-.24,1.42-1.23,1.89,0,0-.09.04-1.09.31l-.26.07c-.45-.54.59-1.83,1.19-2.19Z"/>
          <path d="M23.47,35.34c.77.85.81,2.02.07,2.59l-.09-.08c-.69-.6-1.29-1.32-1.82-2.08-.04-.05,1.06-1.06,1.14-1l.71.56Z"/>
          <path d="M36.63,72.79c-.51.18-1.07.09-1.23-.18-.16-.27.13-1.23.98-1.57l.77.02h.4c.42.64-.41,1.55-.92,1.73Z"/>
          <path d="M112.85,60.15c.37.41.45.99.18,1.3-.27.31-1.43.42-2.08-.34l-.25-.79-.12-.38c.56-.63,1.89-.2,2.26.2Z"/>
          <path d="M108.29,24c-.3.14-.68.15-.84,0-.17-.14-.33-.81.05-1.12l.31.04.49.06c.51.31.29.87,0,1.02Z"/>
          <path d="M35.43,39.8c.3.26.3.7,0,.97-.29.27-1.15.61-1.33.24l.1-.13c.31-.41.74-.73,1.17-1.03l.06-.04Z"/>
          <path d="M73.1,125.78c-.31.05-.5-.19-.42-.53,0,0,.01-.05.12-.25.03-.04.45.02.49.13.06.14,0,.4-.11.54l-.08.11Z"/>
          <path d="M98.39,7.25c.74-.63,1.51-.36,1.72.58,0,0,.03.12-.18.31l-.47.43c-.72.25-1.49.05-1.71-.44l.15-.22c.34-.52.5-.66.5-.66Z"/>
          <path d="M94.54,10.58c.26.37-.02.74-.62.83,0,0-.04,0-.12-.1l-.16-.22c-.04-.34.18-.66.48-.72l.2.1.22.11Z"/>
          <path d="M32.97,104.65c.08.36-.15.67-.51.68l-.14-.11-.12-.1c0-.27.22-.55.48-.63l.15.08.14.07Z"/>
          <path d="M-.32,101.95c.34-.04.6.16.57.44-.03.28-.48.88-.97.89l-.3-.2-.25-.17c-.1-.45.61-.91.95-.96Z"/>
          <path d="M86.5,12.98c-.12.15-.26.12-.29-.07,0,0,0-.01.03-.08l.04-.07c.11-.05.23-.01.27.07l-.02.06c-.03.09-.03.09-.03.09Z"/>
          <path d="M7.42,113.49c.14.22-.07.61-.46.88l-.08-.07-.34-.27c-.29-.39-.39-.81-.22-.92.17-.11.97.15,1.1.37Z"/>
          <path d="M-.05,82.3c.13.29.07.62-.12.73-.19.12-.92-.01-1.26-.5v-.7c.52-.29,1.26.18,1.38.46Z"/>
          <path d="M91.62,32.74c.24.18.09.71-.34,1.19l-.07-.04c-.38-.22-.77-.53-.97-.91l-.07-.14c.36-.38,1.21-.28,1.45-.1Z"/>
          <path d="M56.59.77c.47.62.27,1.39-.46,1.7l-.38-.13-.4-.13c-.31-.54-.12-1.24.42-1.56l.44.06.38.05Z"/>
          <path d="M35.99,14.75c.36.37.54.83.41,1.01-.14.19-.78.35-1.15,0l-.24-.37c-.04-.06.45-.67.69-.66h.29Z"/>
          <path d="M37.96,77.59c.03.67-.5,1.17-1.17,1.11l-.3-.26-.2-.17c.07-.53.58-1.03,1.13-1.1l.29.22.25.19Z"/>
          <path d="M64.94,61.03c.32-.25.83-.17,1.14.19l-.05.08-.18.27c-.32.22-.75.17-.96-.1l.02-.23.02-.21Z"/>
          <path d="M85.37,123.77c-.24.27-.63.26-.87-.02v-.37c.24-.18.61-.18.83.02l.02.19.02.17Z"/>
          <path d="M32.07,53.9c.75.25.81.86.15,1.34l-.44.06-.39.06c-.48-.25-.54-.79-.13-1.22l.44-.13.37-.11Z"/>
          <path d="M.47,110.01c.16.12.07.39-.2.62l-.22.05c-.11.02-.4-.24-.39-.37l.02-.23c.15-.25.63-.19.79-.07Z"/>
          <path d="M70.25,116.03c.35.51.39.99.1,1.07-.29.08-1.04-.11-1.19-.57l-.02-.42c0-.09.62-.36.79-.27l.32.18Z"/>
          <path d="M98.84,13.3c-.21.11-.39.03-.4-.17l.05-.1c.03-.07.22-.16.25-.13.09.07.21.25.18.29l-.07.11Z"/>
          <path d="M5.17,46c-.04-.2.08-.39.26-.41.18-.03.61.23.65.63l-.08.33-.03.11c-.37.03-.76-.46-.8-.65Z"/>
          <path d="M119.22,49.95s-.08.03-.1-.02c-.02-.06.01-.09.07-.08.05.01.07.06.03.1Z"/>
          <path d="M33.6,32.55c-.33-.32-.43-.92-.21-1.33l.24-.03.26-.03c.32.32.41.91.21,1.31l-.24.04-.25.04Z"/>
          <path d="M6.23,51.68c.05.08-.03.22-.18.3l-.14.05s-.15-.18-.13-.23l.06-.14c.11-.14.33-.05.38.03Z"/>
          <path d="M20.81,117.29c.29-.32.8-.33,1.12-.03l.05.25c.03.13-.36.48-.56.48-.22,0-.58-.29-.6-.48l-.02-.21Z"/>
          <path d="M48.81,88.38c.02-.09.23-.21.45-.26l.14.07.11.06c.04.23-.06.42-.22.42-.16,0-.51-.21-.48-.3Z"/>
          <path d="M96.82,91.27c-.06.06-.18.07-.25.02s-.17-.28-.04-.43l.13-.02.12-.02c.15.13.11.39.04.44Z"/>
          <path d="M56.59,101.02s-.17.05-.34.01l-.15-.06h-.02c.04-.14.14-.23.23-.21.09.03.29.21.27.26Z"/>
          <path d="M17.42,115.03c.02-.1.1-.12.18-.05.07.07.06.15-.04.18-.1.03-.16-.03-.14-.13Z"/>
          <path d="M109.2,79.12c-.01-.08.1-.26.24-.4h.23c.12.16.11.36,0,.43-.12.07-.46.05-.47-.03Z"/>
          <path d="M71.12,114.56s-.11.01-.17-.05l-.04-.07s.06-.1.08-.1h.08c.08.05.08.18.05.22Z"/>
          <path d="M88.18,8.62c-.07.08-.35-.03-.63-.26l-.19-.25-.04-.05c.17-.21.43-.28.57-.16.15.12.35.65.28.73Z"/>
          <path d="M24.54,33.2s-.05.06-.09.05c-.03-.01-.08-.07-.04-.09.05-.03.14,0,.12.05Z"/>
          <path d="M102.51,16.4s.25-.43.53-1l.25-.51.03-.05-.28.51c-.31.56-.55,1.04-.54,1.05Z"/>
        </g>
      </g>
    </mask>
  </defs>
  <g id="img">
    <g class="cls-1">
      <g>
        <path class="cls-3" d="M22.5,32.15c.46.29,1.09.43,1.57.82.44.36.84.81,1.26,1.23.41.42.68.96,1.03,1.42.36.48.83.88,1.07,1.39.27.54.49,1.11.57,1.67.09.58.07,1.2-.09,1.77-.16.55-.63.92-.99,1.37-.34.42-.66.88-1.15,1.21-.44.3-.92.63-1.45.87-.5.22-1.05.38-1.6.56-.53.17-1.08.29-1.64.43-.55.13-1.07.4-1.63.5-.56.1-1.15.04-1.7.11-.58.08-1.21.24-1.89.28-.61.04-1.25-.02-1.91,0-.62.01-1.26.13-1.9.12-.63,0-1.27-.22-1.9-.23-.64-.01-1.28.2-1.91.18-.65-.02-1.29-.04-1.91-.06-.67-.02-1.31-.06-1.9-.07-.7-.01-1.34-.14-1.9-.14-.73,0-1.2-.33-1.6-.8-.4-.45-.86-.97-.92-1.66-.06-.61.24-1.24.46-1.87.21-.59.35-1.27.81-1.75.42-.44.99-.85,1.63-1.1.55-.21,1.23-.28,1.94-.28.63,0,1.25.11,1.86.1.63,0,1.26-.03,1.86-.05.65-.02,1.28.09,1.87.06.66-.03,1.28-.27,1.85-.32.71-.06,1.35.07,1.87-.01,1.07-.16,1.59-.5,1.54-.77-.04-.21-.4-.65-1.1-1.21-.38-.3-.91-.55-1.43-.91-.43-.3-.9-.63-1.39-.95-.46-.3-.94-.61-1.43-.91-.48-.29-.96-.6-1.45-.88-.5-.29-.94-.67-1.43-.93-.52-.28-.99-.63-1.48-.85-.59-.28-1.24-.47-1.59-.96-.36-.5-.58-1.15-.7-1.76-.12-.61-.14-1.28-.03-1.88.12-.62.36-1.27.73-1.75.37-.49.97-.8,1.59-1,.52-.16,1.14-.16,1.83-.01.53.11,1.11.3,1.74.63.52.27,1.02.55,1.51.82.51.29,1.05.5,1.53.78.5.3.91.74,1.38,1.03.5.31,1.02.55,1.49.85.5.32.97.63,1.43.94.5.33.91.74,1.36,1.05.5.34.95.69,1.39,1,.5.35.96.68,1.4.98.52.35.99.67,1.42.94Z"/>
        <g>
          <path class="cls-3" d="M114.03,19.36c-.37-.47-.96-.75-1.34-1.2-.38-.45-.62-1.04-1.01-1.47-.4-.44-.83-.85-1.24-1.28-.41-.43-.81-.87-1.24-1.28-.43-.42-.91-.77-1.34-1.17-.44-.4-.87-.81-1.32-1.19-.45-.39-.9-.78-1.36-1.15-.46-.38-1.02-.63-1.48-.99-.48-.36-.95-.72-1.42-1.06-.49-.35-.91-.77-1.4-1.1-.5-.34-.93-.76-1.43-1.07-.51-.32-1.04-.6-1.54-.9-.52-.31-1.12-.45-1.63-.73-.53-.29-1.05-.56-1.57-.82-.54-.27-1.07-.53-1.6-.77-.55-.26-1.09-.48-1.63-.71-.56-.23-1.06-.59-1.6-.79-.57-.21-1.12-.46-1.66-.63-.59-.19-1.15-.39-1.7-.53-.6-.15-1.19-.26-1.74-.36-.66-.12-1.29-.08-1.87-.07-.67.02-1.28.1-1.84.27-.63.19-1.26.35-1.75.69-.53.36-.83.97-1.22,1.43-.42.49-.74,1-1.03,1.52-.33.59-.67,1.13-.85,1.65-.36,1.03-.84.92-.46,1.76.33.74.47.32,1.42.72.42.18.93.37,1.49.62.45.2.95.42,1.48.67.46.22,1.02.44,1.53.7.67-.57.45-.78.91-1.52.47-.75.48-.74.95-1.48.47-.75.34-.83.81-1.57.47-.75.2-1.74.99-1.34.82.41-.05.82-.22,1.72-.17.9-.19.9-.36,1.8-.17.9-.19.9-.36,1.8-.17.9-.58.9-.49,1.81.55.29,1.26.55,1.84.88.54.31,1.12.59,1.69.92.54.32,1.08.67,1.64,1.02.54.33,1.03.73,1.58,1.09.83-.51.56-.8,1.19-1.54.64-.74.72-.67,1.36-1.41.64-.74.72-.67,1.36-1.41s.41-2.14,1.23-1.6c.82.54-.45.94-.84,1.85-.39.91-.49.87-.88,1.78-.39.91-.16,1.01-.55,1.92-.39.91-.71.8-.86,1.78.47.33.91.67,1.38,1.01.46.34.93.69,1.39,1.04.46.35.87.76,1.33,1.13.45.36.97.77,1.41,1.15.92-.42.69-.78,1.47-1.43.78-.65.92-.47,1.7-1.12.78-.65.76-.67,1.54-1.32.78-.65.49-1.56,1.48-1.35.81.17-.44.66-.83,1.39-.39.73-.26.79-.65,1.52-.39.73-.42.71-.8,1.44-.39.73-.31.77-.7,1.5s-.87.56-1.03,1.37c.41.39,1.06.72,1.45,1.12.4.4.76.85,1.14,1.25.39.42.66.93,1.03,1.34.38.43.75.72,1.11,1.14.96-.25.83-.5,1.7-.98.87-.48.98-.29,1.85-.77.87-.48.88-.46,1.76-.95s.97-1.74,1.61-.98c.63.75-.72.51-1.42,1.2-.7.69-.49.9-1.2,1.59-.7.69-.77.62-1.48,1.32-.7.69-.89.53-1.34,1.4.41.52.63,1.03,1.01,1.54.39.53.9.95,1.26,1.47.38.54.66,1.17,1.01,1.68.85.04.85-.14,1.67-.35.82-.21.78-.36,1.61-.57.82-.21.86-.07,1.68-.28.82-.21,1.25-1.28,1.71-.57.44.68-.79.46-1.46.91-.67.45-.66.46-1.33.92-.67.45-.58.59-1.25,1.04-.67.45-.85.21-1.31.88.34.55.61.98.9,1.48.33.57.55,1.15.82,1.64.33.62.66,1.14.89,1.6.52,1.05-.11,1.33.7,1.76.75.4.53-.33,1.44-1.03.37-.28.79-.64,1.28-1.1.37-.34.85-.66,1.28-1.12.37-.4.79-.83,1.17-1.32.34-.44.47-1.03.73-1.59.23-.5.42-1.01.52-1.63.09-.53.28-1.09.24-1.73-.03-.53-.16-1.11-.3-1.73-.12-.52-.16-1.13-.38-1.73-.19-.51-.51-1.02-.77-1.59-.23-.5-.65-.93-.95-1.48-.26-.49-.45-1.05-.77-1.58-.29-.48-.51-1.03-.85-1.54-.31-.47-.66-.94-1.02-1.43-.33-.46-.8-.84-1.17-1.32-.34-.45-.53-1.05-.9-1.52Z"/>
          <path class="cls-3" d="M114.03,19.36c-.37-.47-.96-.75-1.34-1.2-.38-.45-.62-1.04-1.01-1.47-.4-.44-.83-.85-1.24-1.28-.41-.43-.81-.87-1.24-1.28-.43-.42-.91-.77-1.34-1.17-.44-.4-.87-.81-1.32-1.19-.45-.39-.9-.78-1.36-1.15-.46-.38-1.02-.63-1.48-.99-.48-.36-.95-.72-1.42-1.06-.49-.35-.91-.77-1.4-1.1-.5-.34-.93-.76-1.43-1.07-.51-.32-1.04-.6-1.54-.9-.52-.31-1.12-.45-1.63-.73-.53-.29-1.05-.56-1.57-.82-.54-.27-1.07-.53-1.6-.77-.55-.26-1.09-.48-1.63-.71-.56-.23-1.06-.59-1.6-.79-.57-.21-1.12-.46-1.66-.63-.59-.19-1.15-.39-1.7-.53-.6-.15-1.19-.26-1.74-.36-.66-.12-1.29-.08-1.87-.07-.67.02-1.28.1-1.84.27-.63.19-1.26.35-1.75.69-.53.36-.83.97-1.22,1.43-.42.49-.74,1-1.03,1.52-.33.59-.67,1.13-.85,1.65-.36,1.03-.84.92-.46,1.76.33.74.47.32,1.42.72.42.18.93.37,1.49.62.45.2.95.42,1.48.67.46.22,1.02.44,1.53.7.67-.57.45-.78.91-1.52.47-.75.48-.74.95-1.48.47-.75.34-.83.81-1.57.47-.75.2-1.74.99-1.34.82.41-.05.82-.22,1.72-.17.9-.19.9-.36,1.8-.17.9-.19.9-.36,1.8-.17.9-.58.9-.49,1.81.55.29,1.26.55,1.84.88.54.31,1.12.59,1.69.92.54.32,1.08.67,1.64,1.02.54.33,1.03.73,1.58,1.09.83-.51.56-.8,1.19-1.54.64-.74.72-.67,1.36-1.41.64-.74.72-.67,1.36-1.41s.41-2.14,1.23-1.6c.82.54-.45.94-.84,1.85-.39.91-.49.87-.88,1.78-.39.91-.16,1.01-.55,1.92-.39.91-.71.8-.86,1.78.47.33.91.67,1.38,1.01.46.34.93.69,1.39,1.04.46.35.87.76,1.33,1.13.45.36.97.77,1.41,1.15.92-.42.69-.78,1.47-1.43.78-.65.92-.47,1.7-1.12.78-.65.76-.67,1.54-1.32.78-.65.49-1.56,1.48-1.35.81.17-.44.66-.83,1.39-.39.73-.26.79-.65,1.52-.39.73-.42.71-.8,1.44-.39.73-.31.77-.7,1.5s-.87.56-1.03,1.37c.41.39,1.06.72,1.45,1.12.4.4.76.85,1.14,1.25.39.42.66.93,1.03,1.34.38.43.75.72,1.11,1.14.96-.25.83-.5,1.7-.98.87-.48.98-.29,1.85-.77.87-.48.88-.46,1.76-.95s.97-1.74,1.61-.98c.63.75-.72.51-1.42,1.2-.7.69-.49.9-1.2,1.59-.7.69-.77.62-1.48,1.32-.7.69-.89.53-1.34,1.4.41.52.63,1.03,1.01,1.54.39.53.9.95,1.26,1.47.38.54.66,1.17,1.01,1.68.85.04.85-.14,1.67-.35.82-.21.78-.36,1.61-.57.82-.21.86-.07,1.68-.28.82-.21,1.25-1.28,1.71-.57.44.68-.79.46-1.46.91-.67.45-.66.46-1.33.92-.67.45-.58.59-1.25,1.04-.67.45-.85.21-1.31.88.34.55.61.98.9,1.48.33.57.55,1.15.82,1.64.33.62.66,1.14.89,1.6.52,1.05-.11,1.33.7,1.76.75.4.53-.33,1.44-1.03.37-.28.79-.64,1.28-1.1.37-.34.85-.66,1.28-1.12.37-.4.79-.83,1.17-1.32.34-.44.47-1.03.73-1.59.23-.5.42-1.01.52-1.63.09-.53.28-1.09.24-1.73-.03-.53-.16-1.11-.3-1.73-.12-.52-.16-1.13-.38-1.73-.19-.51-.51-1.02-.77-1.59-.23-.5-.65-.93-.95-1.48-.26-.49-.45-1.05-.77-1.58-.29-.48-.51-1.03-.85-1.54-.31-.47-.66-.94-1.02-1.43-.33-.46-.8-.84-1.17-1.32-.34-.45-.53-1.05-.9-1.52Z"/>
        </g>
        <g>
          <path class="cls-3" d="M73.91,56.65c.12-.29-.16-.82-.86-1.44-.39-.34-.98-.58-1.52-.96-.47-.33-.89-.79-1.42-1.11-.51-.31-1.07-.55-1.6-.83-.55-.29-1.07-.6-1.6-.83-.61-.27-1.19-.46-1.69-.6-.83-.23-1.46-.28-1.72.02-.18.22.35.61,1.13,1.22.4.32.82.77,1.37,1.13.47.31,1.05.52,1.58.83.51.3,1.01.64,1.53.92.55.29,1.03.67,1.54.91.6.28,1.14.59,1.63.76.91.32,1.51.27,1.63-.03ZM76.8,47.13c0-.29-.52-.71-1.47-1.06-.53-.2-1.22-.22-1.9-.39-.6-.15-1.21-.44-1.86-.55-.65-.11-1.31-.12-1.93-.17-.71-.05-1.36-.11-1.93-.05-.85.09-1.45.33-1.68.76-.12.23.52.52,1.58.8.53.14,1.2.13,1.88.26.6.11,1.21.35,1.85.44.64.09,1.29.05,1.9.11.69.07,1.33.16,1.88.16,1.05.01,1.67-.02,1.67-.31ZM60.21,55.66c-.24.19-.06.82.51,1.69.3.47.84.89,1.27,1.44.38.48.69,1.08,1.12,1.56.43.49.93.91,1.37,1.35.5.5.95.97,1.39,1.32.8.65,1.4.95,1.64.69.23-.25,0-.9-.52-1.74-.3-.47-.8-.91-1.24-1.46-.38-.48-.7-1.06-1.14-1.54-.44-.48-.97-.87-1.41-1.3-.5-.49-.95-.96-1.4-1.3-.79-.61-1.32-.93-1.58-.72ZM57.69,4.82c-.6-.11-1.17-.29-1.76-.38-.6-.09-1.21-.07-1.79-.13-.6-.07-1.18-.34-1.77-.38-.61-.04-1.22.14-1.81.13-.61-.02-1.2-.04-1.79-.03-.61,0-1.2,0-1.79.03-.61.03-1.21-.05-1.8.01-.6.06-1.21.03-1.8.12-.6.09-1.15.45-1.73.56-.6.12-1.23.02-1.8.16-.59.14-1.11.52-1.68.68-.58.17-1.14.38-1.7.57-.57.2-1.15.36-1.69.59-.56.23-1.16.36-1.69.61-.55.26-1.08.53-1.61.81-.54.28-1.13.46-1.64.76-.52.31-.93.79-1.43,1.12-.51.33-1.11.51-1.59.85-.49.35-.84.89-1.3,1.25-.48.38-.99.69-1.44,1.07-.46.4-.83.88-1.26,1.28-.45.42-.88.83-1.29,1.24-.43.44-.85.87-1.24,1.3-.42.46-.82.9-1.19,1.34-.41.49-.88.87-1.22,1.32-.39.51-.83.94-1.14,1.39-.39.56-.48,1.22-.75,1.65-.61.96-1.25.6-.93,1.43.31.82.57.19,1.56.66.45.22,1,.46,1.59.76.48.25.96.63,1.51.93.49.27.98.6,1.5.91.49.29,1.01.58,1.51.9.49.31.98.64,1.47.98.48.34,1.01.62,1.47.98.47.36.82.86,1.26,1.25.45.39.93.74,1.34,1.15.42.43.82.87,1.18,1.32.38.47.63,1.01.92,1.5.31.52.52,1.05.71,1.59.2.57.3,1.11.34,1.69.04.58.26,1.18.11,1.77-.16.63-.48,1.19-.74,1.72-.27.58-.69,1.04-1.05,1.52-.38.5-.74.99-1.21,1.4-.46.41-.96.78-1.49,1.11-.52.32-1.08.59-1.66.84-.56.24-1.15.45-1.75.62-.59.17-1.2.29-1.81.41-.61.12-1.22.17-1.84.24-.62.08-1.22.34-1.84.38-.63.04-1.26-.22-1.87-.21-.63,0-1.26.2-1.86.18-.64-.03-1.27-.08-1.86-.13-.66-.05-1.28-.1-1.85-.17-.69-.09-1.26-.23-1.79-.32.01.61-.03,1.18.02,1.77.05.6.07,1.21.16,1.8.1.6.2,1.2.33,1.78.14.59.36,1.16.54,1.73.17.58.49,1.1.7,1.67.21.56.47,1.1.71,1.65.24.55.42,1.13.69,1.66.27.53.53,1.08.83,1.6.3.52.59,1.05.92,1.55.33.5.6,1.05.95,1.54.35.49.73.96,1.1,1.43.37.47.73.96,1.13,1.42.39.45.81.9,1.22,1.34.41.44,1.02.68,1.45,1.11.43.42.71,1,1.15,1.41.44.41.93.77,1.38,1.16.45.39.91.79,1.38,1.17.47.38.96.73,1.43,1.1.48.37.98.71,1.46,1.06.49.35,1.01.65,1.51.99.5.34.93.78,1.43,1.11.51.33.99.7,1.5,1.01.52.32,1.13.46,1.65.76.52.3,1.04.61,1.57.9.53.29,1.07.56,1.6.83.54.28.98.74,1.52,1,.55.27,1.09.52,1.63.77.55.25,1.17.36,1.71.6.56.24,1.14.42,1.69.64.57.23,1.09.54,1.65.74.58.21,1.18.31,1.74.5.58.2,1.1.55,1.66.72.59.18,1.17.34,1.73.49.6.16,1.21.27,1.77.45.6.19,1.14.48,1.7.69.59.22,1.18.38,1.72.62.57.25,1.12.53,1.64.8.56.29,1.09.58,1.6.89.54.33.97.77,1.45,1.11.51.37,1.15.54,1.6.92.48.41.76,1,1.17,1.42.44.45.97.79,1.34,1.25.39.49.63,1.07.96,1.56.34.52.82.95,1.09,1.48.29.56.34,1.2.55,1.75.22.56.43,1.07.53,1.6.11.59.2,1.14.17,1.68-.03.6-.12,1.15-.31,1.66-.2.54-.36,1.14-.74,1.56-.37.41-.92.68-1.45.95-.47.24-1,.53-1.6.64-.52.09-1.11.09-1.72.07-.53-.02-1.1-.13-1.7-.24-.46-.08-.98-.38-1.62-.68-.48-.22-1.08-.35-1.64-.68-.48-.28-.96-.63-1.48-.97-.47-.3-.85-.78-1.36-1.13-.47-.32-.99-.6-1.48-.96-.46-.34-.97-.64-1.45-1-.46-.35-1.02-.59-1.49-.96-.46-.36-.93-.72-1.39-1.09-.46-.36-.75-.94-1.21-1.31-.46-.37-.97-.67-1.43-1.04-.45-.37-.89-.77-1.34-1.15-.45-.38-.98-.67-1.43-1.05-.45-.38-.93-.73-1.38-1.11-.45-.39-.93-.74-1.37-1.12-.45-.39-.86-.83-1.3-1.21-.45-.4-.86-.83-1.3-1.21-.46-.4-.89-.8-1.32-1.18-.46-.41-.8-.91-1.22-1.29-.46-.41-.95-.76-1.36-1.13-.47-.43-1-.72-1.4-1.09-.5-.45-.83-.97-1.2-1.3-.82-.76-1.39-2.02-1.46-1.14-.07,1,.24,1,.42,1.98.18.98.27.97.45,1.95s.13.99.44,1.94c.38.32.66.8,1.16,1.23.41.35,1,.56,1.47.97.42.36.81.8,1.27,1.2.42.37.86.76,1.31,1.16.43.38.88.75,1.32,1.15.43.38.76.88,1.2,1.28.43.39.95.69,1.38,1.09.43.4.69.97,1.11,1.37.42.4.98.67,1.4,1.08.42.41.84.83,1.24,1.24.42.42.71.95,1.11,1.37.41.43.83.84,1.22,1.26.41.45.86.83,1.22,1.26.4.46.88.83,1.22,1.27.38.49.66,1.06.96,1.51-.3-.22-.92-.5-1.57-.97-.43-.31-.85-.75-1.39-1.14-.45-.32-.88-.77-1.4-1.13-.47-.33-.95-.69-1.46-1.05-.48-.34-1.09-.52-1.59-.87-.48-.34-.91-.78-1.4-1.14-.49-.35-.94-.75-1.43-1.09-.49-.35-1.1-.54-1.59-.88-.5-.35-1-.68-1.48-1.03-.5-.36-.84-.93-1.31-1.26-.51-.36-1.04-.66-1.5-.99-.52-.37-1.03-.65-1.48-.96-.1.82.24.78.39,1.59q.15.81.3,1.62c.15.81.13.82.28,1.63.15.81-.07.86.25,1.62.49.29.91.71,1.45,1.03.5.3,1.06.55,1.6.87.51.31,1.11.5,1.63.82.51.32,1.01.67,1.53,1,.51.32,1.01.67,1.52,1.01.51.33.9.86,1.4,1.19.51.34,1.02.67,1.52,1.01.51.35,1.06.63,1.54.98.51.36,1.01.7,1.49,1.06.51.38,1.03.7,1.48,1.06.5.41.86.86,1.27,1.24-.38-.23-.84-.53-1.48-.86-.47-.25-1.01-.49-1.59-.78-.5-.25-.97-.63-1.53-.9-.51-.25-1.14-.32-1.69-.58-.52-.25-.94-.75-1.48-1.01-.53-.25-1.14-.35-1.68-.61-.53-.25-1-.66-1.53-.92-.54-.26-1.18-.31-1.71-.56-.55-.26-1-.68-1.53-.93-.55-.26-1.25-.45-1.77-.69-.11.92.41.91.58,1.82.17.91.17.91.34,1.83.17.91-.18,1.01.19,1.86.54.2,1.15.34,1.73.55.54.2,1.04.59,1.62.8.55.2,1.2.16,1.78.37.55.2,1.04.63,1.61.83.56.2,1.2.19,1.77.4.56.2,1.1.48,1.66.69.56.2,1.13.4,1.69.6.56.2,1.13.41,1.69.62.57.2,1.13.41,1.7.61.57.2,1.12.45,1.68.66.57.2,1.18.27,1.74.47.57.2,1.13.48,1.69.68-.38-.07-1.05-.13-1.87-.28-.54-.1-1.17-.14-1.85-.27-.57-.1-1.19-.18-1.85-.3-.59-.11-1.17-.37-1.81-.49-.6-.11-1.24-.03-1.87-.15-.6-.11-1.22-.22-1.84-.33-.61-.11-1.2-.34-1.82-.45-.61-.11-1.24-.14-1.86-.25-.62-.11-1.2-.4-1.81-.51-.62-.11-1.23-.27-1.84-.37-.63-.11-1.27-.09-1.86-.2-.63-.11-1.28-.34-1.87-.45-.37.32-.84.7-1.28,1.08-.39.33-.74.74-1.17,1.1-.4.33-.75.71-1.18,1.07.53.12,1.06.36,1.69.48.54.11,1.15.08,1.77.19.55.1,1.13.26,1.74.36.56.09,1.15.17,1.76.26.56.09,1.13.27,1.74.36.57.08,1.17.03,1.78.11.57.08,1.14.28,1.75.35.57.07,1.17.06,1.78.14.58.07,1.18,0,1.79.07.58.06,1.1.28,1.71.34-.54.07-1.06.2-1.67.25-.55.05-1.14-.03-1.75,0-.56.03-1.14.11-1.74.13-.57.02-1.15,0-1.75,0-.57,0-1.16.08-1.75.08-.58,0-1.16-.14-1.75-.14-.58,0-1.17.14-1.75.13-.59-.01-1.17-.07-1.75-.09-.59-.01-1.17-.09-1.75-.11-.59-.02-1.18.05-1.75.03-.6-.02-1.17-.17-1.74-.2-.6-.03-1.19-.02-1.75-.04-.46.37-.95.74-1.41,1.11-.47.38-.93.77-1.39,1.14-.47.38-.93.77-1.39,1.14.53.06,1.12.13,1.75.19.54.05,1.13.07,1.74.12.55.05,1.12.21,1.73.26.56.05,1.15-.13,1.76-.08.56.04,1.14.13,1.74.17.56.04,1.14.05,1.74.09.56.04,1.13.35,1.72.38.57.04,1.16-.15,1.76-.11.57.03,1.14.28,1.73.31.57.03,1.15.06,1.74.09.57.03,1.16-.09,1.76-.06.57.03,1.14.05,1.74.08-.56.12-1.12.31-1.72.42-.57.1-1.18.07-1.78.16-.58.08-1.16.23-1.76.3-.58.07-1.17.15-1.77.21-.59.06-1.19.02-1.78.07-.59.05-1.18.15-1.78.19-.59.04-1.2-.03-1.79,0-.6.03-1.19.15-1.78.18-.6.03-1.2.08-1.79.1-.6.02-1.2.04-1.79.05-.61.01-1.21-.1-1.79-.09-.61,0-1.21.2-1.78.21-.62,0-1.22-.2-1.78-.2-.63,0-1.26.03-1.82.02-.49.39-.99.78-1.43,1.14-.5.4-.87.9-1.31,1.24-.53.42-1.06.73-1.46,1.04-.89.7-1.56.23-1.27,1.08.3.86.54,0,1.7,0,.51,0,1.13.07,1.82.07.56,0,1.17.07,1.83.07.57,0,1.18.01,1.82.01.58,0,1.19-.06,1.82-.06.59,0,1.2-.18,1.82-.18.59,0,1.2.12,1.83.12.6,0,1.21-.03,1.83-.03.6,0,1.21,0,1.83,0,.6,0,1.21.08,1.83.08.6,0,1.21.02,1.82.02.61,0,1.22-.08,1.83-.08.61,0,1.22.11,1.83.1.61,0,1.22-.14,1.83-.15.61,0,1.23.16,1.83.15.62,0,1.23-.15,1.83-.16.62,0,1.23-.17,1.83-.18.62-.01,1.24.2,1.83.18.63-.01,1.24,0,1.83-.02.63-.02,1.25,0,1.83-.01.64-.02,1.26-.03,1.83-.06.66-.03,1.27-.21,1.82-.24.71-.04,1.31-.21,1.8-.25.55-.05,1.17.15,1.81.09.56-.05,1.15-.19,1.78-.26.57-.06,1.17-.12,1.79-.19.57-.06,1.16-.19,1.78-.27.58-.07,1.19-.02,1.8-.11.58-.08,1.15-.35,1.75-.45.58-.09,1.19-.09,1.79-.2.58-.1,1.14-.35,1.74-.47.58-.11,1.19-.09,1.79-.22.58-.12,1.14-.33,1.74-.47.58-.14,1.16-.25,1.75-.41.57-.15,1.19-.17,1.77-.34.57-.16,1.14-.37,1.71-.55.57-.17,1.14-.36,1.71-.55.56-.19,1.07-.55,1.64-.75.56-.2,1.18-.25,1.74-.47.55-.22,1.12-.43,1.67-.67.55-.23,1.02-.65,1.57-.9.54-.25,1.14-.38,1.68-.64.54-.26,1.1-.49,1.63-.77.53-.28.95-.75,1.48-1.04.52-.29,1.08-.52,1.59-.83.51-.31,1.08-.53,1.58-.86.5-.32.95-.73,1.44-1.08.49-.34,1.04-.61,1.52-.97.48-.36,1.01-.66,1.48-1.03.47-.37.78-.93,1.24-1.33.45-.39,1.03-.63,1.48-1.04.44-.4.86-.84,1.29-1.26.43-.42.78-.91,1.2-1.35.41-.43.95-.75,1.35-1.2.4-.44.67-1,1.06-1.47.38-.46.77-.91,1.14-1.39.37-.47.67-.99,1.03-1.47.35-.48.72-.95,1.06-1.45.34-.49.8-.9,1.12-1.41.32-.5.6-1.04.91-1.56.3-.51.52-1.08.82-1.6.29-.52.66-1,.94-1.54.27-.53.46-1.11.72-1.65.26-.54.47-1.1.71-1.65.24-.54.4-1.12.63-1.68.23-.55.64-1.03.85-1.6.21-.56.45-1.11.65-1.68.2-.56.41-1.12.6-1.7.18-.57.18-1.19.35-1.78.17-.57.49-1.1.65-1.69.15-.58.17-1.19.31-1.78.14-.58.37-1.14.5-1.74.13-.59.09-1.2.2-1.78.11-.59.31-1.16.41-1.74.1-.59.08-1.2.16-1.78.08-.59.17-1.18.24-1.77.07-.6.14-1.19.19-1.78.05-.6.27-1.18.31-1.77.04-.6-.01-1.2,0-1.79.02-.6,0-1.2,0-1.79,0-.6-.12-1.19-.13-1.78-.02-.6.06-1.2.02-1.79-.04-.6-.09-1.19-.14-1.78-.06-.6-.06-1.2-.14-1.78-.07-.59-.26-1.17-.35-1.76-.09-.59-.2-1.18-.32-1.76-.11-.59-.24-1.17-.37-1.75-.13-.58-.33-1.15-.48-1.72-.15-.58-.28-1.16-.45-1.73-.17-.57-.34-1.14-.53-1.7-.19-.57-.35-1.14-.56-1.7-.21-.56-.44-1.11-.67-1.66-.23-.55-.49-1.08-.73-1.63-.25-.54-.37-1.14-.63-1.68-.26-.54-.51-1.08-.79-1.6-.28-.53-.55-1.06-.84-1.58-.3-.52-.63-1.01-.95-1.52-.31-.51-.69-.97-1.02-1.47-.33-.5-.75-.93-1.09-1.41-.34-.49-.66-.99-1.01-1.47-.36-.48-.63-1.02-1-1.49-.37-.47-.83-.86-1.21-1.32-.38-.46-.72-.95-1.11-1.4-.4-.44-.72-.95-1.13-1.39-.41-.43-.84-.85-1.26-1.27-.42-.42-.83-.86-1.26-1.27-.43-.41-1.04-.64-1.48-1.04-.44-.4-.87-.81-1.32-1.2-.45-.39-.78-.93-1.24-1.3-.46-.38-.93-.75-1.4-1.12-.47-.37-1.03-.61-1.51-.97-.48-.36-.95-.72-1.43-1.06-.49-.35-.94-.74-1.43-1.07-.49-.33-1.03-.6-1.53-.92-.5-.32-.99-.67-1.49-.98-.51-.31-1.06-.55-1.57-.85-.51-.3-.95-.74-1.47-1.03-.52-.29-1.13-.41-1.66-.69-.53-.28-.96-.74-1.49-1.01-.53-.27-1.05-.57-1.59-.83-.54-.26-1.16-.34-1.7-.59-.54-.25-1.11-.44-1.66-.67-.55-.24-.99-.71-1.54-.94-.55-.23-1.1-.46-1.66-.68-.56-.22-1.12-.43-1.67-.63-.56-.21-1.2-.19-1.76-.39-.57-.2-1.13-.37-1.7-.55-.57-.18-1.12-.42-1.69-.59-.57-.17-1.16-.29-1.73-.45-.58-.16-1.09-.54-1.67-.68-.58-.15-1.19-.19-1.76-.33-.58-.14-1.16-.28-1.74-.4-.59-.12-1.2-.09-1.78-.2ZM45.78,26.95c-.18.65-.58,1.2-.88,1.74-.33.58-.68,1.12-1.12,1.57-.46.47-1.04.74-1.6,1.05-.56.31-1.11.63-1.75.77-.62.14-1.26.37-1.93.33-.62-.03-1.26-.27-1.91-.46-.65-.18-1.2-.53-1.75-.83-.58-.33-1.1-.68-1.55-1.13-.47-.46-.99-.88-1.3-1.45-.31-.56-.32-1.24-.46-1.88-.14-.62-.44-1.24-.4-1.9.03-.62.22-1.27.41-1.91.18-.65.57-1.18.87-1.73.33-.58.57-1.2,1.01-1.65.46-.47.98-.89,1.54-1.2.56-.31,1.19-.56,1.83-.7.62-.14,1.27.05,1.94.08.62.03,1.27,0,1.91.2.65.18,1.28.38,1.82.68.58.33,1.08.75,1.53,1.2.47.46.84.99,1.15,1.55.31.56.69,1.13.83,1.77.14.62.04,1.29,0,1.96-.03.62-.02,1.29-.21,1.94ZM66.09,69.61c-.63-.09-1.23-.28-1.81-.51-.58-.23-1.06-.63-1.59-.97-.52-.33-1.17-.51-1.64-.93-.46-.41-.93-.86-1.35-1.33-.42-.47-.73-1.03-1.1-1.53-.37-.51-.74-1.02-1.07-1.55-.34-.54-.53-1.16-.82-1.7-.31-.57-.62-1.12-.87-1.66-.29-.61-.55-1.18-.77-1.71-.28-.67-.56-1.3-.73-1.78-.62.38-1.24.75-1.82,1.02-.7.33-1.35.55-1.92.69-.91.23-1.68.33-2.04.01-.42-.37-.01-.87.66-1.51.36-.34.73-.85,1.28-1.28.44-.34.94-.69,1.45-1.09.46-.35.95-.71,1.43-1.11.45-.38,1.01-.66,1.46-1.09.43-.41.74-.97,1.14-1.42.4-.45.74-.95,1.09-1.44.35-.49.67-.99.94-1.53.27-.54.55-1.07.71-1.66.17-.59.19-1.18.26-1.77.07-.6.21-1.19.2-1.78-.01-.61.05-1.22-.03-1.8-.08-.61-.36-1.17-.49-1.74-.14-.61-.21-1.21-.38-1.76-.19-.61-.28-1.22-.46-1.74-.22-.66-.66-1.16-.8-1.63-.26-.94-.14-1.53.49-1.46.5.05,1.07.31,1.64.7.45.3.9.7,1.33,1.2.36.42.65.95.96,1.51.27.49.49,1.04.69,1.64.18.54.5,1.07.61,1.69.1.56,0,1.29.04,1.91.45-.23,1.15-.51,1.81-.81.52-.23,1.05-.54,1.67-.78.55-.21,1.14-.38,1.75-.58.57-.18,1.12-.5,1.73-.65.59-.15,1.2-.25,1.81-.37.6-.11,1.21-.29,1.82-.35.61-.06,1.24.18,1.86.18.62,0,1.25-.25,1.86-.18.61.07,1.22.23,1.82.39.59.16,1.13.49,1.7.74.56.24,1.18.4,1.7.75.5.33,1.02.7,1.49,1.13.53.49.77,1.12,1.06,1.58.38.61.55,1.17.61,1.73.07.66-.05,1.23-.29,1.8-.24.58-.61,1.06-1.03,1.53-.44.5-.73,1.15-1.19,1.5-.86.65-1.74-.04-1.62.9.12.98.84.26,1.62,1.05.41.41.65,1.06.93,1.73.22.54.53,1.15.53,1.88,0,.58-.21,1.22-.42,1.93-.19.65-.51,1.12-.83,1.55-.38.52-.73,1-1.23,1.27-.54.29-1.16.32-1.73.41-.63.09-1.24.29-1.78.24-1.01-.09-1.42-1.26-1.8-.45-.4.85.57.66,1.03,1.61.25.51.63,1.08.72,1.74.08.58.06,1.26-.14,1.89-.17.54-.51,1.09-.97,1.63-.41.48-.93.75-1.43.98-.54.24-1.1.41-1.67.43-.58.03-1.15-.17-1.7-.29-.6-.13-1.21-.16-1.7-.34-.93-.36-1.1-1.55-1.47-.77-.39.81.3.78.43,1.67.08.59.04,1.17-.35,1.65-.3.37-.72.83-1.51.92-.48.05-1.09-.08-1.8-.19ZM72.81,77.68c.08-.28.83.04,1.79.67.46.31.91.82,1.51,1.19.52.32,1.1.61,1.69.91.56.29,1.18.49,1.78.71.61.22,1.24.28,1.87.37.64.09,1.24.09,1.87,0,.69-.11,1.23-.29,1.7-.67.49-.39.95-.82,1.25-1.41.27-.55.46-1.17.62-1.81.15-.61.35-1.24.43-1.88.07-.65-.16-1.32-.13-1.93.04-.71.26-1.35.29-1.9.06-1.08.1-1.75.47-1.64.46.13.83.57,1.17,1.23.24.46.5,1,.65,1.64.12.54.2,1.14.24,1.76.04.57.03,1.17-.02,1.78-.04.58,0,1.2-.12,1.79-.13.57-.31,1.16-.54,1.72-.22.55-.59,1.04-.91,1.55-.32.49-.77.88-1.2,1.31-.41.41-.84.8-1.36,1.12-.48.3-.95.72-1.53.93-.61.22-1.25.34-1.85.35-.62.01-1.27-.07-1.86-.23-.59-.16-1.19-.4-1.74-.69-.54-.29-.99-.75-1.49-1.13-.5-.38-.93-.82-1.36-1.24-.46-.45-.85-.93-1.22-1.38-.44-.53-.82-1.01-1.12-1.46-.53-.82-.94-1.43-.88-1.64ZM81.93,101.61c-.64-.13-1.16-.43-1.68-.7-.57-.3-1.12-.55-1.55-.96-.45-.44-.94-.86-1.26-1.37-.33-.53-.41-1.19-.62-1.76-.22-.6-.5-1.17-.61-1.74-.13-.67-.26-1.3-.27-1.84-.02-.95.19-1.68.36-1.84.22-.2.58.37,1.08,1.23.24.42.65.84.99,1.38.28.45.49.99.85,1.47.33.44.74.84,1.14,1.25.39.4.7.93,1.16,1.26.45.32,1,.56,1.53.78.6.25,1.2.35,1.74.32.59-.03,1.18-.2,1.7-.48.5-.27.92-.71,1.36-1.12.42-.4.86-.8,1.22-1.27.37-.47.72-.96,1.04-1.42.36-.54.71-1.02.99-1.44.55-.81.8-1.28,1.06-.98.34.38.58.93.52,1.67-.04.54-.1,1.19-.34,1.83-.21.54-.69,1-1.03,1.54-.32.5-.66,1-1.09,1.46-.41.44-.76.98-1.26,1.35-.48.36-1.12.49-1.69.75-.54.25-1.04.73-1.65.86-.58.12-1.22-.05-1.86-.05-.59,0-1.19-.02-1.82-.15ZM98.94,91c-.64.13-1.26.26-1.84.22-.64-.05-1.24-.24-1.8-.46-.58-.23-1.17-.48-1.66-.84-.51-.36-1-.78-1.41-1.22-.43-.47-.66-1.09-.99-1.58-.37-.56-.85-1.03-1.08-1.52-.39-.86-.3-1.55-.2-1.77.13-.28.51.04,1.3.64.39.29.92.55,1.43.91.43.31.89.64,1.4.94.48.28.98.52,1.51.75.51.21,1.02.47,1.58.6.54.12,1.11.21,1.68.2.65,0,1.17-.24,1.66-.47.53-.26,1.04-.53,1.41-.99.36-.44.58-.99.82-1.54.23-.53.54-1.05.7-1.62.16-.58.28-1.17.38-1.72.12-.64.29-1.21.38-1.71.19-.97.2-1.51.56-1.35.46.21.83.66,1.07,1.38.17.52.37,1.12.39,1.8.02.58-.05,1.21-.16,1.84-.1.59-.29,1.18-.5,1.78-.2.57-.45,1.13-.77,1.67-.31.52-.73.97-1.15,1.43-.4.44-.77.96-1.29,1.32-.49.34-1.01.71-1.61.95-.54.22-1.19.24-1.83.36ZM104.77,76.34c-.61.22-1.24.19-1.84.2-.62.01-1.26.11-1.86-.06-.59-.16-1.12-.54-1.67-.83-.54-.29-1.1-.56-1.6-.93-.5-.38-.94-.82-1.37-1.24-.46-.45-.9-.89-1.28-1.34-.44-.53-.77-1.06-1.07-1.51-.53-.82-.95-1.48-.89-1.69.08-.28.84.11,1.79.7.46.29,1.07.53,1.67.88.52.3,1.05.65,1.64.93.56.27,1.1.63,1.7.82.6.2,1.22.42,1.84.5.63.08,1.29.06,1.91-.03.69-.11,1.24-.44,1.68-.81.47-.39.83-.91,1.08-1.51.23-.54.31-1.17.4-1.81.09-.6.29-1.23.3-1.85.01-.64-.04-1.27-.07-1.87-.03-.69-.26-1.31-.28-1.85-.05-1.07.1-1.87.48-1.76.44.13.87.66,1.25,1.3.27.45.36,1.06.56,1.68.17.53.56,1.05.66,1.67.09.57.1,1.18.11,1.79.01.59-.11,1.18-.18,1.78-.07.59-.28,1.14-.45,1.71-.17.57-.24,1.18-.52,1.71-.28.52-.59,1.06-1,1.5-.39.43-.95.7-1.47,1.04-.48.31-.96.68-1.55.9Z"/>
          <path class="cls-3" d="M73.91,56.65c.12-.29-.16-.82-.86-1.44-.39-.34-.98-.58-1.52-.96-.47-.33-.89-.79-1.42-1.11-.51-.31-1.07-.55-1.6-.83-.55-.29-1.07-.6-1.6-.83-.61-.27-1.19-.46-1.69-.6-.83-.23-1.46-.28-1.72.02-.18.22.35.61,1.13,1.22.4.32.82.77,1.37,1.13.47.31,1.05.52,1.58.83.51.3,1.01.64,1.53.92.55.29,1.03.67,1.54.91.6.28,1.14.59,1.63.76.91.32,1.51.27,1.63-.03ZM76.8,47.13c0-.29-.52-.71-1.47-1.06-.53-.2-1.22-.22-1.9-.39-.6-.15-1.21-.44-1.86-.55-.65-.11-1.31-.12-1.93-.17-.71-.05-1.36-.11-1.93-.05-.85.09-1.45.33-1.68.76-.12.23.52.52,1.58.8.53.14,1.2.13,1.88.26.6.11,1.21.35,1.85.44.64.09,1.29.05,1.9.11.69.07,1.33.16,1.88.16,1.05.01,1.67-.02,1.67-.31ZM60.21,55.66c-.24.19-.06.82.51,1.69.3.47.84.89,1.27,1.44.38.48.69,1.08,1.12,1.56.43.49.93.91,1.37,1.35.5.5.95.97,1.39,1.32.8.65,1.4.95,1.64.69.23-.25,0-.9-.52-1.74-.3-.47-.8-.91-1.24-1.46-.38-.48-.7-1.06-1.14-1.54-.44-.48-.97-.87-1.41-1.3-.5-.49-.95-.96-1.4-1.3-.79-.61-1.32-.93-1.58-.72ZM57.69,4.82c-.6-.11-1.17-.29-1.76-.38-.6-.09-1.21-.07-1.79-.13-.6-.07-1.18-.34-1.77-.38-.61-.04-1.22.14-1.81.13-.61-.02-1.2-.04-1.79-.03-.61,0-1.2,0-1.79.03-.61.03-1.21-.05-1.8.01-.6.06-1.21.03-1.8.12-.6.09-1.15.45-1.73.56-.6.12-1.23.02-1.8.16-.59.14-1.11.52-1.68.68-.58.17-1.14.38-1.7.57-.57.2-1.15.36-1.69.59-.56.23-1.16.36-1.69.61-.55.26-1.08.53-1.61.81-.54.28-1.13.46-1.64.76-.52.31-.93.79-1.43,1.12-.51.33-1.11.51-1.59.85-.49.35-.84.89-1.3,1.25-.48.38-.99.69-1.44,1.07-.46.4-.83.88-1.26,1.28-.45.42-.88.83-1.29,1.24-.43.44-.85.87-1.24,1.3-.42.46-.82.9-1.19,1.34-.41.49-.88.87-1.22,1.32-.39.51-.83.94-1.14,1.39-.39.56-.48,1.22-.75,1.65-.61.96-1.25.6-.93,1.43.31.82.57.19,1.56.66.45.22,1,.46,1.59.76.48.25.96.63,1.51.93.49.27.98.6,1.5.91.49.29,1.01.58,1.51.9.49.31.98.64,1.47.98.48.34,1.01.62,1.47.98.47.36.82.86,1.26,1.25.45.39.93.74,1.34,1.15.42.43.82.87,1.18,1.32.38.47.63,1.01.92,1.5.31.52.52,1.05.71,1.59.2.57.3,1.11.34,1.69.04.58.26,1.18.11,1.77-.16.63-.48,1.19-.74,1.72-.27.58-.69,1.04-1.05,1.52-.38.5-.74.99-1.21,1.4-.46.41-.96.78-1.49,1.11-.52.32-1.08.59-1.66.84-.56.24-1.15.45-1.75.62-.59.17-1.2.29-1.81.41-.61.12-1.22.17-1.84.24-.62.08-1.22.34-1.84.38-.63.04-1.26-.22-1.87-.21-.63,0-1.26.2-1.86.18-.64-.03-1.27-.08-1.86-.13-.66-.05-1.28-.1-1.85-.17-.69-.09-1.26-.23-1.79-.32.01.61-.03,1.18.02,1.77.05.6.07,1.21.16,1.8.1.6.2,1.2.33,1.78.14.59.36,1.16.54,1.73.17.58.49,1.1.7,1.67.21.56.47,1.1.71,1.65.24.55.42,1.13.69,1.66.27.53.53,1.08.83,1.6.3.52.59,1.05.92,1.55.33.5.6,1.05.95,1.54.35.49.73.96,1.1,1.43.37.47.73.96,1.13,1.42.39.45.81.9,1.22,1.34.41.44,1.02.68,1.45,1.11.43.42.71,1,1.15,1.41.44.41.93.77,1.38,1.16.45.39.91.79,1.38,1.17.47.38.96.73,1.43,1.1.48.37.98.71,1.46,1.06.49.35,1.01.65,1.51.99.5.34.93.78,1.43,1.11.51.33.99.7,1.5,1.01.52.32,1.13.46,1.65.76.52.3,1.04.61,1.57.9.53.29,1.07.56,1.6.83.54.28.98.74,1.52,1,.55.27,1.09.52,1.63.77.55.25,1.17.36,1.71.6.56.24,1.14.42,1.69.64.57.23,1.09.54,1.65.74.58.21,1.18.31,1.74.5.58.2,1.1.55,1.66.72.59.18,1.17.34,1.73.49.6.16,1.21.27,1.77.45.6.19,1.14.48,1.7.69.59.22,1.18.38,1.72.62.57.25,1.12.53,1.64.8.56.29,1.09.58,1.6.89.54.33.97.77,1.45,1.11.51.37,1.15.54,1.6.92.48.41.76,1,1.17,1.42.44.45.97.79,1.34,1.25.39.49.63,1.07.96,1.56.34.52.82.95,1.09,1.48.29.56.34,1.2.55,1.75.22.56.43,1.07.53,1.6.11.59.2,1.14.17,1.68-.03.6-.12,1.15-.31,1.66-.2.54-.36,1.14-.74,1.56-.37.41-.92.68-1.45.95-.47.24-1,.53-1.6.64-.52.09-1.11.09-1.72.07-.53-.02-1.1-.13-1.7-.24-.46-.08-.98-.38-1.62-.68-.48-.22-1.08-.35-1.64-.68-.48-.28-.96-.63-1.48-.97-.47-.3-.85-.78-1.36-1.13-.47-.32-.99-.6-1.48-.96-.46-.34-.97-.64-1.45-1-.46-.35-1.02-.59-1.49-.96-.46-.36-.93-.72-1.39-1.09-.46-.36-.75-.94-1.21-1.31-.46-.37-.97-.67-1.43-1.04-.45-.37-.89-.77-1.34-1.15-.45-.38-.98-.67-1.43-1.05-.45-.38-.93-.73-1.38-1.11-.45-.39-.93-.74-1.37-1.12-.45-.39-.86-.83-1.3-1.21-.45-.4-.86-.83-1.3-1.21-.46-.4-.89-.8-1.32-1.18-.46-.41-.8-.91-1.22-1.29-.46-.41-.95-.76-1.36-1.13-.47-.43-1-.72-1.4-1.09-.5-.45-.83-.97-1.2-1.3-.82-.76-1.39-2.02-1.46-1.14-.07,1,.24,1,.42,1.98.18.98.27.97.45,1.95s.13.99.44,1.94c.38.32.66.8,1.16,1.23.41.35,1,.56,1.47.97.42.36.81.8,1.27,1.2.42.37.86.76,1.31,1.16.43.38.88.75,1.32,1.15.43.38.76.88,1.2,1.28.43.39.95.69,1.38,1.09.43.4.69.97,1.11,1.37.42.4.98.67,1.4,1.08.42.41.84.83,1.24,1.24.42.42.71.95,1.11,1.37.41.43.83.84,1.22,1.26.41.45.86.83,1.22,1.26.4.46.88.83,1.22,1.27.38.49.66,1.06.96,1.51-.3-.22-.92-.5-1.57-.97-.43-.31-.85-.75-1.39-1.14-.45-.32-.88-.77-1.4-1.13-.47-.33-.95-.69-1.46-1.05-.48-.34-1.09-.52-1.59-.87-.48-.34-.91-.78-1.4-1.14-.49-.35-.94-.75-1.43-1.09-.49-.35-1.1-.54-1.59-.88-.5-.35-1-.68-1.48-1.03-.5-.36-.84-.93-1.31-1.26-.51-.36-1.04-.66-1.5-.99-.52-.37-1.03-.65-1.48-.96-.1.82.24.78.39,1.59q.15.81.3,1.62c.15.81.13.82.28,1.63.15.81-.07.86.25,1.62.49.29.91.71,1.45,1.03.5.3,1.06.55,1.6.87.51.31,1.11.5,1.63.82.51.32,1.01.67,1.53,1,.51.32,1.01.67,1.52,1.01.51.33.9.86,1.4,1.19.51.34,1.02.67,1.52,1.01.51.35,1.06.63,1.54.98.51.36,1.01.7,1.49,1.06.51.38,1.03.7,1.48,1.06.5.41.86.86,1.27,1.24-.38-.23-.84-.53-1.48-.86-.47-.25-1.01-.49-1.59-.78-.5-.25-.97-.63-1.53-.9-.51-.25-1.14-.32-1.69-.58-.52-.25-.94-.75-1.48-1.01-.53-.25-1.14-.35-1.68-.61-.53-.25-1-.66-1.53-.92-.54-.26-1.18-.31-1.71-.56-.55-.26-1-.68-1.53-.93-.55-.26-1.25-.45-1.77-.69-.11.92.41.91.58,1.82.17.91.17.91.34,1.83.17.91-.18,1.01.19,1.86.54.2,1.15.34,1.73.55.54.2,1.04.59,1.62.8.55.2,1.2.16,1.78.37.55.2,1.04.63,1.61.83.56.2,1.2.19,1.77.4.56.2,1.1.48,1.66.69.56.2,1.13.4,1.69.6.56.2,1.13.41,1.69.62.57.2,1.13.41,1.7.61.57.2,1.12.45,1.68.66.57.2,1.18.27,1.74.47.57.2,1.13.48,1.69.68-.38-.07-1.05-.13-1.87-.28-.54-.1-1.17-.14-1.85-.27-.57-.1-1.19-.18-1.85-.3-.59-.11-1.17-.37-1.81-.49-.6-.11-1.24-.03-1.87-.15-.6-.11-1.22-.22-1.84-.33-.61-.11-1.2-.34-1.82-.45-.61-.11-1.24-.14-1.86-.25-.62-.11-1.2-.4-1.81-.51-.62-.11-1.23-.27-1.84-.37-.63-.11-1.27-.09-1.86-.2-.63-.11-1.28-.34-1.87-.45-.37.32-.84.7-1.28,1.08-.39.33-.74.74-1.17,1.1-.4.33-.75.71-1.18,1.07.53.12,1.06.36,1.69.48.54.11,1.15.08,1.77.19.55.1,1.13.26,1.74.36.56.09,1.15.17,1.76.26.56.09,1.13.27,1.74.36.57.08,1.17.03,1.78.11.57.08,1.14.28,1.75.35.57.07,1.17.06,1.78.14.58.07,1.18,0,1.79.07.58.06,1.1.28,1.71.34-.54.07-1.06.2-1.67.25-.55.05-1.14-.03-1.75,0-.56.03-1.14.11-1.74.13-.57.02-1.15,0-1.75,0-.57,0-1.16.08-1.75.08-.58,0-1.16-.14-1.75-.14-.58,0-1.17.14-1.75.13-.59-.01-1.17-.07-1.75-.09-.59-.01-1.17-.09-1.75-.11-.59-.02-1.18.05-1.75.03-.6-.02-1.17-.17-1.74-.2-.6-.03-1.19-.02-1.75-.04-.46.37-.95.74-1.41,1.11-.47.38-.93.77-1.39,1.14-.47.38-.93.77-1.39,1.14.53.06,1.12.13,1.75.19.54.05,1.13.07,1.74.12.55.05,1.12.21,1.73.26.56.05,1.15-.13,1.76-.08.56.04,1.14.13,1.74.17.56.04,1.14.05,1.74.09.56.04,1.13.35,1.72.38.57.04,1.16-.15,1.76-.11.57.03,1.14.28,1.73.31.57.03,1.15.06,1.74.09.57.03,1.16-.09,1.76-.06.57.03,1.14.05,1.74.08-.56.12-1.12.31-1.72.42-.57.1-1.18.07-1.78.16-.58.08-1.16.23-1.76.3-.58.07-1.17.15-1.77.21-.59.06-1.19.02-1.78.07-.59.05-1.18.15-1.78.19-.59.04-1.2-.03-1.79,0-.6.03-1.19.15-1.78.18-.6.03-1.2.08-1.79.1-.6.02-1.2.04-1.79.05-.61.01-1.21-.1-1.79-.09-.61,0-1.21.2-1.78.21-.62,0-1.22-.2-1.78-.2-.63,0-1.26.03-1.82.02-.49.39-.99.78-1.43,1.14-.5.4-.87.9-1.31,1.24-.53.42-1.06.73-1.46,1.04-.89.7-1.56.23-1.27,1.08.3.86.54,0,1.7,0,.51,0,1.13.07,1.82.07.56,0,1.17.07,1.83.07.57,0,1.18.01,1.82.01.58,0,1.19-.06,1.82-.06.59,0,1.2-.18,1.82-.18.59,0,1.2.12,1.83.12.6,0,1.21-.03,1.83-.03.6,0,1.21,0,1.83,0,.6,0,1.21.08,1.83.08.6,0,1.21.02,1.82.02.61,0,1.22-.08,1.83-.08.61,0,1.22.11,1.83.1.61,0,1.22-.14,1.83-.15.61,0,1.23.16,1.83.15.62,0,1.23-.15,1.83-.16.62,0,1.23-.17,1.83-.18.62-.01,1.24.2,1.83.18.63-.01,1.24,0,1.83-.02.63-.02,1.25,0,1.83-.01.64-.02,1.26-.03,1.83-.06.66-.03,1.27-.21,1.82-.24.71-.04,1.31-.21,1.8-.25.55-.05,1.17.15,1.81.09.56-.05,1.15-.19,1.78-.26.57-.06,1.17-.12,1.79-.19.57-.06,1.16-.19,1.78-.27.58-.07,1.19-.02,1.8-.11.58-.08,1.15-.35,1.75-.45.58-.09,1.19-.09,1.79-.2.58-.1,1.14-.35,1.74-.47.58-.11,1.19-.09,1.79-.22.58-.12,1.14-.33,1.74-.47.58-.14,1.16-.25,1.75-.41.57-.15,1.19-.17,1.77-.34.57-.16,1.14-.37,1.71-.55.57-.17,1.14-.36,1.71-.55.56-.19,1.07-.55,1.64-.75.56-.2,1.18-.25,1.74-.47.55-.22,1.12-.43,1.67-.67.55-.23,1.02-.65,1.57-.9.54-.25,1.14-.38,1.68-.64.54-.26,1.1-.49,1.63-.77.53-.28.95-.75,1.48-1.04.52-.29,1.08-.52,1.59-.83.51-.31,1.08-.53,1.58-.86.5-.32.95-.73,1.44-1.08.49-.34,1.04-.61,1.52-.97.48-.36,1.01-.66,1.48-1.03.47-.37.78-.93,1.24-1.33.45-.39,1.03-.63,1.48-1.04.44-.4.86-.84,1.29-1.26.43-.42.78-.91,1.2-1.35.41-.43.95-.75,1.35-1.2.4-.44.67-1,1.06-1.47.38-.46.77-.91,1.14-1.39.37-.47.67-.99,1.03-1.47.35-.48.72-.95,1.06-1.45.34-.49.8-.9,1.12-1.41.32-.5.6-1.04.91-1.56.3-.51.52-1.08.82-1.6.29-.52.66-1,.94-1.54.27-.53.46-1.11.72-1.65.26-.54.47-1.1.71-1.65.24-.54.4-1.12.63-1.68.23-.55.64-1.03.85-1.6.21-.56.45-1.11.65-1.68.2-.56.41-1.12.6-1.7.18-.57.18-1.19.35-1.78.17-.57.49-1.1.65-1.69.15-.58.17-1.19.31-1.78.14-.58.37-1.14.5-1.74.13-.59.09-1.2.2-1.78.11-.59.31-1.16.41-1.74.1-.59.08-1.2.16-1.78.08-.59.17-1.18.24-1.77.07-.6.14-1.19.19-1.78.05-.6.27-1.18.31-1.77.04-.6-.01-1.2,0-1.79.02-.6,0-1.2,0-1.79,0-.6-.12-1.19-.13-1.78-.02-.6.06-1.2.02-1.79-.04-.6-.09-1.19-.14-1.78-.06-.6-.06-1.2-.14-1.78-.07-.59-.26-1.17-.35-1.76-.09-.59-.2-1.18-.32-1.76-.11-.59-.24-1.17-.37-1.75-.13-.58-.33-1.15-.48-1.72-.15-.58-.28-1.16-.45-1.73-.17-.57-.34-1.14-.53-1.7-.19-.57-.35-1.14-.56-1.7-.21-.56-.44-1.11-.67-1.66-.23-.55-.49-1.08-.73-1.63-.25-.54-.37-1.14-.63-1.68-.26-.54-.51-1.08-.79-1.6-.28-.53-.55-1.06-.84-1.58-.3-.52-.63-1.01-.95-1.52-.31-.51-.69-.97-1.02-1.47-.33-.5-.75-.93-1.09-1.41-.34-.49-.66-.99-1.01-1.47-.36-.48-.63-1.02-1-1.49-.37-.47-.83-.86-1.21-1.32-.38-.46-.72-.95-1.11-1.4-.4-.44-.72-.95-1.13-1.39-.41-.43-.84-.85-1.26-1.27-.42-.42-.83-.86-1.26-1.27-.43-.41-1.04-.64-1.48-1.04-.44-.4-.87-.81-1.32-1.2-.45-.39-.78-.93-1.24-1.3-.46-.38-.93-.75-1.4-1.12-.47-.37-1.03-.61-1.51-.97-.48-.36-.95-.72-1.43-1.06-.49-.35-.94-.74-1.43-1.07-.49-.33-1.03-.6-1.53-.92-.5-.32-.99-.67-1.49-.98-.51-.31-1.06-.55-1.57-.85-.51-.3-.95-.74-1.47-1.03-.52-.29-1.13-.41-1.66-.69-.53-.28-.96-.74-1.49-1.01-.53-.27-1.05-.57-1.59-.83-.54-.26-1.16-.34-1.7-.59-.54-.25-1.11-.44-1.66-.67-.55-.24-.99-.71-1.54-.94-.55-.23-1.1-.46-1.66-.68-.56-.22-1.12-.43-1.67-.63-.56-.21-1.2-.19-1.76-.39-.57-.2-1.13-.37-1.7-.55-.57-.18-1.12-.42-1.69-.59-.57-.17-1.16-.29-1.73-.45-.58-.16-1.09-.54-1.67-.68-.58-.15-1.19-.19-1.76-.33-.58-.14-1.16-.28-1.74-.4-.59-.12-1.2-.09-1.78-.2ZM45.78,26.95c-.18.65-.58,1.2-.88,1.74-.33.58-.68,1.12-1.12,1.57-.46.47-1.04.74-1.6,1.05-.56.31-1.11.63-1.75.77-.62.14-1.26.37-1.93.33-.62-.03-1.26-.27-1.91-.46-.65-.18-1.2-.53-1.75-.83-.58-.33-1.1-.68-1.55-1.13-.47-.46-.99-.88-1.3-1.45-.31-.56-.32-1.24-.46-1.88-.14-.62-.44-1.24-.4-1.9.03-.62.22-1.27.41-1.91.18-.65.57-1.18.87-1.73.33-.58.57-1.2,1.01-1.65.46-.47.98-.89,1.54-1.2.56-.31,1.19-.56,1.83-.7.62-.14,1.27.05,1.94.08.62.03,1.27,0,1.91.2.65.18,1.28.38,1.82.68.58.33,1.08.75,1.53,1.2.47.46.84.99,1.15,1.55.31.56.69,1.13.83,1.77.14.62.04,1.29,0,1.96-.03.62-.02,1.29-.21,1.94ZM66.09,69.61c-.63-.09-1.23-.28-1.81-.51-.58-.23-1.06-.63-1.59-.97-.52-.33-1.17-.51-1.64-.93-.46-.41-.93-.86-1.35-1.33-.42-.47-.73-1.03-1.1-1.53-.37-.51-.74-1.02-1.07-1.55-.34-.54-.53-1.16-.82-1.7-.31-.57-.62-1.12-.87-1.66-.29-.61-.55-1.18-.77-1.71-.28-.67-.56-1.3-.73-1.78-.62.38-1.24.75-1.82,1.02-.7.33-1.35.55-1.92.69-.91.23-1.68.33-2.04.01-.42-.37-.01-.87.66-1.51.36-.34.73-.85,1.28-1.28.44-.34.94-.69,1.45-1.09.46-.35.95-.71,1.43-1.11.45-.38,1.01-.66,1.46-1.09.43-.41.74-.97,1.14-1.42.4-.45.74-.95,1.09-1.44.35-.49.67-.99.94-1.53.27-.54.55-1.07.71-1.66.17-.59.19-1.18.26-1.77.07-.6.21-1.19.2-1.78-.01-.61.05-1.22-.03-1.8-.08-.61-.36-1.17-.49-1.74-.14-.61-.21-1.21-.38-1.76-.19-.61-.28-1.22-.46-1.74-.22-.66-.66-1.16-.8-1.63-.26-.94-.14-1.53.49-1.46.5.05,1.07.31,1.64.7.45.3.9.7,1.33,1.2.36.42.65.95.96,1.51.27.49.49,1.04.69,1.64.18.54.5,1.07.61,1.69.1.56,0,1.29.04,1.91.45-.23,1.15-.51,1.81-.81.52-.23,1.05-.54,1.67-.78.55-.21,1.14-.38,1.75-.58.57-.18,1.12-.5,1.73-.65.59-.15,1.2-.25,1.81-.37.6-.11,1.21-.29,1.82-.35.61-.06,1.24.18,1.86.18.62,0,1.25-.25,1.86-.18.61.07,1.22.23,1.82.39.59.16,1.13.49,1.7.74.56.24,1.18.4,1.7.75.5.33,1.02.7,1.49,1.13.53.49.77,1.12,1.06,1.58.38.61.55,1.17.61,1.73.07.66-.05,1.23-.29,1.8-.24.58-.61,1.06-1.03,1.53-.44.5-.73,1.15-1.19,1.5-.86.65-1.74-.04-1.62.9.12.98.84.26,1.62,1.05.41.41.65,1.06.93,1.73.22.54.53,1.15.53,1.88,0,.58-.21,1.22-.42,1.93-.19.65-.51,1.12-.83,1.55-.38.52-.73,1-1.23,1.27-.54.29-1.16.32-1.73.41-.63.09-1.24.29-1.78.24-1.01-.09-1.42-1.26-1.8-.45-.4.85.57.66,1.03,1.61.25.51.63,1.08.72,1.74.08.58.06,1.26-.14,1.89-.17.54-.51,1.09-.97,1.63-.41.48-.93.75-1.43.98-.54.24-1.1.41-1.67.43-.58.03-1.15-.17-1.7-.29-.6-.13-1.21-.16-1.7-.34-.93-.36-1.1-1.55-1.47-.77-.39.81.3.78.43,1.67.08.59.04,1.17-.35,1.65-.3.37-.72.83-1.51.92-.48.05-1.09-.08-1.8-.19ZM72.81,77.68c.08-.28.83.04,1.79.67.46.31.91.82,1.51,1.19.52.32,1.1.61,1.69.91.56.29,1.18.49,1.78.71.61.22,1.24.28,1.87.37.64.09,1.24.09,1.87,0,.69-.11,1.23-.29,1.7-.67.49-.39.95-.82,1.25-1.41.27-.55.46-1.17.62-1.81.15-.61.35-1.24.43-1.88.07-.65-.16-1.32-.13-1.93.04-.71.26-1.35.29-1.9.06-1.08.1-1.75.47-1.64.46.13.83.57,1.17,1.23.24.46.5,1,.65,1.64.12.54.2,1.14.24,1.76.04.57.03,1.17-.02,1.78-.04.58,0,1.2-.12,1.79-.13.57-.31,1.16-.54,1.72-.22.55-.59,1.04-.91,1.55-.32.49-.77.88-1.2,1.31-.41.41-.84.8-1.36,1.12-.48.3-.95.72-1.53.93-.61.22-1.25.34-1.85.35-.62.01-1.27-.07-1.86-.23-.59-.16-1.19-.4-1.74-.69-.54-.29-.99-.75-1.49-1.13-.5-.38-.93-.82-1.36-1.24-.46-.45-.85-.93-1.22-1.38-.44-.53-.82-1.01-1.12-1.46-.53-.82-.94-1.43-.88-1.64ZM81.93,101.61c-.64-.13-1.16-.43-1.68-.7-.57-.3-1.12-.55-1.55-.96-.45-.44-.94-.86-1.26-1.37-.33-.53-.41-1.19-.62-1.76-.22-.6-.5-1.17-.61-1.74-.13-.67-.26-1.3-.27-1.84-.02-.95.19-1.68.36-1.84.22-.2.58.37,1.08,1.23.24.42.65.84.99,1.38.28.45.49.99.85,1.47.33.44.74.84,1.14,1.25.39.4.7.93,1.16,1.26.45.32,1,.56,1.53.78.6.25,1.2.35,1.74.32.59-.03,1.18-.2,1.7-.48.5-.27.92-.71,1.36-1.12.42-.4.86-.8,1.22-1.27.37-.47.72-.96,1.04-1.42.36-.54.71-1.02.99-1.44.55-.81.8-1.28,1.06-.98.34.38.58.93.52,1.67-.04.54-.1,1.19-.34,1.83-.21.54-.69,1-1.03,1.54-.32.5-.66,1-1.09,1.46-.41.44-.76.98-1.26,1.35-.48.36-1.12.49-1.69.75-.54.25-1.04.73-1.65.86-.58.12-1.22-.05-1.86-.05-.59,0-1.19-.02-1.82-.15ZM98.94,91c-.64.13-1.26.26-1.84.22-.64-.05-1.24-.24-1.8-.46-.58-.23-1.17-.48-1.66-.84-.51-.36-1-.78-1.41-1.22-.43-.47-.66-1.09-.99-1.58-.37-.56-.85-1.03-1.08-1.52-.39-.86-.3-1.55-.2-1.77.13-.28.51.04,1.3.64.39.29.92.55,1.43.91.43.31.89.64,1.4.94.48.28.98.52,1.51.75.51.21,1.02.47,1.58.6.54.12,1.11.21,1.68.2.65,0,1.17-.24,1.66-.47.53-.26,1.04-.53,1.41-.99.36-.44.58-.99.82-1.54.23-.53.54-1.05.7-1.62.16-.58.28-1.17.38-1.72.12-.64.29-1.21.38-1.71.19-.97.2-1.51.56-1.35.46.21.83.66,1.07,1.38.17.52.37,1.12.39,1.8.02.58-.05,1.21-.16,1.84-.1.59-.29,1.18-.5,1.78-.2.57-.45,1.13-.77,1.67-.31.52-.73.97-1.15,1.43-.4.44-.77.96-1.29,1.32-.49.34-1.01.71-1.61.95-.54.22-1.19.24-1.83.36ZM104.77,76.34c-.61.22-1.24.19-1.84.2-.62.01-1.26.11-1.86-.06-.59-.16-1.12-.54-1.67-.83-.54-.29-1.1-.56-1.6-.93-.5-.38-.94-.82-1.37-1.24-.46-.45-.9-.89-1.28-1.34-.44-.53-.77-1.06-1.07-1.51-.53-.82-.95-1.48-.89-1.69.08-.28.84.11,1.79.7.46.29,1.07.53,1.67.88.52.3,1.05.65,1.64.93.56.27,1.1.63,1.7.82.6.2,1.22.42,1.84.5.63.08,1.29.06,1.91-.03.69-.11,1.24-.44,1.68-.81.47-.39.83-.91,1.08-1.51.23-.54.31-1.17.4-1.81.09-.6.29-1.23.3-1.85.01-.64-.04-1.27-.07-1.87-.03-.69-.26-1.31-.28-1.85-.05-1.07.1-1.87.48-1.76.44.13.87.66,1.25,1.3.27.45.36,1.06.56,1.68.17.53.56,1.05.66,1.67.09.57.1,1.18.11,1.79.01.59-.11,1.18-.18,1.78-.07.59-.28,1.14-.45,1.71-.17.57-.24,1.18-.52,1.71-.28.52-.59,1.06-1,1.5-.39.43-.95.7-1.47,1.04-.48.31-.96.68-1.55.9Z"/>
        </g>
        <path class="cls-3" d="M42.45,26.25c-.2.71-.65,1.25-1.11,1.71-.49.49-1.05.91-1.72,1.06-.63.14-1.35.14-2.06-.07-.71-.2-1.25-.65-1.71-1.1-.49-.49-.79-1.08-.94-1.75-.14-.63-.12-1.29.09-1.99.2-.71.57-1.24,1.03-1.7.48-.49,1.02-.86,1.69-1.01.63-.14,1.29-.12,2,.09.71.2,1.23.59,1.69,1.04.49.49,1.05.98,1.2,1.65.14.63.05,1.37-.16,2.08Z"/>
      </g>
    </g>
  </g>
</svg>