<?xml version="1.0" encoding="UTF-8"?>
<svg id="_レイヤー_2" data-name="レイヤー 2" xmlns="http://www.w3.org/2000/svg" xmlns:xlink="http://www.w3.org/1999/xlink" viewBox="0 0 121.01 127.55">
  <defs>
    <style>
      .cls-1 {
        mask: url(#mask);
      }

      .cls-2 {
        filter: url(#luminosity-noclip);
      }

      .cls-3 {
        fill: #1e1e1e;
      }

      .cls-4 {
        fill: #e00b3e;
      }

      .cls-5 {
        fill: #e66446;
      }
    </style>
    <filter id="luminosity-noclip" x="0" y="-.6" width="121.32" height="128.15" color-interpolation-filters="sRGB" filterUnits="userSpaceOnUse">
      <feFlood flood-color="#fff" result="bg"/>
      <feBlend in="SourceGraphic" in2="bg"/>
    </filter>
    <mask id="mask" x="0" y="-.6" width="121.32" height="128.15" maskUnits="userSpaceOnUse">
      <g class="cls-2">
        <g>
          <path d="M112.7,36.44c.39.2.53.66.3,1.03l-1.75,2.83c-.23.37-.61.37-.84,0,0,0-.62-.98-.39-1.4.52-.96,1.49-1.69,2.35-2.43.15-.13.34-.03.34-.03Z"/>
          <path d="M105.48,107.93c-.58-.34-.53-.78.11-.98,0,0,.17-.06.4.04,1.54.65,3.48,1.56,3.48,1.56.61.28.75.93.32,1.44,0,0-.15.18-.32.1-1.51-.73-3.99-2.16-3.99-2.16Z"/>
          <path d="M73.9,27.63c.08.01.08.11.01.21l-.39.61c-.07.11-.17.16-.23.11h0c.19-.31.38-.61.58-.91l.02-.03Z"/>
          <path d="M33.49,27.07c.05.06.01.04-.09-.03,0,0-.3-.23-.49-.4h0c.07-.09.19-.08.26.01,0,0,.16.21.3.4v.02Z"/>
          <path d="M35.01,58.67c-.23-.18-.34-.45-.25-.61.09-.16.42-.31.61-.08,0,0,.28.35.56.74.02.02-.31.36-.35.34-.33-.2-.57-.39-.57-.39Z"/>
          <path d="M43.37,23.21c-.68-.21-.66-.41.06-.44,0,0,1.31-.06,1.59.02,1.6.41,3.53.95,3.53.95.69.19.81.63.26.98l-.41-.09c-1.48-.32-5.04-1.42-5.04-1.42Z"/>
          <path d="M47.7,119.25c-.17-.05-.18-.17-.03-.25,0,0,.25-.15.33-.11.24.12.43.27.43.27.14.11.15.24.04.3l-.09-.02c-.26-.05-.68-.19-.68-.19Z"/>
          <path d="M5.53,47.43c-.21.31-.68.25-1.03-.13,0,0-.54-.56-.95-1.15l-.09-.14c.24-.39.78-.53,1.2-.32.42.21,1.09,1.43.88,1.73Z"/>
          <path d="M107.56,73.25c-.56-.33-.67-1-.24-1.48,0,0,.34-.39.57-.31.59.22,1.13.73,1.49,1.26.11.16-.56,1.12-.63,1.09-.68-.26-1.19-.56-1.19-.56Z"/>
          <path d="M103.46,82.85c-.13.19-.32.26-.43.15-.11-.11-.27-.43-.18-.5.1-.08.47-.15.62,0v.15c.02.16-.02.21-.02.21Z"/>
          <path d="M43.22,36.75c-.48.62-1.38.73-2,.24,0,0-.3-.23-.38-.75-.06-.4,0-.46,0-.46.59-.53,1.54-.53,2.11-.02l.25.59c.12.27.02.4.02.4Z"/>
          <path d="M93.24,3.47c-.5-.52-.43-1.28.16-1.69,0,0,.68-.48,1.49-.91l.1-.05c.4.48.26,1.24-.31,1.68,0,0-.52.41-1.35.94-.08.05-.09.04-.09.04Z"/>
          <path d="M41.93,80.11c-.47.41-1.13.35-1.47-.12l.04-.03c.58-.54.95-.83.95-.83.48-.38,1.12-.37,1.4.03l-.07.08c-.46.53-.85.87-.85.87Z"/>
          <path d="M96.58,31.14c-.33.47-.82.43-1.08-.08,0,0-.11-.2,0-.45.19-.49.24-.55.24-.55.38-.43.98-.47,1.34-.1l-.06.24c-.13.51-.43.93-.43.93Z"/>
          <path d="M110.17,58.83c-.57.75-1.42.69-1.88-.13,0,0-.17-.3-.08-.82l.09-.52c.61-.48,1.52-.4,2.02.18v.54c.02.51-.15.74-.15.74Z"/>
          <path d="M30.92,116.28c-.12-.17-.1-.48.05-.67.15-.2.64-.46.78-.19l-.03.22-.06.42c-.18.44-.61.39-.74.22Z"/>
          <path d="M45.79,52.98c-.52-.42-.42-.88.24-1.02,0,0,.03,0,.21.12.63.44.88.66.88.66.5.45.59,1.03.21,1.3l-.16-.09c-.66-.38-1.38-.97-1.38-.97Z"/>
          <path d="M101.89,65.57c-.24-.29-.3-.68-.13-.87s.86-.26,1.21.2l.09.46.07.34c-.24.44-.99.15-1.24-.14Z"/>
          <path d="M77.03,102.22c-.03.05-.07.08-.1.06-.03-.02-.03-.08.02-.11,0,0,.04-.03.1-.07,0,0,.04.02.04.03-.03.07-.05.1-.05.1Z"/>
          <path d="M68.7,34.77c.37.38.51.84.31,1.03-.2.19-1.1.07-1.64-.58,0,0-.05-.06-.42-.76l-.1-.18c.32-.43,1.47.12,1.85.5Z"/>
          <path d="M71.9,27.31c.83.5.86,1.35.05,1.89,0,0-.36.24-1.01.36l-.41.07c-.54-.42-.51-1.33.07-2.02l.67-.35c.3-.15.62.04.62.04Z"/>
          <path d="M31.3,17.43c-.15.67-.45.68-.66.03,0,0-.31-.93-.36-1.48l-.03-.29c.25-.35.68-.18.95.38l.14.53c.08.3-.04.83-.04.83Z"/>
          <path d="M51.81,36.25c.29.27.17.86-.28,1.32l-.06-.04c-.44-.3-.91-.66-1.13-1.11l-.11-.22c.33-.46,1.29-.21,1.58.06Z"/>
          <path d="M15.41,116.05c-.06.1-.17.11-.24.02,0,0-.02-.03-.06-.11v-.03c.04-.06.15-.06.23,0l.05.08s.01.03.01.03Z"/>
          <path d="M90.05,59.11c-.47.75-1.33,1.01-1.91.59l.04-.08c.3-.64.71-1.23,1.16-1.78.03-.04,1,.57.97.64l-.27.64Z"/>
          <path d="M62.24,81.12c-.32-.56-.35-1.23-.07-1.48.28-.25,1.48-.13,2.06.8l.15.91.08.47c-.64.64-1.9-.14-2.22-.7Z"/>
          <path d="M108.83,47.16s0,.11-.05.17c-.06.05-.26.09-.34-.01l.02-.03.07-.1c.11-.08.27-.06.3-.02Z"/>
          <path d="M28.11,66.1s-.02-.06,0-.09h0s.07.05.1.08h0s-.1.03-.12.01Z"/>
          <path d="M68.54,29.68c-.24.95-.91,1.08-1.49.29,0,0-.13-.18-.06-.52l.14-.64c.44-.64,1.12-.88,1.51-.54v.31c0,.66-.11,1.1-.11,1.1Z"/>
          <path d="M74.61,73.23c-.2.23-.53.23-.74.01-.21-.22-.48-.88-.2-1.02l.1.08c.32.24.57.57.81.89l.03.04Z"/>
          <path d="M37.39,111.85c-.18-.16-.13-.39.11-.51,0,0,.03-.02.21-.05.04,0,.2.28.16.36-.05.11-.24.19-.38.2h-.1Z"/>
          <path d="M19.88,119.34c-.54.35-1.13.44-1.31.2-.18-.24-.2-1.06.26-1.41l.46-.09c.15-.03.63.67.61,1.01l-.02.28Z"/>
          <path d="M88.24,74.33c-.12.12-.26.1-.31-.04v-.07c.02-.05.12-.14.14-.13.07.04.19.12.18.17,0,.08-.01.08-.01.08Z"/>
          <path d="M121.32,101.34c-.16.31-.51.25-.78-.13,0,0-.02-.02.03-.12l.09-.19c.22-.15.52-.11.66.07v.36Z"/>
          <path d="M7.06,100.88c.45.26.49.87.09,1.36l-.19-.04-.34-.06c-.33-.33-.37-.84-.1-1.14l.29-.06.25-.05Z"/>
          <path d="M81.6,13.98c.52.34.56.95.1,1.34h-.64c-.36-.31-.4-.87-.09-1.24l.33-.06.3-.05Z"/>
          <path d="M41.07,70.48c-.14.25-.43.3-.65.12l-.02-.13-.02-.12c.14-.15.41-.2.6-.11l.04.13.04.11Z"/>
          <path d="M33.59,72.54c-.08.18-.42.22-.76.1v-.08l.02-.33c.12-.36.34-.6.48-.54.14.06.33.68.25.86Z"/>
          <path d="M5.16,113.39c-.32-.29-.51-.67-.41-.85.09-.18.61-.38.96-.1l.23.33c.05.07-.33.61-.53.61h-.25Z"/>
          <path d="M52.2,61.7c-.16.18-.41.25-.55.15-.14-.1-.28-.65-.05-1.04l.31-.14.18-.08c.37.28.27.94.11,1.12Z"/>
          <path d="M93.19,69.58c-.14.19-.55.07-.92-.26l.03-.06c.17-.29.41-.59.7-.74l.1-.06c.29.28.22.93.08,1.12Z"/>
          <path d="M106.16.96c.31-.54.95-.41,1.44.3,0,0,.01.01-.07.15l-.22.36c-.42.28-.95.22-1.17-.14v-.32l.03-.35Z"/>
          <path d="M116.32,69.35c-.3.26-.66.38-.8.26-.14-.12-.23-.61.05-.88l.3-.16c.05-.03.49.38.47.57l-.02.22Z"/>
          <path d="M29.37,108.75c-.13-.19-.13-.42,0-.5.13-.08.59.05.81.4l.15.35.02.04c-.31.18-.86-.11-.98-.3Z"/>
          <path d="M58.02,91.29c-.36.37-.91.35-1.24-.05l-.02-.3v-.21c.32-.25.87-.23,1.2.04l.03.28.03.24Z"/>
          <path d="M101.95,79.54c.17.08.19.25.05.39h-.2c-.12-.08-.14-.24-.05-.35l.1-.02.1-.02Z"/>
          <path d="M30.22,60.33c.4.37.31,1.01-.18,1.41l-.19-.08-.39-.17c-.32-.42-.27-.95.12-1.19l.35.02h.29Z"/>
          <path d="M22.03,108.61c-.37.54-1.15.49-1.73-.12l.06-.17c.13-.34.53-.73.87-.79.23-.04.77.44.78.71v.37Z"/>
          <path d="M96.47,45.66s.29.17.64.4c0,0,.07.04.42.29h0c-.05.08-.36-.08-.68-.36,0,0-.06-.05-.39-.34h0Z"/>
          <path d="M8.11,48.2s-.07.03-.09,0v-.02s.03-.04.04-.04c.02.01.06.04.05.05v.03Z"/>
          <path d="M76.67,96.34c.25.19.28.59.06.89l-.07-.02-.24-.09c-.22-.2-.27-.53-.1-.73l.18-.02.16-.02Z"/>
          <path d="M23.27,1.96c-.16.5-.63.6-1.05.23v-.24l-.03-.23c.3-.28.76-.37,1.03-.22l.02.17.03.3Z"/>
          <path d="M46.7,126.55c-.21-.18-.21-.48,0-.67h.28c.14.17.15.46,0,.63l-.15.02-.13.02Z"/>
          <path d="M59.57,15.68c-.05-.1-.06-.2-.03-.23.04-.03.17-.02.23.06l.03.09s-.13.12-.17.1l-.06-.02Z"/>
          <path d="M106.19,68.59c-.08.01-.16,0-.17-.03-.01-.03-.02-.12.02-.13.04-.01.17.01.19.09l-.02.04-.02.04Z"/>
          <path d="M96.26,81.12c-.3.53-.77.49-1.03-.08l.02-.34.02-.31c.26-.33.68-.29.94.08l.03.35.03.3Z"/>
          <path d="M113.57,26.54s-.03.01-.04,0c0,0-.02-.02,0-.03,0,0,.03-.01.05,0h0v.02Z"/>
          <path d="M79.18,41.48c.09.06.05.23-.08.37l-.12.06s-.22-.13-.22-.2v-.14c.07-.16.33-.14.42-.08Z"/>
          <path d="M26.02,122.54c.39.13.59.37.45.53-.14.16-.65.37-.9.19l-.14-.22c-.04-.06.21-.44.35-.46l.25-.04Z"/>
          <path d="M45.65,27.97s-.12.02-.15-.03c-.04-.05-.04-.25.06-.35l.06.02.08.02c.07.12,0,.31-.05.34Z"/>
          <path d="M18.61,113.19c-.13.17-.42.03-.64-.3l-.02-.24c-.01-.14.3-.45.39-.42l.25.07c.24.2.16.73.02.9Z"/>
          <path d="M18.5,114.6c-.14.06-.49-.08-.77-.3l.04-.13.06-.22c.27-.18.59-.22.72-.08s.1.67-.04.73Z"/>
          <path d="M26.11,58.19c-.14.05-.28-.12-.31-.39l.06-.16c.03-.08.33-.15.4-.09l.14.11c.09.2-.15.48-.29.54Z"/>
          <path d="M6.19,16.56c-.03-.06,0-.13.05-.17.05-.03.25-.02.32.1l-.03.08-.03.09c-.12.07-.29-.03-.32-.09Z"/>
          <path d="M89.96,26.54s.26.38.48.77c.22.39.64,1.46.43,1.53h0c-.31-.77-.61-1.53-.9-2.3h0Z"/>
          <path d="M14.36,36.11c.1.12.08.32-.03.45l-.04-.02-.14-.06c-.13-.13-.12-.3,0-.38h.11l.1.02Z"/>
          <path d="M38.8,115.03c-.33.34-.68.45-.79.24-.11-.21-.07-.8.25-.98l.31-.08c.07-.02.37.41.32.55l-.09.27Z"/>
          <path d="M21.71,105.81c-.36.43-.77.58-.91.34-.15-.24-.18-.96.17-1.19l.34-.06c.14-.02.54.43.5.56l-.11.34Z"/>
          <path d="M76.25,29.83c-.1.13-.26.11-.36-.05l.02-.08.02-.07c.13-.05.29-.03.35.05v.06l-.04.1Z"/>
          <path d="M89.86,8.47c-.08.03-.15.02-.16-.02-.01-.04,0-.13.03-.14.04-.01.15.02.18.08l-.02.03-.03.04Z"/>
          <path d="M36.34,45.1s-.04-.12,0-.21h.04l.06-.02c.08.04.12.11.1.16-.02.05-.16.1-.19.07Z"/>
          <path d="M80.74,31.86c.08-.13.24-.18.36-.11.12.07.23.44.05.69l-.22.15-.07.05c-.23-.17-.21-.65-.13-.78Z"/>
          <path d="M25.04,113.64s0,.06-.02.1h-.06s-.05-.06-.03-.08c.02-.02.1-.03.11-.02Z"/>
          <path d="M41.13,9.02c-.12.03-.26-.03-.31-.15-.06-.12.02-.52.29-.64l.15.08.16.08c.07.28-.17.61-.28.64Z"/>
          <path d="M8.26,97.42s.01.12-.04.15c-.05.03-.25.04-.32-.06l.02-.03.06-.09c.1-.07.26-.02.29.03Z"/>
          <path d="M16.43,11.66c-.07.04-.18.02-.24-.03-.06-.05-.1-.32.04-.48l.04.02.16.08c.14.15.07.37,0,.41Z"/>
          <path d="M17.74,60.74c-.3.1-.68-.03-.85-.29l.03-.21.02-.13c.31-.1.69.03.86.28l-.03.2-.02.14Z"/>
          <path d="M35.1,120.18c-.18.15-.49.13-.69-.04l.03-.05.11-.21c.19-.19.46-.19.59,0l-.02.16-.02.15Z"/>
          <path d="M31.51,32.44c-.07.09-.16.15-.21.13-.05-.02-.14-.1-.11-.16.03-.06.18-.16.28-.1l.03.08.02.05Z"/>
          <path d="M106.5,62.2s-.07.05-.13.01l-.04-.04s0-.1.01-.1h.06c.07,0,.11.1.1.14Z"/>
          <path d="M97.12,61.11c.18-.31.61-.48.96-.39l.06.17.07.19c-.18.3-.61.47-.95.38l-.07-.17-.07-.18Z"/>
          <path d="M84.31,54.99c-.06.04-.17-.01-.24-.12l-.04-.11s.13-.12.17-.11l.11.04c.11.08.06.25,0,.3Z"/>
          <path d="M118.79,78.75s-.06-.03-.06-.07v-.04h0s.06.02.06.06v.04h0Z"/>
          <path d="M57.19,65.87s-.03,0-.03-.02c0-.01,0-.05.03-.05h.02l.02.02s-.02.05-.03.05Z"/>
          <path d="M12.57,84.1c.12-.2.4-.31.62-.25l.04.11.04.12c-.12.19-.4.3-.62.25l-.05-.11-.05-.12Z"/>
          <path d="M38.11,33.57s0,.08-.03.09h-.02l-.02-.02s0-.07.03-.09h.05Z"/>
          <path d="M8.98,74.97c.12.05.12.23,0,.41l-.14.1c-.06.04-.31-.04-.31-.08l-.02-.2c.03-.22.35-.29.47-.24Z"/>
          <path d="M4.19,61.5s.06-.03.08,0c.02.02.04.12-.02.15h-.06l-.02.02s0-.13.02-.16Z"/>
          <path d="M3.5,30.67s.13-.07.23-.07h.1c0,.08-.1.12-.22.09l-.11-.02h0Z"/>
          <path d="M26.63,79.75c.24.23.25.62.01.87l-.19.04c-.1.02-.37-.29-.36-.43,0-.17.23-.44.38-.45l.16-.02Z"/>
          <path d="M62.95,49.24c-.08.1-.19.14-.25.1-.06-.04-.09-.31.06-.51l.16-.16.02-.02c.16.12.09.49,0,.58Z"/>
          <path d="M21.62,94.87c.05.08.03.2-.04.26h-.1c-.04-.09-.03-.21.04-.28h.05l.05.02Z"/>
          <path d="M91.05,49.38c-.08.13-.19.2-.24.15-.05-.05-.09-.27.02-.36l.11-.06s.16.11.15.15l-.04.13Z"/>
          <path d="M18.23,54.48s-.02,0-.04,0c-.02,0-.04-.02-.02-.02.02,0,.06.02.06.02Z"/>
          <path d="M27.1,84.53c-.05.08-.15.12-.24.1l-.02-.04s.03-.15.07-.17c.04-.02.15.03.17.07l.02.04Z"/>
          <path d="M37.24,25.25s-.03.04-.04.03c-.01,0-.03-.04-.01-.06h.02s.04,0,.04,0v.02Z"/>
          <path d="M24.88,52.04c-.15.03-.3.02-.34-.02-.04-.04-.09-.18,0-.23.09-.04.37-.04.42.1l-.04.07-.04.08Z"/>
          <path d="M4.49,106.67s-.05-.03-.03-.07c.02-.03.06-.03.07,0,.02.04,0,.06-.05.06Z"/>
          <path d="M21.14,110.88s.07.09.05.12c-.03.02-.12.04-.15-.02l-.02-.06s.06-.07.07-.06l.05.02Z"/>
          <path d="M50.97,92.82c.07,0,.21.11.31.26l-.02.12v.1c-.17.09-.33.07-.38-.05-.05-.11.02-.42.09-.43Z"/>
          <path d="M80.78,123.01c-.13-.05-.21-.14-.16-.2.04-.06.24-.14.33-.05l.06.1s-.07.16-.11.16h-.12Z"/>
          <path d="M63.18,68.74c.04-.06.13-.08.18-.05.06.03.08.2-.04.32l-.12.08-.02.02c-.09-.08-.05-.31,0-.37Z"/>
          <path d="M76.68,122.06c-.03-.06-.02-.15.03-.19s.24-.08.33.05v.1l-.02.09c-.12.09-.31,0-.34-.05Z"/>
          <path d="M116.21,64.06c-.1.01-.19-.08-.2-.19v-.11s.16-.02.16-.01c.03.1.04.2.04.3h0Z"/>
          <path d="M117.25,64.54s.03.03.01.04c-.02,0-.07.02-.08,0,0-.02.04-.04.07-.03Z"/>
          <path d="M32.65,83.19c.06-.05.12-.02.13.06,0,.08-.04.12-.11.09-.07-.03-.08-.09-.02-.14Z"/>
          <path d="M94.5,16.05s-.02,0-.03,0h0v-.02s.01-.02.02-.02c0,0,.02.03.02.04Z"/>
          <path d="M47.46,116.35s-.08-.04-.09-.1v-.06s.08-.04.09-.03l.05.04c.04.06-.02.14-.05.15Z"/>
          <path d="M40.5,7.59c-.13.11-.36.05-.49-.13l-.09-.18v-.03c.12-.1.34-.04.47.14l.09.18v.03Z"/>
          <path d="M92.18,60.4c-.09,0-.12-.06-.08-.15.04-.09.11-.09.16,0,.05.08.01.15-.07.16Z"/>
          <path d="M93.31,54.68s-.05-.04-.04-.07c.01-.03.05-.06.07-.03.02.04,0,.1-.04.09Z"/>
          <path d="M102.8,69.23s.03.03.01.05c-.02.02-.03.02-.04-.01,0-.03,0-.04.03-.04Z"/>
          <path d="M27.26,122.46s.04.04,0,.09h-.09c-.04-.06.05-.09.1-.09Z"/>
          <path d="M64.65,68.58c.07.05.06.1-.02.13-.08.02-.14-.01-.13-.09.01-.07.08-.09.15-.04Z"/>
          <path d="M118.08,53.82s0-.03,0-.05c0-.01.05-.02.07,0v.05s-.07,0-.08,0Z"/>
          <path d="M62.48,113.45c-.09-.05-.09-.12,0-.17.09-.04.17,0,.17.09s-.08.13-.17.08Z"/>
          <path d="M11.56,96.83s.02-.02.03-.02c.01,0,.03.02.01.03-.02,0-.05,0-.04-.01Z"/>
          <path d="M119.13,76.7s-.05.06-.07.02c-.02-.04-.03-.15,0-.16.03,0,.08.1.06.15Z"/>
          <path d="M112.99,33.28c.05-.11.2-.18.34-.15v.14c-.05.11-.2.18-.33.15v-.14Z"/>
          <path d="M91.6,62.36s.03-.04.05-.03c.02,0,.05.03.03.05-.03.02-.08,0-.07-.02Z"/>
          <path d="M103.77,58.63s.06.04.03.08-.06.04-.07,0c-.02-.04,0-.07.04-.07Z"/>
          <path d="M76.18,55.3s-.03-.08.03-.1c.06-.02.1.01.08.07-.01.05-.06.07-.11.03Z"/>
          <path d="M78.44,86.79s-.12.02-.17-.02c-.04-.03-.07-.18.03-.25h.17c.08.1.02.24-.03.27Z"/>
          <path d="M76.68,94.89s.03-.04.06-.04c.02,0,.06.04.03.06-.03.02-.1,0-.09-.02Z"/>
          <path d="M29.97,92.56s.07-.04.08.02c.02.05,0,.09-.05.08-.04,0-.06-.05-.03-.1Z"/>
          <path d="M59.42,64.16s.03-.05.07-.03c.03.02.03.05,0,.06s-.07,0-.06-.04Z"/>
          <path d="M77.91,85.35c-.06-.02-.03-.08.07-.13h.11c.02.11-.12.16-.18.13Z"/>
        </g>
      </g>
    </mask>
  </defs>
  <g id="img">
    <g class="cls-1">
      <g>
        <g>
          <path class="cls-4" d="M65.81,110.77c-.7.05-1.31.18-1.91.22-.79.05-1.4,0-1.9.04-.26.94-.6,1.07-.21,1.97.42.95.92-.22,2.14-.38.61-.08,1.38-.05,2.13-.14.58-.61.13-.95-.25-1.7Z"/>
          <path class="cls-4" d="M107.01,27.06c-.13-.57-.42-1.12-.59-1.68s-.23-1.17-.45-1.73-.63-1.02-.88-1.56-.41-1.11-.69-1.64-.72-.94-1.04-1.45-.62-1-.97-1.48-.64-.99-1.02-1.45-.82-.85-1.21-1.29-.82-.84-1.24-1.26-.79-.87-1.23-1.27-.87-.79-1.33-1.17-.9-.76-1.37-1.12-.88-.79-1.38-1.13-1.06-.54-1.57-.85-.95-.71-1.47-1.01-1.01-.62-1.54-.89-1.12-.4-1.66-.65-1.1-.42-1.65-.65-1.03-.6-1.59-.81-1.13-.34-1.69-.54-1.1-.42-1.67-.6-1.13-.34-1.7-.5-1.12-.38-1.7-.52-1.18-.15-1.76-.27-1.17-.17-1.75-.28-1.15-.28-1.74-.37-1.18-.04-1.78-.11-1.17-.15-1.76-.21-1.17-.14-1.77-.18-1.17-.16-1.77-.19-1.18-.07-1.78-.09-1.18.03-1.78.03S60.27-.01,59.67,0s-1.2.27-1.8.29-1.21.04-1.8.08-1.2.1-1.8.15-1.2.15-1.79.22-1.21.07-1.8.15-1.21.07-1.8.17-1.2.18-1.78.29-1.18.28-1.76.41-1.16.32-1.74.47-1.15.38-1.72.54-1.2.21-1.76.39-1.13.43-1.69.62-1.14.4-1.7.61-1.11.47-1.66.7-1.1.5-1.64.75-1.07.56-1.6.82-1.11.48-1.63.76-1.05.59-1.56.89-1.14.46-1.63.79-.91.82-1.39,1.16-1,.68-1.47,1.05-.95.74-1.41,1.13-.84.87-1.28,1.27-.96.75-1.37,1.18-.71.98-1.09,1.44-.75.93-1.11,1.41-.73.95-1.06,1.45-.65,1.01-.94,1.52-.75.97-1.01,1.5-.45,1.12-.67,1.67-.39,1.14-.57,1.71c-.17.54-.38,1.11-.59,1.73-.18.55-.47,1.09-.68,1.7-.19.55-.16,1.2-.37,1.8-.19.55-.55,1.07-.76,1.66-.19.56-.44,1.11-.64,1.71s-.27,1.18-.47,1.76-.37,1.14-.56,1.73-.54,1.09-.73,1.68-.3,1.17-.49,1.76-.17,1.21-.35,1.8-.59,1.08-.77,1.67-.18,1.21-.36,1.8-.41,1.14-.58,1.73-.32,1.17-.49,1.76-.37,1.15-.53,1.75-.15,1.21-.31,1.81-.36,1.16-.51,1.75-.49,1.13-.63,1.73-.01,1.24-.15,1.84-.37,1.16-.51,1.76-.21,1.2-.34,1.8-.26,1.18-.37,1.78-.29,1.18-.4,1.78-.34,1.18-.44,1.78,0,1.23-.09,1.84-.25,1.19-.33,1.8-.32,1.19-.4,1.79-.08,1.22-.14,1.83.04,1.23-.01,1.84-.25,1.2-.3,1.81-.1,1.22-.13,1.82,0,1.22-.03,1.83-.18,1.21-.2,1.82.12,1.22.12,1.83.07,1.22.08,1.83c.01.61-.19,1.22-.15,1.81s.14,1.21.19,1.8.23,1.19.3,1.78.18,1.19.28,1.78.02,1.23.15,1.81.42,1.14.57,1.72.45,1.12.63,1.69.27,1.18.48,1.73.45,1.11.69,1.66.38,1.15.65,1.68.66,1.01.96,1.53.69.98,1.03,1.48.62,1.02.98,1.5.66,1.01,1.04,1.47.81.89,1.22,1.32.86.83,1.3,1.24.85.85,1.31,1.24,1.02.64,1.5,1,.83.9,1.32,1.24,1.03.61,1.54.93,1,.66,1.53.95,1.05.57,1.59.84,1.12.42,1.67.67,1.04.6,1.6.84,1.13.4,1.69.62,1.15.32,1.73.52,1.09.5,1.67.69,1.12.43,1.7.6,1.17.24,1.76.4,1.17.26,1.76.39,1.16.27,1.75.39,1.18.2,1.77.32,1.15.35,1.75.45,1.17.26,1.77.35,1.2.06,1.8.15,1.17.26,1.77.33,1.2,0,1.8.06,1.18.17,1.79.23,1.19.09,1.8.13,1.2-.02,1.8.02,1.18.24,1.79.27,1.2-.17,1.81-.14,1.19.31,1.79.33,1.19.05,1.8.06,1.2-.18,1.81-.18,1.2.04,1.81.04,1.22.17,1.82.16,1.21-.14,1.81-.15,1.21-.04,1.81-.06,1.22.07,1.82.05,1.21-.14,1.81-.17,1.21-.13,1.81-.18,1.21-.14,1.81-.19,1.21-.11,1.81-.17,1.22-.05,1.81-.12,1.2-.2,1.8-.28,1.23-.02,1.82-.11,1.21-.18,1.8-.28,1.18-.32,1.77-.43,1.2-.19,1.79-.32,1.16-.36,1.75-.5,1.24-.07,1.82-.23,1.15-.42,1.72-.59,1.14-.42,1.71-.6,1.2-.26,1.76-.46,1.16-.38,1.72-.6,1.06-.63,1.61-.87,1.15-.42,1.69-.68,1.08-.56,1.61-.84,1.07-.59,1.58-.89.96-.75,1.47-1.08,1.15-.47,1.63-.83.85-.89,1.32-1.26,1.05-.63,1.5-1.03.95-.77,1.37-1.2.83-.89,1.23-1.34.66-1.02,1.04-1.5.85-.87,1.2-1.37.65-1.02.97-1.54.49-1.11.78-1.64.63-1.03.89-1.58.45-1.11.68-1.68.48-1.1.68-1.68.52-1.1.7-1.68.35-1.16.49-1.75.02-1.23.14-1.82.41-1.14.51-1.75.21-1.19.28-1.79.06-1.2.1-1.81.12-1.2.15-1.81.01-1.21.02-1.82.13-1.21.12-1.82c0-.6-.02-1.21-.04-1.82s-.17-1.2-.21-1.81-.08-1.21-.13-1.81-.16-1.2-.23-1.8-.12-1.2-.19-1.81-.03-1.22-.12-1.82-.36-1.17-.45-1.77-.18-1.2-.28-1.79-.13-1.21-.24-1.8-.17-1.2-.3-1.79-.26-1.18-.4-1.77-.46-1.14-.6-1.73-.29-1.18-.44-1.76-.13-1.22-.28-1.81-.37-1.16-.53-1.74-.32-1.17-.48-1.75-.37-1.16-.54-1.74-.2-1.21-.37-1.79-.47-1.13-.65-1.7-.34-1.17-.52-1.74-.31-1.18-.5-1.75-.33-1.17-.52-1.74-.45-1.14-.63-1.7-.33-1.17-.52-1.74-.36-1.16-.55-1.73-.59-1.09-.78-1.65-.19-1.22-.37-1.79-.46-1.14-.64-1.7-.34-1.18-.52-1.74-.51-1.12-.68-1.69c-.19-.59-.17-1.23-.34-1.79-.18-.6-.38-1.17-.53-1.73-.16-.61-.28-1.2-.41-1.76ZM39.8,17.65c.58.05,1.19-.03,1.8.02s1.17.23,1.78.26,1.2-.14,1.81-.1,1.18.17,1.79.2,1.2-.11,1.8-.09,1.19.06,1.79.08,1.19.1,1.8.11,1.2-.07,1.8-.06,1.2-.02,1.8-.01,1.2.08,1.8.09,1.2.02,1.8.02,1.2.03,1.8.03,1.2.11,1.8.11,1.2-.15,1.8-.16,1.21.1,1.81.09,1.21.03,1.8.02,1.2-.18,1.8-.19,1.2-.11,1.8-.13,1.21.12,1.81.1,1.21-.12,1.8-.14,1.21,0,1.8-.03,1.21-.06,1.8-.09c.62-.03,1.22.02,1.8-.02.62-.04,1.21-.2,1.78-.24.6-.04,1.19-.11,1.77-.07s1.17.19,1.75.29,1.19.14,1.75.32,1.11.43,1.64.68,1.04.57,1.54.88.93.72,1.4,1.09.89.76,1.32,1.17.87.78,1.27,1.23.64.98,1.01,1.45.89.79,1.23,1.28.63.99.94,1.5.6,1.01.89,1.53.58,1.02.84,1.56.43,1.1.66,1.64.36,1.12.57,1.67.38,1.1.58,1.67.42,1.1.59,1.66.39,1.11.55,1.68.39,1.11.53,1.69.15,1.17.27,1.75.3,1.14.41,1.72.2,1.16.29,1.74.21,1.16.29,1.75.17,1.17.23,1.76.17,1.18.21,1.76c0,.61-.09,1.21-.13,1.79-.04.61-.11,1.2-.21,1.77s-.41,1.13-.57,1.69-.18,1.2-.39,1.74-.5,1.09-.77,1.6-.6,1.03-.93,1.52-.62,1.02-1,1.47-.88.8-1.31,1.21-.77.92-1.23,1.29-.93.74-1.42,1.08-1,.64-1.52.94-1.03.58-1.56.85-1.14.35-1.69.59-1.06.52-1.62.73-1.1.44-1.66.63-1.13.33-1.7.5-1.16.22-1.74.37-1.1.51-1.67.64-1.2.08-1.78.19-1.17.16-1.76.26-1.15.31-1.74.39-1.18.17-1.76.25-1.2-.03-1.79.03-1.18.19-1.76.24-1.17.3-1.76.34-1.21-.17-1.79-.14-1.19.23-1.77.26c-.61.02-1.21-.03-1.78-.02-.62.02-1.21.04-1.77.04-.62,0-1.22-.04-1.77-.03-.64,0-1.23.17-1.77.17s-1.13-.06-1.77-.06c-.56,0-1.15-.21-1.77-.22-.57,0-1.16.26-1.78.24-.57-.01-1.16-.14-1.77-.16-.58-.02-1.17,0-1.77-.03s-1.17-.08-1.77-.12-1.17-.15-1.76-.2-1.16-.23-1.75-.29-1.19.08-1.79,0-1.16-.21-1.75-.3-1.14-.33-1.73-.43-1.18-.13-1.76-.25-1.2-.06-1.78-.19-1.12-.41-1.7-.55-1.14-.31-1.71-.48-1.16-.28-1.72-.47-1.07-.52-1.62-.73-1.16-.31-1.7-.54-1.11-.44-1.64-.7-.95-.74-1.46-1.04-1.05-.56-1.53-.89-1.03-.6-1.49-.97-.92-.76-1.34-1.17-.68-.98-1.07-1.43-.86-.83-1.19-1.32-.76-.93-1.04-1.46-.42-1.11-.64-1.67-.41-1.1-.57-1.68-.15-1.16-.25-1.76-.27-1.14-.32-1.75-.15-1.17-.14-1.78c.04-.59.16-1.17.22-1.76s.23-1.16.31-1.75.13-1.17.22-1.75.16-1.17.26-1.75.27-1.15.39-1.73.1-1.19.24-1.76.51-1.09.66-1.66.26-1.15.43-1.72.4-1.11.59-1.67.38-1.12.59-1.66.32-1.15.55-1.69.59-1.03.84-1.56.47-1.09.75-1.6.48-1.1.78-1.59.73-.94,1.06-1.43.75-.92,1.1-1.38.68-.97,1.07-1.41.78-.9,1.2-1.29.88-.8,1.34-1.16.93-.74,1.42-1.05,1.08-.49,1.61-.73,1.09-.41,1.65-.59,1.09-.43,1.67-.54,1.16-.06,1.76-.09,1.15-.02,1.75.04ZM47.58,83.4c-.34-.55-.76-.95-1.03-1.35-.6-.89-1.25-.56-.85-1.31s.58-.28,1.54-.27c.51,0,1.07.17,1.65.31.53.13,1.13.19,1.61.5.45.29.86.73,1.17,1.24.28.47.07,1.15-.31,1.82-.28.49-.62,1.07-1.06,1.56s-.89.97-1.31,1.36c-.78.72-.73,1.61-1.55,1.17-.74-.4.23-.77.38-1.7.08-.52.16-1.1.11-1.67s-.06-1.2-.35-1.67ZM12.26,93.4c-.01-.63-.13-1.23-.11-1.81.02-.63.21-1.22.27-1.79.06-.63-.05-1.26.05-1.82.12-.63.37-1.19.52-1.74.18-.62.23-1.25.45-1.77.26-.6.56-1.13.86-1.61.35-.55.79-.99,1.17-1.39.46-.47.9-.92,1.38-1.2.58-.34,1.19-.59,1.72-.68.72-.13,1.4.03,1.83.24.62.3.85.95.38,1.58-.34.45-.67.92-.94,1.45-.25.5-.58.99-.77,1.56-.17.52-.19,1.12-.32,1.71-.11.54-.33,1.09-.41,1.69-.07.54-.18,1.12-.23,1.73-.04.55.07,1.14.05,1.75-.02.55.04,1.13.04,1.74,0,.56-.16,1.14-.16,1.74,0,.61.1,1.19.13,1.76.03.61.03,1.2.09,1.76.06.61.14,1.19.22,1.75.09.61.12,1.2.23,1.75.13.61.39,1.15.53,1.69.16.61.39,1.15.57,1.67.2.61.34,1.18.54,1.68.26.63.63,1.1.85,1.54.51,1.01,1.49,1.04.85,1.64-.68.64-.78-.23-1.78-.81-.46-.26-.94-.67-1.5-1.1-.45-.34-.91-.76-1.39-1.23-.42-.41-.88-.83-1.29-1.34-.37-.46-.6-1.05-.95-1.6-.32-.5-.83-.92-1.11-1.51-.26-.53-.49-1.12-.71-1.73-.2-.56-.4-1.16-.56-1.78-.15-.58-.32-1.19-.42-1.82-.1-.59-.1-1.22-.16-1.86-.05-.6.08-1.22.07-1.87ZM25.63,98.09c-.03-.61-.17-1.19-.17-1.76,0-.61.15-1.19.17-1.76.02-.61-.15-1.21-.1-1.77.05-.61.23-1.18.31-1.74.09-.61.03-1.22.14-1.77.13-.61.29-1.18.45-1.71.18-.6.44-1.13.64-1.65.24-.58.42-1.16.68-1.64.31-.55.62-1.07.95-1.5.39-.5.87-.89,1.28-1.24.49-.42,1.01-.73,1.49-.96.6-.29,1.2-.41,1.71-.45.72-.06,1.25.2,1.61.51.43.37.63.88.21,1.53-.31.49-.71.95-.97,1.51-.25.52-.53,1.06-.73,1.65-.19.54-.22,1.16-.38,1.76-.14.56-.19,1.15-.3,1.77-.1.57-.35,1.13-.43,1.75-.07.57-.06,1.17-.1,1.79-.04.58-.13,1.17-.15,1.79-.02.58-.04,1.18-.05,1.8,0,.58-.09,1.18-.08,1.8,0,.58.15,1.18.18,1.8.02.61.12,1.19.16,1.77.05.61.03,1.2.1,1.77.07.61.29,1.17.38,1.73.1.6.2,1.18.32,1.74.13.6.24,1.18.39,1.73.16.6.25,1.18.43,1.72.2.59.38,1.15.59,1.67.23.59.52,1.11.76,1.61.28.58.42,1.18.68,1.64.34.59.86.97,1.14,1.38.65.93,1.58.75,1.08,1.47s-.74-.12-1.75-.58c-.46-.21-1.02-.45-1.59-.8-.46-.28-.92-.68-1.43-1.07-.44-.34-.83-.8-1.28-1.23-.41-.39-.79-.83-1.2-1.3-.37-.43-.77-.86-1.12-1.36-.33-.47-.69-.93-1-1.46-.28-.5-.64-.98-.89-1.54-.24-.52-.35-1.12-.57-1.69-.2-.54-.44-1.08-.61-1.67-.16-.55-.3-1.13-.43-1.73-.12-.56-.27-1.14-.36-1.75-.09-.57-.19-1.16-.25-1.77-.05-.57.12-1.18.1-1.79ZM61.37,102.03c.58-.04,1.29-.17,1.93-.22.59-.04,1.22.06,1.85.02s1.21-.29,1.83-.33,1.24.03,1.85-.01,1.23-.25,1.83-.29,1.25-.07,1.84-.11c.64-.05,1.26-.03,1.85-.07.66-.05,1.27-.19,1.83-.23.76-.06,1.42-.05,1.92.07.75.18,1.26.65,1.55,1.12.31.5.4,1.18.37,1.86-.03.6-.19,1.24-.36,1.86-.16.59-.41,1.17-.51,1.78s-.05,1.25-.12,1.86c-.07.64-.23,1.25-.26,1.83-.04.68-.11,1.31-.12,1.84-.02.93.14,1.6.12,1.84-.06.58-.08,1.45-.42,2.09-.31.59-.92.91-1.83.86-.61-.04-1.11-.11-1.5-.3-.83-.4-.49-.63-1.16-1.01-.74-.41-.67,0-1.71,0-.49,0-1.06-.07-1.69-.07-.53,0-1.1.14-1.69.15-.55.01-1.12.08-1.69.1s-1.14-.05-1.7-.02-1.15.18-1.69.21c-.61.03-1.11.02-1.62.07-.15.6-.76.89-1.43.99-.57.08-1.23-.07-1.8-.22-.77-.21-1.35-.57-1.4-.96-.03-.3-.12-.91-.16-1.72-.03-.51.11-1.1.08-1.73-.02-.55-.28-1.12-.3-1.72-.02-.57-.02-1.15-.04-1.73s-.05-1.16-.07-1.74-.07-1.18-.09-1.73c-.02-.63.04-1.21.03-1.74-.02-.71.06-1.34.05-1.76-.35-.35-.72-.73-1.11-1.05s-.88-.61-1.27-.89c.02.5.07,1.14.1,1.79.02.54.13,1.13.15,1.74.02.56-.08,1.15-.05,1.75s.11,1.16.14,1.74.05,1.18.08,1.75c.03.61.1,1.2.14,1.74.04.65.11,1.23.16,1.73.05.62-.02,1.26-.24,1.79s-.67,1.02-1.08,1.44-.94.8-1.43,1.07c-.6.32-1.23.31-1.72.32-.69.01-1.2-.19-1.14-.93.03-.36.1-.95.13-1.7.02-.5.06-1.08.08-1.7.02-.54-.05-1.12-.03-1.71.02-.55.17-1.12.19-1.7s-.12-1.14-.1-1.72.02-1.15.03-1.71c.02-.59.06-1.16.07-1.71.02-.61.15-1.06.16-1.58-.44.5-.9.78-1.31,1.19-.47.47-.88.93-1.32,1.3-.52.44-.99.83-1.46,1.14-.58.39-1.14.66-1.63.89-.67.31-1.28.39-1.77.5-1.18.25-1.56,1.06-1.92.21.39-.44.93-.88,1.3-1.33s.79-.86,1.15-1.31.62-.99.97-1.45.68-.94,1.02-1.41.81-.86,1.13-1.34.57-1.02.87-1.51.42-1.1.71-1.6.78-.9,1.05-1.41.37-1.11.62-1.64.55-1.03.78-1.56c-.98-.24-.8.4-1.82.86-.58.26-1.25.5-1.87.74-.76.3-1.42.7-1.87.77-.4.06-.94-.35-1.43-.88-.34-.37-.53-.94-.85-1.42s-.85-.81-1.1-1.24c-.47-.81-1.13-.84-.69-1.52s.71,0,1.61-.04c.49-.02,1.04-.04,1.58-.13s1.09-.16,1.53-.37,1.08-.39,1.79-.75c.53-.27,1.03-.74,1.65-1.03.57-.27,1.2-.48,1.8-.73s1.28-.34,1.86-.52c.68-.21,1.29-.43,1.84-.47.69-.06,1.35-.08,1.86.21.56.31.9.89,1.18,1.46s.38,1.19.32,1.84c.52-.03,1.15-.12,1.79-.17.54-.04,1.14.04,1.75-.02.56-.05,1.12-.25,1.72-.32.57-.06,1.14-.19,1.73-.26s1.18.08,1.76.01,1.15-.21,1.73-.28,1.15-.25,1.72-.33,1.17-.17,1.73-.24c.6-.08,1.2.04,1.76-.04.61-.09,1.17-.32,1.71-.4.64-.09,1.2-.31,1.71-.4.75-.12,1.35-.1,1.74-.18.35-.07.93.18,1.27.82.2.37.19.89.17,1.54-.02.6-.16,1.33-.43,2.09-.25.69-.44,1.42-.58,2.07-.12.53-.27,1.03-.35,1.51-.09.57-.26,1.08-.3,1.52-.09.84-.1,1.4-.15,1.51-.09.23-.65.47-1.39.57-.5.07-1.05.03-1.57-.05-.57-.09-1.15-.16-1.45-.54-.32-.02-.9-.23-1.73-.21-.52.01-1.12.1-1.77.13-.56.02-1.16,0-1.78.04-.58.03-1.18.07-1.78.1s-1.19.2-1.77.23c-.62.04-1.26-.03-1.82,0-.28.51-1.19.83-2.06.88.29.5.3,1.13.23,1.66ZM80.74,86.5c-.43-.09-.94-.03-1.65-.04-.52,0-1.11-.13-1.74-.09-.55.03-1.11.28-1.72.33-.56.05-1.15,0-1.74.06s-1.12.29-1.71.36-1.15.12-1.73.2-1.16.09-1.73.17-1.15.26-1.71.34c-.59.09-1.16.21-1.71.29-.61.09-1.19.11-1.73.19-.64.1-1.22.17-1.72.25-.79.12-1.39.17-1.73.2-.54.05-.98-.29-1.44-.69-.39-.34-.84-.71-1.14-1.2s-.46-1.06-.68-1.53c-.39-.86-.93-.71-.56-1.45.49.14.95.16,1.58.22.53.06,1.11,0,1.72.02.55.01,1.13.17,1.72.15.56-.02,1.13-.12,1.72-.17s1.15-.04,1.72-.1,1.15-.12,1.71-.19,1.17-.07,1.72-.15c.59-.09,1.14-.3,1.68-.4.6-.1,1.16-.27,1.68-.37.63-.13,1.22-.17,1.69-.29.49-.12.97-.45,1.5-.67s1.05-.44,1.53-.62c.62-.22,1.24-.32,1.66-.16.41.15.9.53,1.4.95.41.35.78.78,1.09,1.27s.55.98.63,1.55c.07.52-.08.98-.3,1.56ZM96.96,98.09c-.03.61.06,1.21,0,1.78-.06.61-.27,1.17-.36,1.74-.09.6,0,1.22-.12,1.78-.13.6-.39,1.15-.54,1.7-.17.59-.2,1.2-.4,1.74-.21.58-.46,1.12-.7,1.64-.26.56-.59,1.06-.88,1.55-.31.53-.55,1.09-.88,1.55-.36.5-.7,1-1.07,1.43-.41.47-.88.85-1.29,1.24-.46.43-.93.8-1.37,1.14-.51.39-1.02.69-1.49.97-.58.35-1.16.51-1.62.72-1,.45-1.15,1.45-1.65.72s.54-.43,1.2-1.36c.28-.41.65-.88.99-1.48.26-.46.41-1.06.69-1.64.24-.5.4-1.06.64-1.65.21-.52.56-1.02.76-1.61.18-.54.28-1.12.44-1.72.15-.55.34-1.11.47-1.71.12-.56.24-1.14.34-1.74.09-.57.26-1.14.34-1.75.07-.57,0-1.17.05-1.78.05-.57.02-1.17.04-1.78.02-.62.12-1.21.13-1.79.01-.62-.12-1.22-.12-1.8,0-.62,0-1.22-.03-1.8-.02-.62-.03-1.22-.08-1.79-.05-.62-.03-1.22-.1-1.79-.08-.62-.14-1.21-.25-1.78-.11-.62-.29-1.19-.43-1.75-.16-.61-.18-1.23-.37-1.77-.21-.59-.65-1.05-.9-1.57-.27-.56-.53-1.08-.84-1.56-.42-.65-.31-1.32.12-1.69.36-.3,1.01-.52,1.73-.46.51.04,1.09.27,1.69.56.48.23.91.63,1.4,1.06.41.35.78.78,1.18,1.29.34.43.69.88,1,1.43.27.48.57.98.81,1.56.21.51.49,1.04.66,1.64.16.54.18,1.14.31,1.74.12.55.28,1.12.37,1.72.08.56.14,1.14.19,1.75.05.56.12,1.15.14,1.76.02.57.06,1.16.05,1.77,0,.57-.24,1.15-.26,1.76ZM100.68,109.87c-.63-.61.28-.42.8-1.43.22-.44.61-.92.87-1.54.2-.49.22-1.12.42-1.73.17-.52.46-1.05.62-1.65.14-.54.12-1.15.25-1.75.12-.55.24-1.12.33-1.73.09-.56.23-1.13.29-1.74.06-.57.02-1.16.05-1.76.03-.57.02-1.16.02-1.76,0-.6.08-1.18.07-1.74,0-.61,0-1.19-.02-1.74-.02-.61-.02-1.18-.06-1.73-.05-.61.01-1.2-.06-1.74-.08-.61-.31-1.15-.43-1.69-.13-.6-.16-1.19-.34-1.71-.19-.57-.37-1.14-.62-1.63-.27-.53-.7-.94-1.05-1.4-.47-.62-.27-1.29.34-1.58.43-.21,1.09-.14,1.81-.01.53.09,1.12.22,1.7.56.47.28.92.68,1.39,1.15.39.4.76.86,1.11,1.42.3.47.5,1.03.76,1.63.22.52.54,1.04.72,1.66.16.55.35,1.12.47,1.75.1.56.11,1.17.18,1.81.06.57.23,1.17.26,1.8.02.58.01,1.19,0,1.82-.01.64-.07,1.27-.12,1.87-.06.64-.22,1.25-.32,1.84-.11.64-.26,1.23-.41,1.81-.16.62-.3,1.23-.51,1.79-.22.61-.61,1.11-.87,1.64-.28.58-.38,1.23-.7,1.73-.35.55-.74,1.04-1.11,1.5-.41.51-.84.98-1.26,1.39-.48.47-.94.9-1.4,1.24-.56.43-1.14.7-1.6.97-.99.57-.93,1.31-1.59.67Z"/>
          <path class="cls-4" d="M65.62,106.3c-.64.06-1.33.23-1.86.23-.75,0-1.29-.12-1.68-.26-.22,1.15-.29,1.16-.06,2.31.51-.07,1.09-.11,1.8-.23.58-.1,1.17-.29,1.82-.4.58-.64.34-.91-.02-1.65Z"/>
          <path class="cls-4" d="M73.88,92.76c-.63-.69-1.04.05-1.98.14s-.92.21-1.86.3-.93.08-1.87.17-.93.15-1.86.25-.95-.05-1.89.05-1.4-.53-1.96.23-.29,1.32.46,1.93c.69.57.86-.1,1.76-.18s.9,0,1.8-.07.88-.23,1.78-.3.92.2,1.82.12.88-.25,1.78-.32,1.06.42,1.84-.03c1.03-.59.88-1.5.16-2.29Z"/>
          <path class="cls-4" d="M57.52,92.13c-.31.61-.85,1.08-1.15,1.65-.33.6-.51,1.26-.83,1.82-.34.6-.66,1.13-.99,1.67.48.04.98.04,1.59.2.48.13.93.52,1.5.74.47.19.96.41,1.5.68.01,0,.19-.13.21-.12-.11-.5-.25-1.13-.4-1.8-.13-.57-.38-1.16-.52-1.77s-.15-1.26-.28-1.83c-.16-.69-.47-1.27-.58-1.75-.06.15.02.35-.06.5Z"/>
          <path class="cls-4" d="M73.41,112.1c.29-1.07.3-1.17.14-2.26-.5.1-1.18.25-1.83.35-.55.08-1.18.1-1.8.17-.31.79-.22.87.05,1.68.61-.04,1.11-.09,1.62-.1.71-.01,1.43.09,1.83.17Z"/>
          <path class="cls-4" d="M73.63,106.99c.26-.95.6-1.05.3-1.99s-.84.15-1.95.36c-.54.1-1.08.29-1.76.4-.31.7-.65.9-.23,1.54.96-.15,1.88-.18,2.41-.22.51-.05.88-.16,1.24-.08Z"/>
        </g>
        <path class="cls-5" d="M54.68,65.49c.5-.05,1.08-.28,1.62-.73.41-.35.72-.9,1.17-1.36.4-.42.95-.72,1.38-1.15s.71-1,1.16-1.37c.48-.39,1.02-.68,1.53-.93.55-.26,1.13-.42,1.73-.42s1.14.32,1.69.59,1.03.56,1.51.96c.46.38.99.71,1.43,1.14s.86.89,1.3,1.29c.48.43.99.76,1.48,1.06.55.33,1.09.54,1.69.54s1.19-.07,1.72-.24c.62-.19,1.08-.55,1.47-.87.55-.46,1.02-.94.84-1.45-.14-.4-.7-.64-1.47-.92-.46-.17-1.06-.39-1.74-.66-.53-.22-1.08-.53-1.69-.78-.55-.23-1.09-.57-1.68-.81s-1.18-.42-1.75-.64-1.21-.4-1.76-.6c-.64-.23-1.2-.54-1.73-.7-.76-.23-1.41-.32-1.83-.32s-1.04.18-1.76.43c-.51.18-1.04.52-1.64.79-.53.24-1.09.46-1.65.75s-1.11.48-1.64.79-1.06.62-1.57.94c-.53.34-1.03.71-1.49,1.05-.54.39-.91.89-1.32,1.25-.69.62-.88,1.12-.52,1.55.31.37.98.61,1.7.75.57.12,1.22.11,1.85.05Z"/>
        <g>
          <g>
            <path class="cls-3" d="M53.76,43.66c0,.56.09,1.13-.09,1.61-.2.51-.62.9-.99,1.27s-.81.66-1.32.86c-.48.18-.99.37-1.56.36-.56,0-1.08-.18-1.56-.36-.51-.2-.89-.54-1.26-.92s-.69-.76-.89-1.27c-.18-.48-.46-.98-.45-1.54,0-.56.17-1.11.35-1.58.2-.51.61-.87.98-1.24s.74-.76,1.25-.96c.48-.18,1.01-.26,1.58-.26.56,0,1.11.04,1.59.23.51.2.99.49,1.36.87s.72.83.91,1.34c.18.48.1,1.04.1,1.6Z"/>
            <path class="cls-3" d="M49.85,51.82s-.08.13-.12.13c-.55,0-1.09-.05-1.61-.15s-.99-.43-1.49-.62-1.02-.34-1.47-.63-.99-.5-1.37-.88c-.39-.39-.53-.98-.82-1.43s-.56-.91-.76-1.42-.52-.98-.61-1.52.08-1.09.09-1.64c0-.55-.05-1.09.04-1.61s.16-1.09.35-1.59.49-.98.78-1.43.59-.92.98-1.31c.39-.39.79-.79,1.24-1.09s.99-.5,1.5-.7,1.04-.34,1.58-.44,1.08.02,1.64.03c.02,0,.04-.19.06-.19.55,0,1.09.09,1.62.19s1.06.26,1.55.46.89.61,1.33.9.97.49,1.35.87.72.82,1.02,1.27.64.9.84,1.41.34,1.05.43,1.59.12,1.09.12,1.64c0,.55-.14,1.09-.23,1.62s-.38,1.01-.57,1.51-.42.98-.71,1.43-.55.92-.94,1.31c-.38.38-.8.71-1.25,1.01s-.88.65-1.38.84-1.03.34-1.57.44-1.07,0-1.62,0ZM49.79,50.02c.57,0,1.11-.19,1.64-.31.55-.13,1.06-.32,1.54-.58s1.05-.46,1.45-.85c.39-.39.65-.92.92-1.41s.29-1.05.42-1.59.44-1.04.44-1.61c0,0-.03,0-.03-.01,0-.57-.24-1.1-.36-1.62s-.12-1.15-.38-1.63-.69-.89-1.08-1.28c-.39-.39-.89-.64-1.38-.91s-.97-.49-1.52-.62-1.07-.13-1.64-.13c-.57,0-1.09.12-1.61.25s-1.06.26-1.54.52-.92.58-1.31.97c-.39.39-.85.74-1.12,1.23s-.29,1.06-.42,1.61-.23,1.05-.22,1.62c0,.57.04,1.11.17,1.64s.16,1.15.42,1.63.74.85,1.14,1.24c.39.39.82.72,1.3.99s1.01.35,1.55.49,1.04.2,1.6.2c.02,0,.03.19.04.19Z"/>
          </g>
          <g>
            <path class="cls-3" d="M81.43,43.66c0,.56-.1,1.04-.28,1.52-.2.51-.43.94-.8,1.32s-.77.7-1.28.9c-.48.18-.99.21-1.56.2-.56,0-1.15.16-1.62-.03-.51-.2-.96-.58-1.33-.96s-.64-.87-.83-1.38c-.18-.48-.19-1.01-.19-1.58,0-.56-.03-1.11.15-1.59.2-.51.51-.98.88-1.35s.91-.5,1.42-.7c.48-.18.96-.38,1.52-.38.56,0,1.15-.07,1.62.11.51.2.83.71,1.2,1.08s.67.78.87,1.29c.18.48.22.98.22,1.54Z"/>
            <path class="cls-3" d="M77.57,51.84s-.08.05-.12.05c-.55,0-1.09-.04-1.61-.13s-1.02-.33-1.52-.52-.97-.44-1.42-.73-.85-.62-1.24-1c-.39-.39-.88-.69-1.18-1.15s-.47-.99-.67-1.5-.36-1.03-.45-1.57-.23-1.08-.23-1.63c0-.55.18-1.09.27-1.62s.38-1.01.58-1.51.4-.99.69-1.44.59-.89.98-1.27.78-.73,1.23-1.03.86-.69,1.37-.89,1.06-.24,1.6-.34,1.06-.03,1.61-.03c.04,0,.08.03.11.03.55,0,1.06.05,1.58.14s1.09.08,1.59.27.96.49,1.41.79.97.53,1.35.91.57.94.87,1.4.73.85.93,1.36.22,1.07.32,1.61.21,1.07.2,1.62c0,.55-.19,1.08-.28,1.61s-.31,1.03-.5,1.53-.22,1.11-.51,1.56-.66.88-1.05,1.27c-.38.38-.81.74-1.26,1.03s-.96.52-1.47.71-1.05.24-1.58.33-1.05.13-1.6.13ZM77.51,50c.57,0,1.12-.12,1.65-.24s1.06-.34,1.54-.6.99-.53,1.39-.92c.39-.39.74-.85,1-1.34s.47-1.02.6-1.56,0-1.09-.01-1.66c0,0,.09,0,.09-.01,0-.57-.07-1.11-.2-1.63s-.41-1.01-.67-1.49-.48-.99-.87-1.39c-.39-.39-.76-.85-1.24-1.11s-1.03-.44-1.57-.57-1.09-.15-1.65-.15c-.03,0-.06.02-.09.02-.57,0-1.08.23-1.6.35s-1.08.22-1.56.48-1,.51-1.39.9c-.39.39-.77.85-1.03,1.33s-.47,1.03-.6,1.58-.02,1.11-.02,1.68c0,.57,0,1.13.13,1.65s.46,1,.72,1.48.43,1.05.83,1.44c.39.39.96.55,1.44.82s.93.57,1.48.7c.52.12,1.07.25,1.64.25Z"/>
          </g>
        </g>
        <g>
          <path class="cls-3" d="M37.41,59.95c.05-.38.5-.73,1.31-.85.51-.08,1.12-.09,1.71-.11s1.18.2,1.71.21c.97.02,2.16.66,1.78-.1-.45-.91-.93-.33-1.92-.84-.59-.3-1.24-.65-1.75-1.03-.72-.53-1.14-1.06-.95-1.57.16-.43.73-.68,1.57-.58.54.06,1.14.35,1.76.51s1.17.46,1.7.65c.98.34.91.88,1.76.55-.47-.4-.91-.92-1.39-1.35s-1.09-.67-1.58-1.09-.86-.97-1.36-1.35-1.04-.75-1.58-1.08-1.13-.61-1.71-.86-1.17-.59-1.78-.72-1.28-.1-1.92-.08c-.59.01-1.17.07-1.7.23s-1.11.37-1.6.66-.94.7-1.33,1.1-.75.89-1.03,1.38-.48,1.06-.58,1.61-.08,1.14.03,1.7.27,1.09.6,1.6c.34.54.86.91,1.31,1.34s.85.94,1.38,1.27,1.15.48,1.74.72,1.11.62,1.72.78,1.25.21,1.86.31,1.26.19,1.87.24c.66.06,1.29.16,1.88.17.7.01,1.33-.15,1.88-.18,1.15-.05,1.53.83,1.76-.08.2-.79-.51-.24-1.43-.51-.47-.14-1-.32-1.55-.5-.52-.17-1.14-.09-1.64-.28-.55-.21-.96-.68-1.39-.9-.72-.37-1.13-.62-1.09-.94Z"/>
          <path class="cls-3" d="M89.89,59.95c-.05-.38-.5-.6-1.31-.72-.51-.08-1.1-.03-1.7-.05s-1.18,0-1.7,0c-.97.02-1.99.75-1.62-.01.45-.91.83-.29,1.82-.79.59-.3,1.14-.82,1.65-1.21.72-.53,1.28-1.04,1.09-1.56-.16-.43-.81-.39-1.64-.3-.54.06-1.17.09-1.79.26s-1.21.34-1.74.53c-.98.34-.81.84-1.65.51.47-.4.89-.7,1.38-1.13s.88-.92,1.37-1.34,1.05-.73,1.56-1.12,1.02-.78,1.55-1.12,1.12-.62,1.7-.88,1.19-.49,1.81-.63,1.26-.2,1.9-.19c.59.01,1.16.12,1.69.28s1.08.4,1.57.69.9.71,1.29,1.11.67.9.95,1.39.72.96.82,1.51.02,1.16-.09,1.72-.31,1.08-.63,1.59c-.34.54-.83.94-1.28,1.37s-.81,1-1.35,1.33-1.19.43-1.77.67-1.16.47-1.76.63-1.22.32-1.83.43-1.26.19-1.87.24c-.66.06-1.29.1-1.88.11-.7.01-1.34.07-1.88.04-1.15-.05-1.7.7-1.92-.21-.2-.79.68-.31,1.6-.58.47-.14,1.08-.08,1.63-.26.52-.17,1.07-.31,1.57-.5.55-.21.96-.69,1.39-.91.72-.37,1.11-.61,1.07-.94Z"/>
        </g>
        <g>
          <path class="cls-3" d="M43.39,23.69c-.61-.06-1.21-.09-1.81-.03s-1.18.26-1.75.43-1.18.29-1.72.56-1.09.55-1.58.91-.97.75-1.39,1.18-.71.98-1.06,1.47-.62,1.02-.88,1.57-.56,1.07-.72,1.65-.23,1.18-.27,1.79c-.05.75,0,1.36.12,1.87.19.75.48,1.33.87,1.68.78.7,1.78,1.58,1.74.64-.06-1.31-.96-1.5-.07-2.43.33.75.77,1.28,1.11,1.76.51.72.88,1.32,1.35,1.61,1.13.69,1.42,1.15,1.92.23.44-.82-.1-.68-.09-1.76,0-.54-.09-1.2.14-1.86.19-.53.47-1.12.89-1.67.34-.44.81-.9,1.36-1.32.48-.37,1.1-.43,1.65-.61s1.09-.49,1.69-.51c.56-.02,1.16.13,1.75.22.56.08,1.12.28,1.7.43s1.13.26,1.7.44,1.13.32,1.68.51,1.09.47,1.63.66c.57.2,1.19.21,1.73.38.59.18,1.09.6,1.62.71.63.13,1.23-.02,1.76-.06.63-.05,1.07-.1,1.5-.48-.62-.08-1.14-.14-1.69-.35s-.99-.72-1.49-1.04-1.09-.53-1.55-.93-.89-.8-1.33-1.22-.79-.9-1.22-1.33-.8-.89-1.25-1.3-.91-.78-1.39-1.15-.98-.69-1.5-1-1.05-.56-1.62-.79c-.54-.22-1.1-.43-1.71-.58-.56-.14-1.16-.2-1.79-.26Z"/>
          <path class="cls-3" d="M83.93,23.76c.61-.06,1.21-.25,1.81-.19s1.21.21,1.78.38,1.16.39,1.7.66,1.05.61,1.54.96.82.89,1.24,1.32.86.83,1.21,1.32.75.96,1,1.5.54,1.1.7,1.68.11,1.21.15,1.81c.05.75.03,1.36-.1,1.86-.19.75-.46,1.35-.85,1.69-.78.7-1.77,1.57-1.73.63.06-1.31.94-1.48.05-2.41-.33.75-.63,1.35-.97,1.83-.51.72-.99,1.28-1.45,1.56-1.13.69-1.53,1.14-2.03.22-.44-.82.18-.72.17-1.8,0-.54.08-1.2-.15-1.85-.19-.53-.56-1.04-.98-1.59-.34-.44-.71-.97-1.26-1.39-.48-.37-1.08-.47-1.63-.64s-1.09-.49-1.69-.51c-.56-.02-1.16.09-1.76.18-.56.08-1.1.38-1.68.53s-1.11.33-1.67.51-1.2.11-1.75.3-1.11.4-1.66.59c-.57.2-1.1.46-1.64.63-.59.18-1.12.49-1.66.59-.63.13-1.23.03-1.76,0-.63-.05-1.11-.15-1.53-.53.62-.08,1.17-.16,1.71-.37s1.1-.52,1.61-.85.84-.86,1.3-1.26.89-.78,1.33-1.2.98-.7,1.42-1.13.76-.93,1.21-1.34.9-.8,1.38-1.16.99-.66,1.52-.97,1.02-.63,1.59-.87c.54-.22,1.11-.45,1.72-.59.56-.14,1.19-.05,1.81-.11Z"/>
        </g>
        <path class="cls-5" d="M68.55,52.1c-.33.35-.83.64-1.46.89-.49.19-1.07.35-1.69.45-.54.09-1.14-.05-1.75-.05s-1.21.16-1.75.07c-.62-.1-1.2-.28-1.69-.47-.63-.24-1.11-.55-1.45-.9-.29.31-.56.57-.56.93,0,.48.4.93.91,1.31.37.28.88.43,1.45.62.46.16.96.31,1.52.39.5.07,1.03.06,1.58.06s1.1.18,1.6.11c.56-.08,1.09-.26,1.55-.41.57-.19,1.11-.39,1.48-.66.51-.38.78-.94.78-1.41,0-.35-.22-.62-.51-.92Z"/>
      </g>
    </g>
  </g>
</svg>