<?xml version="1.0" encoding="UTF-8"?>
<svg id="_レイヤー_2" data-name="レイヤー 2" xmlns="http://www.w3.org/2000/svg" xmlns:xlink="http://www.w3.org/1999/xlink" viewBox="0 0 126.98 116.06">
  <defs>
    <style>
      .cls-1 {
        mask: url(#mask);
      }

      .cls-2 {
        filter: url(#luminosity-noclip);
      }

      .cls-3 {
        fill: #91bfd7;
      }
    </style>
    <filter id="luminosity-noclip" x=".02" y="0" width="126.96" height="116.05" color-interpolation-filters="sRGB" filterUnits="userSpaceOnUse">
      <feFlood flood-color="#fff" result="bg"/>
      <feBlend in="SourceGraphic" in2="bg"/>
    </filter>
    <mask id="mask" x=".02" y="0" width="126.96" height="116.05" maskUnits="userSpaceOnUse">
      <g class="cls-2">
        <g>
          <path d="M85.31,30.37c-.02-.23.15-.46.37-.52,0,0,.71-.2.94-.03.31.23.45.75.45.75.06.22-.07.45-.29.5l-.98.24c-.22.05-.42-.09-.43-.31l-.05-.63Z"/>
          <path d="M105.25,21.76c-.77-.41-1.03-1.31-.58-2l.06.03c1,.5,1.57.84,1.57.84.75.45,1.05,1.29.66,1.87l-.14-.05c-.93-.34-1.58-.69-1.58-.69Z"/>
          <path d="M13.51,99.62c.43-.31.99-.34,1.24-.07s.25,1.25-.44,1.67l-.66.07-.49.05c-.59-.39-.07-1.42.36-1.73Z"/>
          <path d="M15.62,38.16c-.08,0-.14-.05-.13-.1.01-.05.09-.08.16-.04,0,0,.06.03.15.09,0,0-.01.06-.01.06-.11,0-.16-.01-.16-.01Z"/>
          <path d="M83.9,97.63c-.45.34-1.24.02-1.77-.72l.08-.08c.53-.53,1.14-1.1,1.83-1.29l.34-.09c.56.57-.03,1.84-.48,2.18Z"/>
          <path d="M93.26,17.36c.01.59-.26,1.13-.6,1.21-.34.08-1.24-.54-1.29-1.54l.28-.79.14-.41c.79-.23,1.46.94,1.47,1.53Z"/>
          <path d="M83.02,35.57c.62-.11,1.11.33,1.08.98l-.14.35c-.04.09-.76.09-.84-.05-.18-.31-.26-.77-.16-1.11l.05-.17Z"/>
          <path d="M23.5,101.16c-.36.23-.82.1-1.01-.29-.19-.39-.29-1.38.15-1.46l.11.15c.33.45.54,1,.73,1.54l.02.07Z"/>
          <path d="M44.55,87.43c.22-.1.39,0,.4.2l-.05.09c-.03.07-.22.14-.24.11-.08-.08-.2-.24-.16-.31.05-.1.06-.1.06-.1Z"/>
          <path d="M43.47,41.33c-.38,0-.62-.26-.55-.56.07-.3.66-.88,1.18-.81l.3.26.25.22c.04.5-.8.89-1.17.88Z"/>
          <path d="M95.57,3.61c-.24.14-.66-.1-.94-.54l.08-.09.3-.36c.44-.3.89-.39,1.01-.2.11.19-.21,1.05-.45,1.18Z"/>
          <path d="M73.33,7.01c.13-.32.43-.52.67-.46.24.07.69.73.56,1.36l-.34.33-.2.2c-.62-.19-.81-1.12-.68-1.44Z"/>
          <path d="M17.37,39.93c-.27.35-.84.38-1.26.08l.04-.1.12-.33c.28-.31.75-.37,1.04-.13l.03.25.03.23Z"/>
          <path d="M85.82,96.3c.07.09.1.2.08.24-.03.04-.14.11-.18.07-.04-.04-.1-.22-.03-.3h.13Z"/>
          <path d="M40.47,69.7c-.25.82-.9.91-1.45.21l-.08-.48-.08-.43c.25-.53.84-.61,1.32-.19l.16.48.13.4Z"/>
          <path d="M92.37,36.55c.12-.18.43-.09.68.2l.06.23c.03.12-.25.44-.39.43h-.25c-.27-.17-.22-.69-.1-.87Z"/>
          <path d="M91.57,52.69c-.17-.06-.25-.26-.17-.43h.02l.15.04c.15.07.24.25.19.4h-.19Z"/>
          <path d="M54.02,71.36c.26.43.18,1.09-.16,1.46l-.26-.04-.28-.04c-.25-.42-.17-1.07.16-1.44l.26.03.28.03Z"/>
          <path d="M116.33,63.61c.07-.08.19-.12.28-.09.09.03.23.28.12.48l-.15.06-.13.05c-.2-.11-.19-.41-.12-.5Z"/>
          <path d="M61.25,49.12c-.17.05-.34,0-.37-.09-.03-.1.16-.43.5-.54l.32-.04h.04c.08.27-.3.62-.48.67Z"/>
          <path d="M43.87,46.33c-.09.04-.33-.05-.53-.2l-.03-.17-.03-.14c.16-.19.39-.24.51-.11.12.13.17.57.08.61Z"/>
          <path d="M74.1,29.07c.13.06.13.17,0,.24-.13.07-.24.02-.24-.11,0-.13.1-.19.24-.12Z"/>
          <path d="M42.76,17.22c0-.08.08-.16.15-.18.07-.02.27.06.28.23l-.07.09-.07.09c-.17.03-.29-.15-.28-.23Z"/>
        </g>
      </g>
    </mask>
  </defs>
  <g id="img">
    <g class="cls-1">
      <g>
        <path class="cls-3" d="M69.3,101.61c-.39.84.26.64.83,1.64.26.46.71.93,1.07,1.52.3.49.64,1.01,1,1.56.33.5.49,1.14.86,1.66.35.49.93.84,1.31,1.34s.7,1.02,1.11,1.49.86.9,1.29,1.34.75,1.04,1.21,1.43,1.13.6,1.63.93c.53.36,1.03.71,1.58.95.58.26,1.12.48,1.72.58-.5-.52-.87-1.01-1.23-1.45-.49-.59-.96-1.04-1.24-1.48-.7-1.12-1.58-1.32-.79-1.86.7-.48.7.26,1.7.52.48.12,1,.46,1.62.56.52.08,1.11-.02,1.71.02.55.03,1.11.03,1.69-.01s1.14.01,1.7-.11,1.12-.23,1.66-.45,1.02-.6,1.51-.92c-.6-.14-1.26-.19-1.86-.34s-1.18-.33-1.77-.51-1.16-.4-1.74-.6-1.14-.47-1.71-.68-1.16-.42-1.72-.64-1.21-.31-1.77-.54-1.08-.61-1.63-.86-1.13-.5-1.68-.75-1.12-.53-1.66-.8c-.56-.28-1.12-.55-1.64-.83-.56-.29-1.11-.58-1.62-.87-.57-.31-1.13-.56-1.63-.84-.57-.33-1.03-.71-1.51-1Z"/>
        <path class="cls-3" d="M102.9,69.17c-.18.87.59.37,1.46,1.05.4.31.87.7,1.41,1.09.45.33.82.84,1.34,1.2.47.32.97.66,1.49.99.49.31,1.09.49,1.61.8s1.05.55,1.58.84,1.07.52,1.61.77,1.01.69,1.55.91,1.16.34,1.72.51c.59.18,1.19.23,1.76.32.61.1,1.2.21,1.77.2.62-.01,1.11-.05,1.66-.22-.68-.24-1.11-.65-1.63-.88-.7-.32-1.33-.47-1.78-.74-1.13-.69-2-.39-1.53-1.23.41-.74.68-.16,1.7-.37.48-.1,1.07-.09,1.67-.28.51-.16,1.01-.43,1.56-.67.5-.22,1.03-.43,1.53-.72s.88-.67,1.33-1.04.87-.68,1.26-1.11.7-.75,1-1.25c-.58.14-1.06.26-1.62.38s-1.15.24-1.72.35-1.18.1-1.74.2-1.13.37-1.7.45-1.18-.01-1.76.04-1.16.14-1.74.18-1.16.03-1.75.04-1.17.2-1.75.18-1.16-.14-1.74-.19-1.13-.31-1.71-.39-1.16-.04-1.74-.14-1.13-.24-1.7-.38-1.11-.32-1.68-.48-1.15-.25-1.72-.44Z"/>
        <path class="cls-3" d="M121.47,29.1c-.29-.53-.44-1.1-.73-1.61s-.59-1.05-.89-1.55-.76-.94-1.08-1.43-.57-1.06-.9-1.54-.83-.88-1.18-1.35-.64-1.02-1.01-1.48-.73-.96-1.11-1.4-.87-.83-1.27-1.26-.93-.76-1.35-1.17-.83-.86-1.27-1.25-.86-.84-1.32-1.21-.87-.84-1.34-1.19-.98-.7-1.47-1.02-1.08-.53-1.59-.82-1.01-.64-1.53-.91-1.1-.47-1.64-.71-1.09-.48-1.64-.7-1.12-.41-1.68-.6-1.08-.54-1.65-.71-1.15-.34-1.72-.48-1.22-.01-1.8-.13-1.16-.26-1.74-.35-1.15-.38-1.74-.45-1.21.12-1.8.08-1.18-.16-1.77-.18-1.19-.1-1.78-.1-1.19.1-1.78.12-1.19.02-1.78.04-1.19.1-1.78.14-1.19.04-1.78.09-1.2.03-1.78.09-1.19.14-1.77.21-1.18.18-1.76.25-1.2.04-1.78.12-1.16.36-1.74.44-1.19.17-1.77.24-1.21-.02-1.79.04c-.61.07-1.2.13-1.77.18-.61.05-1.21.02-1.78.04-.62.02-1.21.17-1.77.15-.63-.02-1.22-.05-1.78-.13-.62-.09-1.21-.22-1.73-.41-.58-.21-1.02-.62-1.47-.97-.42-.33-.91-.7-1.48-1.05-.47-.29-1.06-.49-1.63-.79-.51-.26-1.1-.41-1.68-.67-.53-.24-1.05-.53-1.64-.75-.54-.21-1.11-.41-1.69-.61-.55-.19-1.09-.48-1.68-.65s-1.15-.31-1.74-.46-1.16-.26-1.76-.38-1.17-.26-1.77-.36-1.18-.24-1.78-.31-1.19-.14-1.8-.19-1.21.12-1.81.1-1.19.01-1.8.01-1.2-.15-1.8-.12-1.19.15-1.79.2-1.2.02-1.8.11-1.17.27-1.77.39-1.15.34-1.74.48-1.2.15-1.78.33-1.09.52-1.66.72-1.15.34-1.71.58-1.16.34-1.7.61-.99.7-1.52.99-1.09.49-1.61.81-1.07.56-1.57.9-.88.83-1.36,1.2-.96.71-1.43,1.11-.99.69-1.43,1.11-.8.89-1.23,1.33-.9.8-1.3,1.25-.65,1.02-1.04,1.49-.67.99-1.03,1.48-.72.95-1.07,1.45-.83.88-1.16,1.4-.57,1.04-.88,1.56c.34.83.55.38,1.54.9.45.24,1.12.3,1.7.65.47.29.88.78,1.4,1.15.47.33.92.72,1.41,1.11.46.36.96.69,1.41,1.11s.89.79,1.31,1.23.71.95,1.09,1.43.8.88,1.14,1.39.54,1.06.82,1.6.63,1.02.84,1.59.38,1.13.53,1.72.35,1.15.43,1.76.01,1.2.02,1.81c0,.52.01,1.12-.05,1.78-.05.55-.1,1.14-.18,1.77-.07.56-.36,1.12-.45,1.73-.09.56-.03,1.17-.13,1.78-.09.57-.12,1.16-.23,1.77-.1.57-.25,1.15-.36,1.75s-.18,1.16-.28,1.76-.18,1.16-.28,1.76-.36,1.14-.45,1.73-.16,1.17-.25,1.76-.08,1.18-.17,1.78-.33,1.15-.41,1.74.04,1.2-.03,1.79-.32,1.16-.38,1.75-.05,1.19-.11,1.78-.18,1.18-.22,1.77-.05,1.19-.08,1.78.16,1.2.14,1.79-.28,1.18-.29,1.78.11,1.19.12,1.78-.1,1.19-.08,1.79.11,1.19.15,1.78.03,1.19.08,1.78.13,1.18.2,1.77.25,1.17.33,1.76.31,1.15.42,1.73,0,1.21.13,1.79.25,1.17.4,1.74.36,1.14.54,1.7.46,1.1.67,1.66.42,1.11.65,1.66.54,1.06.8,1.59.4,1.13.69,1.65.58,1.04.89,1.55.83.87,1.17,1.36.56,1.06.93,1.52.73.93,1.14,1.38.81.87,1.24,1.29.96.7,1.42,1.09.82.87,1.29,1.23.92.75,1.41,1.09,1.01.61,1.52.93.98.67,1.51.95,1.1.44,1.65.7,1.03.58,1.59.81,1.11.41,1.68.62,1.16.39,1.73.58c.34-.51.71-1.02,1.06-1.49.36-.5.71-.98,1.08-1.43s.78-.92,1.19-1.34.9-.81,1.33-1.2.76-.97,1.22-1.33,1.11-.53,1.6-.85.98-.69,1.5-.98.96-.76,1.5-1.01,1.15-.37,1.71-.58,1.16-.29,1.73-.47,1.12-.41,1.7-.56,1.15-.34,1.73-.46,1.18-.18,1.77-.28,1.17-.24,1.77-.32,1.2.02,1.8-.05,1.17-.3,1.76-.36,1.18-.17,1.78-.22,1.19-.09,1.79-.14,1.2.04,1.8-.02,1.17-.26,1.77-.32,1.18-.14,1.78-.23,1.21,0,1.8-.11,1.18-.18,1.77-.3,1.11-.51,1.69-.65,1.19-.15,1.77-.32,1.18-.22,1.75-.41,1.05-.6,1.61-.82,1.09-.46,1.64-.72,1.15-.35,1.69-.63,1.04-.58,1.56-.89,1.05-.57,1.55-.91.88-.81,1.36-1.18.89-.78,1.35-1.17.87-.79,1.32-1.21.92-.74,1.35-1.18.84-.84,1.25-1.29.85-.84,1.23-1.32c.39-.48.76-.97,1.12-1.45s.72-1,1.06-1.49.52-1.13.84-1.63.73-.99,1.03-1.51.49-1.13.76-1.66.53-1.1.77-1.64.66-1.05.88-1.6.47-1.13.66-1.7.44-1.15.61-1.72.32-1.18.47-1.77.06-1.24.18-1.83.24-1.19.34-1.79.46-1.16.55-1.76.15-1.22.22-1.81-.03-1.24.03-1.84.17-1.21.23-1.81.11-1.22.17-1.82.01-1.23.08-1.82.29-1.19.37-1.79.06-1.22.16-1.82.25-1.2.38-1.78.37-1.16.54-1.74.24-1.2.45-1.77.65-1.04.91-1.58.38-1.16.7-1.68.65-1.02,1.02-1.51.82-.88,1.24-1.33c.4-.43.72-.97,1.19-1.39.43-.4.99-.68,1.48-1.06.46-.36.96-.71,1.48-1.05.49-.33,1.02-.62,1.56-.94.51-.3.99-.67,1.55-.96.52-.27,1.07-.52,1.64-.79.53-.25,1.04-.62,1.62-.86.55-.23,1.21-.2,1.79-.42.55-.21,1.05-.56,1.64-.76ZM25.48,22.01c-.61-.17-1.06-.58-1.53-.95s-.83-.83-1.12-1.36-.62-1.05-.69-1.66.09-1.17.27-1.78c.17-.61.32-1.21.69-1.68s.93-.79,1.46-1.08,1.1-.43,1.71-.5,1.19-.12,1.79.06c.61.17,1.23.35,1.7.72s.86.92,1.15,1.45.42,1.15.49,1.76-.1,1.17-.28,1.77-.44,1.1-.81,1.57-.75.97-1.28,1.26-1.13.43-1.74.5-1.21.09-1.81-.08ZM81.61,78.47c-.44.41-.97.68-1.41,1.05s-.92.74-1.37,1.09-.85.83-1.32,1.16-1.04.57-1.53.87-.92.76-1.43,1.04-1.09.46-1.61.72-1.09.46-1.61.69-1.06.54-1.6.74-1.08.53-1.63.69-1.16.28-1.71.41-1.17.2-1.73.3c-.59.11-1.19.08-1.75.15-.6.08-1.18.14-1.74.18-.61.05-1.18.21-1.75.23-.61.01-1.19-.04-1.75-.06-.62-.02-1.21.02-1.76-.03-.63-.06-1.22-.12-1.75-.2-.66-.1-1.25-.18-1.73-.29-1.08-.23-1.74.37-1.57-.48s.56.1,1.7-.02c.5-.05,1.07-.38,1.75-.48.54-.08,1.14-.13,1.78-.25.56-.1,1.19-.01,1.81-.15.56-.13,1.08-.5,1.69-.66.56-.15,1.16-.23,1.75-.41.56-.17,1.15-.29,1.73-.49s1.08-.49,1.66-.71,1.11-.42,1.68-.66,1.08-.5,1.63-.76,1.09-.47,1.64-.75,1.1-.48,1.63-.78,1.03-.6,1.55-.92,1-.66,1.5-1,1.05-.58,1.55-.94.84-.88,1.32-1.25.92-.76,1.39-1.15c.47-.4,1.03-.68,1.46-1.1s.87-.86,1.28-1.31.87-.86,1.26-1.33.66-1.04,1.03-1.52.71-.99,1.05-1.49.67-1.02.98-1.53.77-.97,1.06-1.49.62-1.06.89-1.59.46-1.15.71-1.69.4-1.17.63-1.72c.25-.58.54-1.11.75-1.66.23-.59.43-1.16.62-1.71.21-.6.51-1.15.68-1.7.2-.62.35-1.22.5-1.75.18-.67.32-1.27.43-1.77.27-1.12-.55-1.61.35-1.72s.05.57.2,1.67c.07.49.13,1.07.16,1.73.03.53.25,1.11.24,1.75,0,.55.01,1.14-.04,1.76-.04.55-.28,1.12-.36,1.72-.08.56-.11,1.14-.23,1.74-.12.55-.36,1.1-.52,1.68-.15.55-.24,1.13-.43,1.7-.18.54-.3,1.13-.52,1.69s-.59,1.01-.85,1.55-.36,1.12-.65,1.64-.64.97-.95,1.48-.74.9-1.08,1.39-.52,1.05-.88,1.53-.8.85-1.19,1.31-.83.81-1.24,1.25-.68.96-1.1,1.39-.83.81-1.27,1.22Z"/>
      </g>
    </g>
  </g>
</svg>