<?xml version="1.0" encoding="UTF-8"?>
<svg id="_レイヤー_2" data-name="レイヤー 2" xmlns="http://www.w3.org/2000/svg" xmlns:xlink="http://www.w3.org/1999/xlink" viewBox="0 0 182.79 98.16">
  <defs>
    <style>
      .cls-1 {
        mask: url(#mask);
      }

      .cls-2 {
        filter: url(#luminosity-noclip);
      }

      .cls-3 {
        fill: #1e1e1e;
      }
    </style>
    <filter id="luminosity-noclip" x="-5.74" y="-2.64" width="212.09" height="101.3" color-interpolation-filters="sRGB" filterUnits="userSpaceOnUse">
      <feFlood flood-color="#fff" result="bg"/>
      <feBlend in="SourceGraphic" in2="bg"/>
    </filter>
    <mask id="mask" x="-5.74" y="-2.64" width="212.09" height="101.3" maskUnits="userSpaceOnUse">
      <g class="cls-2">
        <g>
          <path d="M44.32,47.71s.34.21.78.41l.93.44c.46.16.9.22.97.14.07-.08.34-.69.45-1.17l.21-.88c.12-.47.06-.97-.15-1.1-.2-.13-1.08-.15-1.43.18l-1.14,1.21c-.31.38-.61.74-.62.77Z"/>
          <path d="M29.81,57.64c-.09-.04-.22-.07-.28-.07-.07,0-.28.38-.32.83l-.11,1.81c-.04.45.15.53.44.18l1-1.34c.25-.38.33-.78.18-.89s-.81-.47-.9-.51Z"/>
          <path d="M35.4,19.1c.25.14.63.1.84-.1l1.11-1.11c.2-.22.31-.45.26-.53-.05-.08-.37-.34-.56-.44-.19-.1-.9-.19-1.12,0l-1.15,1.05c-.21.21-.19.52.04.71l.58.43Z"/>
          <path d="M86.75,78.2c.42,0,.57-.29.33-.63l-.42-.69c-.24-.34-.67-.63-.96-.63s-1.1.28-1.13.6.42,1.25.84,1.28l1.35.07Z"/>
          <path d="M96.59,93.43c.36.1.65-.23.64-.74l-.08-1.43c0-.51-.25-.58-.54-.17l-.73,1.08c-.25.44.34,1.15.71,1.25Z"/>
          <path d="M154.68,76.13c-.2-.46-.41-.88-.47-.93-.06-.05-.55.07-.95.36l-1.48,1.01c-.4.3-.63.9-.5,1.32s.96,1.43,1.44,1.27l1.81-.67c.46-.21.7-.78.55-1.26l-.4-1.12Z"/>
          <path d="M63.55,97.64c.21-.13.34-.61.29-1.06l-.23-2.02c-.06-.45-.29-.74-.49-.65s-.73.82-.68,1.27l.24,1.96c.07.45.66.63.87.5Z"/>
          <path d="M132.22,1.7c.48-.03.88-.27.88-.52,0-.25-.59-.76-1.02-.55l-1.39.7c-.43.21-.39.39.09.39l1.44-.03Z"/>
          <path d="M153.99,24.28c-.16.31.09.6.56.64l2.51.3c.46.05.79-.08.73-.29-.06-.21-.59-.87-1.04-1l-1.31-.43c-.45-.14-1.28.47-1.44.78Z"/>
          <path d="M144.31,31.03c.13-.18.22-.68.2-1.11-.02-.44-.17-1.65-.33-1.7-.16-.05-.74-.13-.89-.1s-.45.42-.32.84l.63,1.94c.13.42.59.31.72.13Z"/>
          <path d="M170.52,27.31c-.04-.41-.24-.45-.44-.09l-.76,1.45c-.17.38-.04.71.27.74s1.19-.25,1.15-.66l-.22-1.44Z"/>
          <path d="M129.91,52.27s0,.15.03.29c.03.14.47.58.93.67l2.72.53c.46.1.85.15.86.13,0-.03-.34-.23-.78-.38l-2.91-1.05c-.45-.15-.84-.22-.85-.2Z"/>
          <path d="M108.21,18.04c.28.19.6-.02.71-.48l.16-.92c.11-.46-.09-.62-.45-.36s-.71,1.57-.43,1.77Z"/>
          <path d="M140.54,73.58c-.07.2.29.43.79.51l2.61.47c.5.08.95.06.99-.06.04-.11-.25-.53-.74-.66l-2.48-.74c-.49-.13-1.11.27-1.17.47Z"/>
          <path d="M162.45,53.33c-.06.15.19.5.57.79l.69.54c.37.29.72.48.79.43.07-.05-.04-.48-.37-.8l-.85-.9c-.34-.33-.76-.21-.82-.06Z"/>
          <path d="M173.44,84.91c0,.31.35.62.79.7l1.41.21c.44.03.81.05.82.04,0-.01-.15-.37-.35-.76l-.42-.95c-.19-.4-.61-.66-.92-.57s-1.31,1.04-1.31,1.34Z"/>
          <path d="M181.9,61.52c.21-.04.34-.36.3-.71-.04-.35-.3-.8-.45-.48-.15.32-.05,1.23.15,1.19Z"/>
          <path d="M103.02,71.29c-.22.31-.13.82.21,1.14l1.02.96c.35.29.72.2.81-.22.09-.41.16-1.7-.1-1.93-.27-.23-1.71-.25-1.93.06Z"/>
          <path d="M158.94,60.48c0,.1.34.29.76.42l1.05.33c.42.11.8.08.84-.06.04-.14.06-.61.04-.67s-.43-.24-.87-.25l-.99-.08c-.44-.03-.83.21-.83.32Z"/>
          <path d="M-2.9,95.13c-.35.36-.28.87.16,1.12l1.51.93c.44.24.87.04.96-.45l.49-2.82c.1-.49.1-.94,0-1-.11-.06-.7.04-1.08.37l-2.04,1.85Z"/>
          <path d="M91.38,91.93c.24.14.56.29.71.34.15.05.65,0,.79-.22.14-.22.44-.99.43-1.13,0-.14-.25-.57-.51-.64l-2.13-.65c-.27-.08-.55-.03-.62.1-.07.14-.24.63-.22.76s.24.61.47.76l1.08.67Z"/>
          <path d="M114.03,63.86c-.04.27.06.65.22.84.17.18.79.55.97.41.18-.14.34-.88.06-1.15-.28-.27-1.21-.37-1.25-.1Z"/>
          <path d="M44.37,73.53c.03-.09-.01-.4-.09-.69-.08-.29-.53-1.07-.83-1.08l-1.06-.06c-.31,0-.64.23-.74.52l-.26.92c-.07.3.13.56.44.57l1.87.12c.31,0,.65-.21.68-.3Z"/>
          <path d="M104.41,27.44c.06.03.48.1.93.15l1.33.2c.45.06.88-.07.94-.29.06-.21-.17-.98-.58-1.18l-1.42-.62c-.43-.16-.9-.01-1.03.31-.14.33-.21,1.39-.16,1.42Z"/>
          <path d="M181.07,29.36c-.03.11,0,.26.06.32s.6.26,1.05.32l.75.04c.45.05.47-.05.07-.23l-1.01-.49c-.41-.18-.87-.06-.91.05Z"/>
          <path d="M127.89,66.13c.42.19,1.02.06,1.33-.28l.6-.69c.29-.36.27-.94-.04-1.28-.31-.34-1.62-.9-1.98-.61l-1.28,1.15c-.32.33-.25.79.16,1.01l1.21.69Z"/>
          <path d="M53.14,72.14c.11-.24.2-.45.2-.47,0-.01-.24-.24-.54-.46-.29-.23-1.22-.66-1.3-.51-.08.15-.24.85-.19,1.15.05.3.29,1.09.47,1.17.18.08.79.12.93-.1l.43-.77Z"/>
          <path d="M18.96,82.23s-.01.05-.01.06c0,0,.02-.01.03-.05,0-.03,0-.04-.02-.01Z"/>
          <path d="M84.81,1.5c.25.32.62.26.84-.14l.91-1.78c.21-.4.05-.58-.37-.4l-1.35.68c-.39.24-.28,1.32-.03,1.64Z"/>
          <path d="M153.82,38.98c-.08.13-.15.54-.16.93-.01.39.34,1.5.83,1.57l2.03.35c.49.07.86-.27.82-.76l-.05-1.21c-.02-.49-.44-.95-.93-1.01l-1.34-.2c-.49-.06-1.11.2-1.19.32Z"/>
          <path d="M72.97,36.65c.49.06,1.14-.18,1.45-.53.31-.35,1.03-1.72.98-2.22l-.34-3.86c-.03-.49-.41-1.08-.84-1.31s-1.96-.56-2.37-.29l-1.65,1.18c-.39.3-.7.95-.67,1.44l.15,3.95c.02.49.2.98.41,1.08.21.1,1.19.39,1.69.44l1.2.13Z"/>
          <path d="M79.78,75.3c-.45.05-.84.13-.87.2-.03.06.07.56.26.97l1.38,2.62c.2.41.47.39.61-.04l.82-2.98c.09-.44-.21-.8-.66-.8l-1.55.03Z"/>
          <path d="M185.54,51.39c.25-.4.46-.96.46-1.24,0-.28-.29-1.17-.69-1.39-.4-.21-1.8-.35-2.08.05l-1.27,2.01c-.23.43-.32.87-.19.99.13.12.83.48,1.24.59.41.1,2.27-.6,2.52-1.01Z"/>
          <path d="M73.86-.2c-.15-.38-.61-.6-1-.47l-1.31.37c-.4.12-.58.52-.41.9l.56,1.36c.16.38.59.54.95.34l1.19-.59c.38-.18.55-.63.38-1.01l-.36-.9Z"/>
          <path d="M10.07,32.95c.28-.04.45-.45.39-.91-.07-.46-.42-1.08-.63-.67-.21.41-.68,1.57-.67,1.57,0,0,.64.05.92,0Z"/>
        </g>
      </g>
    </mask>
  </defs>
  <g id="img">
    <g class="cls-1">
      <path class="cls-3" d="M22.14,30.19c-.53.7-.62.17-1.71.34-.49.08-1.08.12-1.73.27-.53.12-1.11.21-1.71.38-.54.15-1.11.28-1.69.48-.53.19-1.12.32-1.68.55-.53.22-1.05.5-1.59.78s-1.01.59-1.52.9-.99.62-1.48.96-.82.84-1.28,1.22-.88.75-1.3,1.17-.84.8-1.22,1.25-.9.78-1.25,1.26-.47,1.08-.77,1.6-.64.97-.89,1.52-.52,1.04-.73,1.6-.24,1.14-.4,1.72-.27,1.12-.4,1.7-.26,1.12-.35,1.72-.24,1.14-.29,1.74c-.04.57-.04,1.16-.05,1.76s-.11,1.17-.09,1.77.17,1.16.22,1.76c.05.62-.08,1.25,0,1.84.08.62.26,1.22.37,1.8.12.61.48,1.15.64,1.72.17.6.17,1.23.37,1.79.21.59.6,1.08.86,1.61s.45,1.14.75,1.66.64,1.04.99,1.53.67,1.04,1.06,1.49.79.95,1.23,1.36,1,.73,1.48,1.09,1.07.59,1.58.91,1.04.61,1.58.89,1.03.67,1.58.91,1.14.45,1.71.64,1.18.31,1.76.46,1.2.22,1.79.34,1.2.22,1.79.31,1.19.4,1.78.46c.62.06,1.24.05,1.82.08.64.03,1.25.1,1.83.1.65,0,1.26-.11,1.82-.13.69-.02,1.3-.05,1.81-.09,1.14-.09,1-.63,1.75-.13s.11.61.53,1.68c.19.47.45,1.03.76,1.64.24.49.67.95,1.01,1.51.29.49.43,1.12.79,1.64.33.47.86.83,1.26,1.32.36.45.8.86,1.23,1.32.4.43.62,1.05,1.08,1.48.42.4.88.81,1.35,1.21.45.38,1.09.54,1.59.91.47.35.93.73,1.45,1.07.49.32.95.71,1.49,1.02s1.01.64,1.56.92,1.12.42,1.68.68,1.04.61,1.61.84,1.19.23,1.77.44,1.1.47,1.69.65,1.13.39,1.72.55,1.17.23,1.77.37,1.18.18,1.79.29,1.14.42,1.75.51,1.18.21,1.79.28,1.21.02,1.82.08,1.2.1,1.81.14c.61.04,1.21.12,1.8.15s1.21.15,1.8.16,1.22.02,1.81,0,1.22,0,1.81-.02,1.2-.27,1.79-.31,1.22.06,1.81-.01,1.17-.41,1.75-.5,1.24.04,1.81-.07,1.2-.21,1.77-.35,1.1-.58,1.66-.75,1.16-.34,1.71-.53,1.13-.43,1.67-.65,1.15-.4,1.68-.65,1.12-.47,1.64-.75c.54-.29,1.08-.56,1.57-.87.52-.32.99-.7,1.47-1.03.5-.35,1.05-.63,1.5-1,.48-.39.89-.84,1.32-1.22.46-.42.96-.77,1.36-1.18.44-.45.86-.89,1.23-1.32.41-.48.65-1.06.99-1.51.39-.52.66-1.05.96-1.51.37-.58.67-1.09.9-1.54.53-1-.03-1.42.82-1.69s.57.47,1.49,1.07c.41.27.84.69,1.41,1.03.46.27.95.59,1.51.88.49.25,1.03.48,1.58.74.51.23,1.04.48,1.6.71.52.21,1.08.4,1.64.6.53.19,1.09.35,1.66.53s1.09.38,1.66.52,1.15.12,1.73.24,1.11.34,1.69.43,1.14.23,1.73.29,1.16-.04,1.75-.01,1.16.17,1.75.17,1.16-.17,1.74-.2c.6-.03,1.19-.09,1.76-.15.6-.06,1.2-.04,1.77-.11.6-.08,1.18-.19,1.75-.29.6-.11,1.14-.37,1.7-.5.59-.14,1.17-.24,1.72-.4.59-.17,1.16-.31,1.7-.5.58-.2,1.18-.28,1.71-.5.56-.24.99-.71,1.5-.97.55-.28,1.11-.47,1.6-.76.53-.31,1.03-.63,1.49-.95.51-.36,1.07-.6,1.5-.96.48-.4.93-.81,1.32-1.2.45-.45.83-.92,1.17-1.34.43-.52.76-1.03,1.03-1.45.61-.94-.06-1.28.75-1.64s.66.28,1.78.58c.5.14,1.11.27,1.79.42.55.13,1.15.25,1.8.37.57.11,1.18.22,1.81.32.58.09,1.19.19,1.82.26.59.07,1.19.25,1.82.3s1.22-.04,1.85-.02,1.22-.07,1.84-.08,1.22.09,1.84.05,1.23-.06,1.84-.13,1.19-.34,1.79-.45,1.2-.22,1.8-.37,1.2-.25,1.78-.44,1.15-.41,1.72-.64,1.15-.43,1.7-.71,1.03-.66,1.55-.99.98-.71,1.47-1.09c.48-.37,1.01-.66,1.43-1.07s.92-.79,1.29-1.25.73-.96,1.05-1.46.65-1.02.92-1.55.49-1.1.7-1.66.37-1.14.53-1.71.18-1.18.3-1.77.17-1.18.25-1.76.34-1.17.38-1.76-.07-1.21-.06-1.8-.07-1.2-.1-1.79-.05-1.2-.11-1.78c-.06-.61-.15-1.2-.23-1.77-.08-.62-.06-1.23-.16-1.79-.11-.63-.18-1.23-.3-1.76-.15-.66-.4-1.22-.53-1.7-.29-1.08.42-1.71-.47-1.73-.05.62.02,1.26-.07,1.86s-.49,1.16-.64,1.75-.17,1.23-.37,1.8-.38,1.18-.63,1.73-.53,1.12-.82,1.65-.82.94-1.16,1.44-.51,1.15-.89,1.62-.79.96-1.21,1.4-1.07.66-1.52,1.06-.78.99-1.27,1.35-1.11.55-1.63.87-1.02.69-1.56.97-1.1.54-1.66.78-1.14.48-1.71.66-1.19.31-1.78.44-1.21.18-1.81.26-1.21.27-1.82.29-1.25.11-1.85.05-1.24-.21-1.82-.34-1.2-.35-1.75-.58-1.03-.69-1.53-1.02-1.02-.66-1.45-1.1-.87-.85-1.21-1.37-.47-1.1-.71-1.69c-.21-.55-.38-1.13-.59-1.72s-.51-1.1-.7-1.69-.5-1.11-.69-1.7-.25-1.19-.44-1.78-.48-1.11-.68-1.7-.34-1.16-.55-1.74-.32-1.18-.54-1.75-.49-1.12-.72-1.68-.39-1.16-.64-1.72-.68-1.03-.96-1.57-.6-1.06-.9-1.59-.44-1.16-.78-1.67-.72-.99-1.09-1.48-.82-.9-1.23-1.36-.73-.98-1.17-1.41-1.03-.66-1.51-1.06-.8-.95-1.3-1.31-1.12-.49-1.66-.81-1.01-.67-1.57-.94-1.07-.57-1.65-.8-1.2-.22-1.79-.4-1.16-.3-1.76-.44-1.15-.4-1.76-.5-1.2-.13-1.82-.2-1.2-.08-1.82-.12-1.2-.17-1.83-.17-1.18.1-1.81.12c-.52.73,0,.64.2,1.76.09.5.34,1.06.45,1.74.08.54.3,1.12.38,1.75.07.56-.11,1.18-.05,1.81.05.57.07,1.17.11,1.78.03.58.06,1.17.07,1.79s.18,1.18.17,1.79,0,1.19-.02,1.79-.25,1.17-.29,1.77.1,1.2.03,1.8-.28,1.16-.38,1.76-.28,1.16-.4,1.74-.01,1.22-.17,1.8-.31,1.16-.5,1.73-.41,1.13-.63,1.68-.48,1.1-.73,1.64-.69.98-.99,1.51-.51,1.08-.84,1.58-.65,1-1.02,1.47-.75.93-1.15,1.37-.84.85-1.28,1.26-.82.87-1.3,1.25-.97.7-1.47,1.04c-.49.33-1.06.55-1.58.85s-1.07.51-1.61.79-.97.73-1.52.98-1.17.28-1.74.5-1.07.52-1.65.72-1.15.33-1.72.5-1.17.25-1.75.4-1.15.32-1.73.45-1.17.22-1.76.33-1.15.35-1.74.44-1.19.11-1.79.18-1.2.02-1.79.07-1.19.15-1.78.18-1.19,0-1.79,0-1.2.27-1.8.25-1.2-.08-1.8-.12-1.2-.13-1.79-.2-1.2-.1-1.79-.19-1.14-.45-1.72-.57-1.24.04-1.82-.11-1.08-.59-1.65-.76-1.19-.22-1.75-.42-1.06-.56-1.61-.81-1.13-.4-1.66-.68-.99-.68-1.49-1-1.15-.44-1.63-.8-.89-.82-1.33-1.22-.88-.81-1.29-1.25-.7-.97-1.07-1.45-.82-.88-1.14-1.39-.43-1.12-.7-1.66-.7-.99-.92-1.56-.21-1.18-.38-1.77-.41-1.12-.52-1.72-.07-1.18-.13-1.79-.28-1.17-.3-1.78-.02-1.19,0-1.8.08-1.19.14-1.8c.06-.61.15-1.2.23-1.78s.16-1.2.27-1.77.19-1.2.33-1.77c.15-.59.32-1.17.5-1.73s.41-1.14.63-1.68.71-1,.97-1.52.53-1.07.83-1.57.47-1.13.82-1.6.73-.96,1.12-1.4.89-.82,1.32-1.22.87-.84,1.34-1.2,1.07-.55,1.57-.86.93-.79,1.46-1.05,1.11-.46,1.67-.67,1.19-.2,1.76-.36,1.1-.52,1.69-.63,1.2-.04,1.79-.11,1.19-.15,1.78-.17,1.2-.05,1.79-.02,1.2.05,1.79.12,1.16.33,1.74.44,1.2.13,1.77.28,1.18.25,1.74.44,1.16.37,1.69.61,1.01.69,1.52.96c.54.29,1.1.51,1.58.84.51.35.88.83,1.31,1.22.46.42,1.02.71,1.37,1.16.38.49.66,1.04.9,1.55.25.54.38,1.13.54,1.7s.42,1.13.49,1.72-.07,1.19-.08,1.79.17,1.21.09,1.8-.3,1.17-.45,1.74-.48,1.09-.7,1.64-.3,1.18-.58,1.69-.62,1.03-.97,1.51-.72.98-1.14,1.39-.92.79-1.4,1.13-1.07.53-1.62.76-1.1.46-1.69.56-1.18.15-1.79.1c-.7-.06-1.3-.17-1.8-.27-.79-.15-1.31-.43-1.68-.66-.66-.41-.61-.81-.14-1.4.29-.37.76-.72,1.37-1.12.46-.3.87-.81,1.46-1.11.51-.26,1.07-.52,1.65-.77.54-.24,1.16-.34,1.74-.57.5-.2.91-.65,1.31-1.17.34-.44.67-.93.89-1.53.19-.54.31-1.13.37-1.73.05-.58-.05-1.16-.15-1.76s-.08-1.2-.34-1.75c-.25-.51-.66-.97-1.08-1.44-.37-.42-.75-.91-1.28-1.27-.46-.31-1.1-.37-1.69-.61-.51-.21-1.05-.45-1.67-.6-.58-.14-1.18-.24-1.81-.29s-1.22-.23-1.85-.19-1.21.26-1.82.36-1.17.34-1.77.51-1.25.1-1.83.33-1.13.5-1.68.78-1,.72-1.52,1.06-1.03.66-1.51,1.05-.87.86-1.3,1.3-.82.9-1.19,1.39-.89.89-1.19,1.43-.35,1.19-.57,1.77-.37,1.15-.51,1.76-.33,1.17-.39,1.79-.16,1.21-.13,1.84c.02.6.09,1.21.18,1.84.09.59.2,1.2.36,1.81.15.58.37,1.16.58,1.76.2.57.52,1.07.77,1.59s.49,1.09.81,1.57.69.97,1.06,1.41.86.8,1.29,1.2.83.83,1.3,1.18.92.73,1.43,1.03,1.08.46,1.62.71,1.06.5,1.62.7,1.07.54,1.64.69,1.2.03,1.78.14,1.12.4,1.71.47,1.18.07,1.77.11,1.17.17,1.76.18,1.18.04,1.77.03,1.18-.07,1.77-.11,1.17-.22,1.75-.29,1.16-.21,1.74-.3,1.17-.21,1.73-.33,1.18-.17,1.74-.31,1.17-.24,1.72-.41c.58-.18,1.14-.38,1.67-.58.57-.22,1.06-.59,1.57-.82.56-.26,1.17-.39,1.64-.66.5-.29.93-.73,1.42-1.07s1.03-.59,1.5-.97.91-.76,1.35-1.16.74-.92,1.15-1.36.84-.83,1.21-1.29.72-.93,1.06-1.42.59-1.02.9-1.53.58-1.01.86-1.54.52-1.05.76-1.6.41-1.09.61-1.66.43-1.09.6-1.67.3-1.13.43-1.72.18-1.16.27-1.75.29-1.15.34-1.74,0-1.18.01-1.78.02-1.17,0-1.77.14-1.18.1-1.78-.19-1.17-.27-1.76-.16-1.17-.26-1.76-.35-1.13-.48-1.72-.13-1.18-.28-1.76c-.16-.6-.4-1.17-.59-1.73-.2-.59-.56-1.1-.8-1.64s-.39-1.17-.68-1.69-.67-1.03-1-1.52-.62-1.07-1-1.53-.81-.92-1.24-1.34-.95-.77-1.42-1.14-.95-.76-1.46-1.09-1.08-.56-1.61-.85-1-.72-1.55-.97-1.16-.37-1.74-.57-1.19-.25-1.77-.41-1.12-.55-1.71-.67-1.23-.04-1.83-.13-1.18-.36-1.78-.42-1.23.13-1.83.1-1.21-.3-1.81-.3-1.22.19-1.82.21-1.22.03-1.82.08-1.21.2-1.8.28c-.62.07-1.22.12-1.8.22-.62.1-1.19.02-1.76.13-.27-.54-.5-1.04-.82-1.56s-.75-.95-1.12-1.44-.69-1-1.1-1.45-.96-.75-1.4-1.17-.9-.79-1.37-1.17-.83-.9-1.33-1.25-1.11-.5-1.63-.82-.95-.77-1.48-1.05-1.07-.55-1.63-.8-1.18-.29-1.75-.51-1.04-.69-1.62-.87-1.18-.29-1.77-.44-1.2-.15-1.8-.26-1.2-.12-1.8-.19-1.19-.16-1.8-.2S55.58,0,54.97,0s-1.2.14-1.81.17-1.19.11-1.8.18-1.19.13-1.79.23-1.18.23-1.77.37-1.2.17-1.78.34-1.14.39-1.72.59c-.57.2-1.18.27-1.73.48s-1.06.59-1.6.81-1.07.55-1.59.8-1.16.35-1.68.62-1,.68-1.5.97-1.1.5-1.59.81-1.03.63-1.5.97c-.5.35-.97.71-1.43,1.07-.48.38-.85.85-1.29,1.24-.46.4-.98.71-1.39,1.12-.43.43-.73.96-1.11,1.4-.4.46-.81.89-1.16,1.35-.37.48-.84.88-1.16,1.36-.33.51-.57,1.07-.85,1.57-.3.53-.41,1.14-.66,1.66-.26.56-.62,1.04-.82,1.58-.21.58-.42,1.14-.57,1.69-.17.6-.36,1.17-.47,1.72-.12.61,0,1.24-.06,1.79-.07.64-.17,1.22-.19,1.76-.02.68.04,1.27.07,1.77.06,1.11.63,1.05.09,1.75Z"/>
    </g>
  </g>
</svg>