<?xml version="1.0" encoding="UTF-8"?>
<svg id="_レイヤー_2" data-name="レイヤー 2" xmlns="http://www.w3.org/2000/svg" xmlns:xlink="http://www.w3.org/1999/xlink" viewBox="0 0 581.48 671.85">
  <defs>
    <style>
      .cls-1 {
        fill: none;
      }

      .cls-2 {
        fill: #c7000b;
      }

      .cls-3 {
        fill: #fff;
      }

      .cls-4 {
        clip-path: url(#clippath);
      }
    </style>
    <clipPath id="clippath">
      <rect class="cls-1" x="216.94" y="206.74" width="157.6" height="76.25"/>
    </clipPath>
  </defs>
  <g id="design">
    <path class="cls-2" d="M294.73,86.83c-23.94,0-43.42-19.48-43.42-43.42S270.79,0,294.73,0s43.42,19.48,43.42,43.42-19.48,43.42-43.42,43.42ZM294.73,15.9c-15.17,0-27.51,12.34-27.51,27.51s12.34,27.51,27.51,27.51,27.51-12.34,27.51-27.51-12.34-27.51-27.51-27.51Z"/>
    <g>
      <path class="cls-2" d="M576.16,196.95s-.02-.02-.03-.02L422.12,48.9c-3.04-3.13-8.58-5.48-12.93-5.48h-236.92c-4.35,0-9.89,2.35-12.93,5.48L5.35,196.92s-.07.07-.11.11c-2.99,3.12-5.24,8.73-5.24,13.06v407.7c0,29.86,24.2,54.06,54.06,54.06h473.36c29.86,0,54.06-24.2,54.06-54.06V210.04c0-4.2-2.33-10.15-5.33-13.09Z"/>
      <g>
        <g class="cls-4">
          <g>
            <g>
              <path class="cls-3" d="M290.45,270.63c-30.21,0-54.78-28.66-54.78-63.88s24.57-63.88,54.78-63.88,54.78,28.66,54.78,63.88-24.57,63.88-54.78,63.88ZM290.45,175.28c-12.12,0-22.36,14.41-22.36,31.46s10.24,31.46,22.36,31.46,22.36-14.41,22.36-31.46-10.24-31.46-22.36-31.46Z"/>
              <path class="cls-2" d="M290.45,142.86c30.21,0,54.78,28.66,54.78,63.88s-24.57,63.88-54.78,63.88-54.78-28.66-54.78-63.88,24.57-63.88,54.78-63.88M290.45,238.2c12.12,0,22.36-14.41,22.36-31.46s-10.24-31.46-22.36-31.46-22.36,14.41-22.36,31.46,10.24,31.46,22.36,31.46M290.45,136.38c-33.78,0-61.27,31.57-61.27,70.37s27.48,70.37,61.27,70.37,61.27-31.57,61.27-70.37-27.48-70.37-61.27-70.37h0ZM290.45,231.72c-7.49,0-15.87-10.68-15.87-24.97s8.38-24.97,15.87-24.97,15.87,10.68,15.87,24.97-8.38,24.97-15.87,24.97h0Z"/>
            </g>
            <path class="cls-2" d="M290.45,258.19c-23.35,0-42.35-23.08-42.35-51.45s19-51.45,42.35-51.45,42.35,23.08,42.35,51.45-19,51.45-42.35,51.45ZM290.45,162.85c-19.18,0-34.79,19.69-34.79,43.89s15.61,43.89,34.79,43.89,34.79-19.69,34.79-43.89-15.61-43.89-34.79-43.89Z"/>
          </g>
        </g>
        <g>
          <g>
            <g>
              <path class="cls-3" d="M200.74,245.15c-25.59,0-49.84-7.65-68.28-21.54-19.92-15.01-30.89-35.42-30.89-57.49s10.97-42.48,30.89-57.49c18.44-13.89,42.69-21.54,68.28-21.54s49.84,7.65,68.28,21.54c19.92,15.01,30.89,35.42,30.89,57.49s-10.97,42.48-30.89,57.49c-18.44,13.89-42.69,21.54-68.28,21.54ZM200.74,122.1c-34.77,0-64.15,20.16-64.15,44.02s29.38,44.02,64.15,44.02,64.15-20.16,64.15-44.02-29.38-44.02-64.15-44.02Z"/>
              <path class="cls-2" d="M200.74,87.09c25.59,0,49.84,7.65,68.28,21.54,19.92,15.01,30.89,35.42,30.89,57.49s-10.97,42.48-30.89,57.49c-18.44,13.89-42.69,21.54-68.28,21.54s-49.84-7.65-68.28-21.54c-19.92-15.01-30.89-35.42-30.89-57.49s10.97-42.48,30.89-57.49c18.44-13.89,42.69-21.54,68.28-21.54M200.74,210.14c34.77,0,64.15-20.16,64.15-44.02s-29.38-44.02-64.15-44.02-64.15,20.16-64.15,44.02,29.38,44.02,64.15,44.02M200.74,80.6c-26.99,0-52.62,8.12-72.18,22.85-21.59,16.26-33.47,38.52-33.47,62.67s11.89,46.4,33.47,62.67c19.56,14.74,45.19,22.85,72.18,22.85s52.62-8.12,72.18-22.85c21.59-16.26,33.47-38.52,33.47-62.67s-11.89-46.4-33.47-62.67c-19.56-14.74-45.19-22.85-72.18-22.85h0ZM200.74,203.65c-30.72,0-57.67-17.54-57.67-37.53s26.95-37.53,57.67-37.53,57.67,17.54,57.67,37.53-26.95,37.53-57.67,37.53h0Z"/>
            </g>
            <path class="cls-2" d="M200.74,231.42c-47.11,0-85.44-29.29-85.44-65.3s38.33-65.3,85.44-65.3,85.44,29.29,85.44,65.3-38.33,65.3-85.44,65.3ZM200.74,108.37c-42.94,0-77.88,25.9-77.88,57.75s34.94,57.75,77.88,57.75,77.88-25.9,77.88-57.75-34.94-57.75-77.88-57.75Z"/>
          </g>
          <g>
            <g>
              <path class="cls-3" d="M380.17,245.15c-25.59,0-49.84-7.65-68.28-21.54-19.92-15.01-30.89-35.42-30.89-57.49s10.97-42.48,30.89-57.49c18.44-13.89,42.69-21.54,68.28-21.54s49.84,7.65,68.28,21.54c19.92,15.01,30.89,35.42,30.89,57.49s-10.97,42.48-30.89,57.49c-18.44,13.89-42.69,21.54-68.28,21.54ZM380.17,122.1c-34.77,0-64.15,20.16-64.15,44.02s29.38,44.02,64.15,44.02,64.15-20.16,64.15-44.02-29.38-44.02-64.15-44.02Z"/>
              <path class="cls-2" d="M380.17,87.09c25.59,0,49.84,7.65,68.28,21.54,19.92,15.01,30.89,35.42,30.89,57.49s-10.97,42.48-30.89,57.49c-18.44,13.89-42.69,21.54-68.28,21.54s-49.84-7.65-68.28-21.54c-19.92-15.01-30.89-35.42-30.89-57.49s10.97-42.48,30.89-57.49c18.44-13.89,42.69-21.54,68.28-21.54M380.17,210.14c34.77,0,64.15-20.16,64.15-44.02s-29.38-44.02-64.15-44.02-64.15,20.16-64.15,44.02,29.38,44.02,64.15,44.02M380.17,80.6c-26.99,0-52.62,8.12-72.18,22.85-21.59,16.26-33.47,38.52-33.47,62.67s11.89,46.4,33.47,62.67c19.56,14.74,45.19,22.85,72.18,22.85s52.62-8.12,72.18-22.85c21.59-16.26,33.47-38.52,33.47-62.67s-11.89-46.4-33.47-62.67c-19.56-14.74-45.19-22.85-72.18-22.85h0ZM380.17,203.65c-30.72,0-57.67-17.54-57.67-37.53s26.95-37.53,57.67-37.53,57.67,17.54,57.67,37.53-26.95,37.53-57.67,37.53h0Z"/>
            </g>
            <path class="cls-2" d="M380.17,231.42c-47.11,0-85.44-29.29-85.44-65.3s38.33-65.3,85.44-65.3,85.44,29.29,85.44,65.3-38.33,65.3-85.44,65.3ZM380.17,108.37c-42.94,0-77.88,25.9-77.88,57.75s34.94,57.75,77.88,57.75,77.88-25.9,77.88-57.75-34.94-57.75-77.88-57.75Z"/>
          </g>
          <g>
            <g>
              <g>
                <path class="cls-3" d="M280.71,140.85c-3.01,3.01-8.32,2.6-11.84-.92h0c-3.52-3.52-3.94-8.82-.92-11.84l19.49-19.49c3.01-3.01,8.31-2.6,11.84.92h0c3.52,3.52,3.94,8.82.92,11.84l-19.49,19.49Z"/>
                <path class="cls-2" d="M275.63,146.64c-3.43,0-6.87-1.48-9.43-4.05-2.34-2.34-3.76-5.35-4.01-8.49-.26-3.31.87-6.48,3.09-8.69l19.49-19.49c2.01-2.01,4.76-3.12,7.75-3.12,3.43,0,6.86,1.47,9.44,4.05,2.34,2.34,3.76,5.36,4.01,8.49.26,3.31-.87,6.48-3.09,8.69l-19.49,19.49c-2.01,2.01-4.77,3.12-7.75,3.12ZM292.51,110.36c-.68,0-1.65.16-2.4.91l-19.49,19.49c-.9.9-.95,2.11-.89,2.76.1,1.32.77,2.68,1.82,3.73,1.16,1.16,2.65,1.83,4.09,1.83.68,0,1.65-.16,2.4-.91l19.49-19.49c.9-.9.95-2.12.9-2.76-.1-1.32-.76-2.68-1.82-3.73-1.16-1.16-2.66-1.83-4.09-1.83Z"/>
              </g>
              <g>
                <path class="cls-3" d="M293.47,153.61c-3.01,3.01-8.31,2.6-11.84-.92h0c-3.52-3.52-3.94-8.82-.92-11.84l19.49-19.49c3.01-3.01,8.31-2.6,11.84.92h0c3.52,3.52,3.94,8.82.92,11.84l-19.49,19.49Z"/>
                <path class="cls-2" d="M288.39,159.4c-3.42,0-6.86-1.47-9.43-4.05-2.34-2.34-3.76-5.36-4.01-8.49-.26-3.31.87-6.48,3.09-8.69l19.49-19.49c2.01-2.01,4.76-3.12,7.75-3.12,3.42,0,6.86,1.47,9.44,4.05,2.34,2.34,3.76,5.35,4.01,8.49.26,3.31-.87,6.47-3.09,8.69l-19.49,19.49c-2.01,2.01-4.77,3.12-7.75,3.12ZM305.27,123.12c-.68,0-1.65.16-2.4.91l-19.49,19.49c-.9.9-.95,2.11-.9,2.76.1,1.32.77,2.68,1.82,3.73,1.16,1.16,2.65,1.83,4.09,1.83.68,0,1.65-.16,2.4-.91l19.49-19.49c.9-.9.95-2.12.9-2.76-.1-1.32-.77-2.68-1.82-3.73-1.17-1.17-2.66-1.83-4.09-1.83Z"/>
              </g>
            </g>
            <g>
              <g>
                <path class="cls-3" d="M308.67,149.32c-3.01-3.01-2.6-8.31.92-11.84h0c3.53-3.52,8.83-3.94,11.84-.92l19.49,19.49c3.01,3.01,2.6,8.31-.92,11.84h0c-3.52,3.52-8.82,3.94-11.84.92l-19.49-19.49Z"/>
                <path class="cls-2" d="M333.24,174.6c-2.98,0-5.73-1.11-7.75-3.12l-19.49-19.49c-4.48-4.48-4.07-12.19.92-17.18,2.57-2.57,6.01-4.05,9.44-4.05,2.98,0,5.73,1.11,7.75,3.12l19.49,19.49c2.22,2.22,3.34,5.39,3.09,8.69-.24,3.13-1.67,6.15-4.01,8.49-2.57,2.57-6.01,4.05-9.43,4.05ZM316.36,138.32c-1.44,0-2.93.67-4.09,1.83-2.01,2.01-2.43,4.98-.92,6.49l19.49,19.49c.75.75,1.72.91,2.4.91,1.44,0,2.93-.67,4.09-1.83,1.05-1.05,1.72-2.41,1.82-3.73.05-.65,0-1.87-.89-2.76l-19.49-19.49c-.75-.75-1.72-.91-2.4-.91Z"/>
              </g>
              <g>
                <path class="cls-3" d="M295.91,162.08c-3.01-3.01-2.6-8.31.92-11.84h0c3.53-3.52,8.82-3.94,11.84-.92l19.49,19.49c3.01,3.01,2.6,8.31-.92,11.84h0c-3.52,3.52-8.82,3.94-11.84.92l-19.49-19.49Z"/>
                <path class="cls-2" d="M320.48,187.36c-2.98,0-5.73-1.11-7.75-3.12l-19.49-19.49c-4.48-4.48-4.07-12.19.92-17.18,2.57-2.57,6.01-4.04,9.44-4.04,2.98,0,5.73,1.11,7.75,3.12l19.49,19.49c4.48,4.48,4.07,12.19-.92,17.18-2.57,2.57-6.01,4.04-9.43,4.04ZM303.6,151.08c-1.44,0-2.93.67-4.09,1.83-2.01,2.01-2.43,4.98-.92,6.49l19.49,19.49c.75.75,1.72.91,2.4.91,1.44,0,2.93-.67,4.09-1.83,2.01-2.01,2.43-4.98.92-6.49l-19.49-19.49c-.75-.75-1.72-.91-2.4-.91Z"/>
              </g>
            </g>
            <g>
              <g>
                <path class="cls-3" d="M300.2,177.28c3.01-3.01,8.31-2.6,11.84.92h0c3.52,3.52,3.94,8.82.92,11.84l-19.49,19.49c-3.01,3.01-8.31,2.6-11.84-.92h0c-3.52-3.52-3.94-8.82-.92-11.84l19.49-19.49Z"/>
                <path class="cls-2" d="M288.39,215.33c-3.43,0-6.87-1.48-9.44-4.05-2.34-2.34-3.76-5.35-4.01-8.49-.26-3.31.87-6.48,3.09-8.69l19.49-19.49c2.01-2.01,4.76-3.12,7.75-3.12,3.42,0,6.86,1.47,9.43,4.04,2.34,2.34,3.77,5.36,4.01,8.49.26,3.31-.87,6.48-3.09,8.69l-19.49,19.49c-2.01,2.01-4.77,3.12-7.75,3.12ZM305.27,179.04c-.68,0-1.65.16-2.4.91l-19.49,19.49c-.9.9-.95,2.12-.9,2.76.1,1.32.77,2.68,1.82,3.73,1.16,1.16,2.65,1.83,4.09,1.83.68,0,1.65-.16,2.4-.91l19.49-19.49c.9-.9.95-2.12.89-2.76-.1-1.32-.77-2.68-1.82-3.73-1.16-1.16-2.66-1.83-4.09-1.83Z"/>
              </g>
              <g>
                <path class="cls-3" d="M287.44,164.52c3.01-3.01,8.31-2.6,11.84.92h0c3.52,3.52,3.94,8.82.92,11.84l-19.49,19.49c-3.01,3.01-8.31,2.6-11.84-.92h0c-3.52-3.52-3.94-8.82-.92-11.84l19.49-19.49Z"/>
                <path class="cls-2" d="M275.63,202.57c-3.42,0-6.86-1.47-9.43-4.04-4.99-4.99-5.4-12.7-.92-17.18l19.49-19.49c2.01-2.01,4.77-3.12,7.75-3.12,3.42,0,6.86,1.47,9.43,4.04,2.34,2.34,3.76,5.36,4.01,8.49.26,3.31-.87,6.47-3.09,8.69l-19.49,19.49c-2.01,2.01-4.77,3.12-7.75,3.12ZM292.51,166.28c-.68,0-1.65.16-2.4.91l-19.49,19.49c-1.51,1.51-1.09,4.48.92,6.49,1.16,1.16,2.66,1.83,4.09,1.83.68,0,1.65-.16,2.4-.91l19.49-19.49c.9-.9.95-2.12.9-2.76-.1-1.32-.76-2.68-1.82-3.73-1.16-1.16-2.65-1.83-4.09-1.83Z"/>
              </g>
            </g>
            <g>
              <g>
                <path class="cls-3" d="M272.23,168.81c3.01,3.01,2.6,8.31-.92,11.84h0c-3.52,3.52-8.82,3.94-11.84.92l-19.49-19.49c-3.01-3.01-2.6-8.31.92-11.84h0c3.52-3.52,8.82-3.94,11.84-.92l19.49,19.49Z"/>
                <path class="cls-2" d="M264.55,187.36c-2.98,0-5.73-1.11-7.75-3.12l-19.49-19.49c-2.22-2.22-3.34-5.39-3.09-8.69.24-3.13,1.67-6.15,4.01-8.49,2.57-2.57,6.01-4.04,9.43-4.04,2.98,0,5.73,1.11,7.75,3.12l19.49,19.49c2.22,2.22,3.34,5.39,3.09,8.69-.24,3.13-1.67,6.15-4.01,8.49-2.57,2.57-6.01,4.05-9.43,4.05ZM247.67,151.08c-1.44,0-2.93.67-4.09,1.83-1.05,1.05-1.72,2.41-1.82,3.73-.05.65,0,1.87.89,2.76l19.49,19.49c.75.75,1.72.91,2.4.91,1.44,0,2.93-.67,4.09-1.83,1.05-1.05,1.71-2.41,1.82-3.73.05-.65,0-1.87-.89-2.76l-19.49-19.49c-.75-.75-1.72-.91-2.4-.91Z"/>
              </g>
              <g>
                <path class="cls-3" d="M285,156.05c3.01,3.01,2.6,8.31-.92,11.84h0c-3.52,3.52-8.82,3.94-11.84.92l-19.49-19.49c-3.01-3.01-2.6-8.31.92-11.84h0c3.52-3.52,8.82-3.94,11.84-.92l19.49,19.49Z"/>
                <path class="cls-2" d="M277.31,174.6c-2.98,0-5.73-1.11-7.75-3.12l-19.49-19.49c-2.22-2.22-3.34-5.39-3.09-8.69.24-3.13,1.67-6.15,4.01-8.49,2.57-2.57,6.01-4.04,9.43-4.04,2.98,0,5.73,1.11,7.75,3.12l19.49,19.49c2.22,2.22,3.34,5.39,3.08,8.69-.24,3.13-1.67,6.15-4.01,8.49-2.57,2.57-6.01,4.04-9.43,4.04ZM260.43,138.32c-1.44,0-2.93.67-4.09,1.83-1.05,1.05-1.71,2.41-1.82,3.73-.05.65,0,1.87.89,2.76l19.49,19.49c.75.75,1.72.91,2.4.91,1.43,0,2.92-.67,4.09-1.83,1.05-1.05,1.72-2.41,1.82-3.73.05-.65,0-1.87-.89-2.76l-19.49-19.49c-.75-.75-1.72-.91-2.4-.91Z"/>
              </g>
            </g>
          </g>
        </g>
      </g>
    </g>
    <path class="cls-3" d="M25.84,332.39l-1.09-32.83s34.84,2.65,52,2.01c0,0-.54-21.59-1.64-42.73l47.8,1.26s-4.74,29.36-5.11,40.4l66.05-4.42-.73,32.51c-32.11,4.42-42.7,8.21-65.69,9.79,0,0-3.7,57.13-17.57,86.8l-76.72-13.05s36.27-48.82,42.84-75.34c0,0-29.56-2.53-40.14-4.42ZM132.74,445.11l15.84-25.61c17,10.73,69.46,17.01,96.17,5.33l14.72,46.19c-10.2,5.37-76.71,8.19-126.73-25.9ZM163.78,345.34l100.72-.63c-6.2,22.41-12.77,37.88-32.11,61.87-1.46-15.47-2.55-18.94-5.84-26.51-24.81.32-32.45-.63-63.11-1.58l.34-33.15Z"/>
    <path class="cls-3" d="M558.51,487.2l13.7,52.69s-61.27,19.47-107.25,4.29c-21.75-7.18-39.97-26.61-46.86-35.15,15.86,56.96-7.05,138.72-81.39,138.02-54.26-.35-85.62-44.73-83.5-95.39,2.11-50.67,33.47-77.57,49.68-84.21,0,0-26.78,5.24-56.73,6.29l-1.41-48.92,100.42,5.59v38.09c-22.55,10.13-55.22,31.76-51.79,78.97,1.31,17.99,18.67,42.98,43.69,43.68,53.2,2.1,71.17-47.87,47.57-124.39l35.41-17.65s15.91,56.16,55.06,64.19c39.15,8.03,65.16-19.94,83.41-26.1ZM456.21,445.52l9.76-33.62,22.88,11.06-15.11,27.46s-9.86-3.8-17.53-4.9ZM520.43,473.05s-9.19-5.7-16.34-7.99l16.58-29.53,20.46,15.42-20.7,22.1Z"/>
  </g>
</svg>