<?xml version="1.0" encoding="UTF-8"?>
<svg id="_レイヤー_2" data-name="レイヤー 2" xmlns="http://www.w3.org/2000/svg" xmlns:xlink="http://www.w3.org/1999/xlink" viewBox="0 0 421.03 102.09">
  <defs>
    <style>
      .cls-1 {
        mask: url(#mask);
      }

      .cls-2 {
        filter: url(#luminosity-noclip);
      }

      .cls-3 {
        fill: #be1a31;
      }
    </style>
    <filter id="luminosity-noclip" x="0" y="-1.93" width="421.03" height="106.06" color-interpolation-filters="sRGB" filterUnits="userSpaceOnUse">
      <feFlood flood-color="#fff" result="bg"/>
      <feBlend in="SourceGraphic" in2="bg"/>
    </filter>
    <mask id="mask" x="0" y="-1.93" width="421.03" height="106.06" maskUnits="userSpaceOnUse">
      <g class="cls-2">
        <g>
          <path d="M337.47,97.59c-.33.38-.89.39-1.24.02l-2.64-2.78c-.35-.37-.24-.79.25-.94,0,0,1.28-.4,1.68-.02.92.86,1.45,2.15,2.02,3.33.1.2-.06.38-.06.38Z"/>
          <path d="M155.06,96.9c.17-.67.81-.98,1.44-.67,0,0,1.27.61,1.72,1.18.21.26-.17,1.34-.58,1.67-1.16.93-2.65,1.83-2.65,1.83-.59.36-.94.1-.77-.57l.85-3.44Z"/>
          <path d="M230.58,101.95c.25-.7,1.08-1.27,1.83-1.26,0,0,1.5.03,1.54.26.21,1.11.11,2.09.11,2.09-.08.75-.73,1.16-1.44.92,0,0-1.16-.39-2.3-.96-.1-.05.26-1.06.26-1.06Z"/>
          <path d="M322.64,69.84c.04.08-.05.15-.2.14h-.83c-.15,0-.26-.08-.25-.16h0c.41,0,.82,0,1.23.01h.04Z"/>
          <path d="M219.76,46.09c-.05.07-.05.02.02-.1,0,0,.2-.39.35-.64h0c.12.06.13.19.04.3,0,0-.2.22-.39.43l-.02.02Z"/>
          <path d="M306.79,15.19c.3-.13.64-.1.76.07.11.17.08.6-.24.66,0,0-.51.1-1.06.18-.03,0-.2-.52-.16-.54.38-.23.71-.37.71-.37Z"/>
          <path d="M168.36,38.33c-.19-.8.02-.89.47-.2,0,0,.82,1.27.92,1.59.52,1.83,1.12,4.07,1.12,4.07.21.8-.16,1.17-.82.83l-.15-.46c-.55-1.66-1.53-5.84-1.53-5.84Z"/>
          <path d="M209.32,45.99c0-.2.12-.25.27-.12,0,0,.25.23.23.33-.05.31-.15.57-.15.57-.07.19-.22.25-.32.14v-.11c-.04-.3-.03-.81-.03-.81Z"/>
          <path d="M235.31,25.28s.41-.66.84-1.51c.43-.85,1.86-2.77,2.23-2.4.36.37.64,1.74-.19,2.23,0,0-1.41.83-2.88,1.68h0Z"/>
          <path d="M110.06,93.59c.4.55.17,1.03-.5,1.09,0,0-1.23.09-1.75-.09-.32-.11-.71-1.02-.64-1.08.5-.43,1.15-1.06,1.66-.99.51.07,1.24,1.07,1.24,1.07Z"/>
          <path d="M314.79,47.25c-.74.53-1.77.36-2.29-.39,0,0-.25-.36-.17-.96.06-.47.14-.51.14-.51.82-.39,1.88-.08,2.34.68l.08.73c.04.34-.11.44-.11.44Z"/>
          <path d="M280.53,6.79c-.76.32-1.58-.06-1.84-.84,0,0-.2-.6.06-.83.5-.46,1.43-.67,2.14-.59.3.03.82,1.43.68,1.56-.6.52-1.05.71-1.05.71Z"/>
          <path d="M333.11,72.13c.74-.38,1.55-.04,1.81.75,0,0,.3.92.5,1.95l.02.13c-.67.27-1.45-.14-1.74-.91,0,0-.27-.72-.58-1.81-.03-.1,0-.11,0-.11Z"/>
          <path d="M154.71,50.26c-.18-.69.21-1.34.88-1.46l.02.05c.26.88.37,1.4.37,1.4.15.7-.19,1.34-.75,1.43l-.05-.11c-.31-.75-.47-1.33-.47-1.33Z"/>
          <path d="M279.99,47.08c-.27-.94.23-1.57,1.12-1.42l.11.27c.36.93.41,1.18.41,1.18.17.96-.23,1.78-.89,1.82l-.1-.2c-.43-.9-.65-1.66-.65-1.66Z"/>
          <path d="M313.08,52.5c.2-.15.55-.13.78.04.23.17.55.73.24.9l-.26-.03-.48-.06c-.51-.19-.47-.7-.27-.84Z"/>
          <path d="M118.53,54.13c-.49-.42-.43-1.03.12-1.35,0,0,.21-.12.72-.26l.16-.04c.28.34.2,1.02-.18,1.5l-.45.23c-.18.09-.36-.07-.36-.07Z"/>
          <path d="M245.95,35.52c-.13-.18,0-.85.3-1.49.29-.64,1.38-1.72,1.84-1.12l-.12.35c-.37,1.03-.64,1.47-.64,1.47-.5.81-1.25.98-1.37.79Z"/>
          <path d="M167.44,21.11c.77.03.99.53.48,1.11,0,0-.02.03-.27.04-.89.03-1.27,0-1.27,0-.77-.07-1.26-.54-1.09-1.06l.21-.02c.88-.1,1.95-.06,1.95-.06Z"/>
          <path d="M201.1,90.42c.32.29.44.73.27.97-.17.24-.95.41-1.41-.06l-.17-.51-.13-.39c.21-.54,1.12-.3,1.44-.01Z"/>
          <path d="M89.48,70.98c-.05-.04-.07-.1-.04-.13.03-.03.09-.02.12.04,0,0,.02.05.06.13,0,0-.04.04-.04.04-.07-.05-.1-.09-.1-.09Z"/>
          <path d="M280.75,100.81c-.61.02-1.11-.23-1.11-.55,0-.32.8-.99,1.78-.92,0,0,.09,0,.97.24l.23.06c.11.61-1.25,1.15-1.87,1.17Z"/>
          <path d="M208.34,99.32c.61.94.21,1.83-.9,1.99,0,0-.5.07-1.23-.14l-.47-.13c-.35-.72.14-1.64,1.1-2.05l.87-.02c.38,0,.62.36.62.36Z"/>
          <path d="M201.97,47.23c.49.23.66.84.37,1.35,0,0,0,0-.06-.02-.37-.13-.75-.34-1.01-.63-.08-.09.24-.75.33-.74l.37.04Z"/>
          <path d="M262.3,46.76c.35-.71.69-.64.75.14,0,0,.09,1.12,0,1.75l-.05.34c-.37.32-.81.02-.97-.68v-.63c-.01-.35.27-.92.27-.92Z"/>
          <path d="M254.71,52.16c.16-.25.56-.42.9-.37.33.05.79.54.37,1.02l-.48.22-.37.17c-.54-.09-.58-.79-.42-1.04Z"/>
          <path d="M203.92,28.06c-.26.37-.96.32-1.55-.13l.04-.08c.28-.54.62-1.14,1.11-1.45l.24-.15c.57.31.42,1.44.16,1.82Z"/>
          <path d="M215.67,72.25c.74-.05,1.45.26,1.57.68.12.42-.61,1.59-1.87,1.73l-1.02-.3-.52-.16c-.33-.99,1.11-1.9,1.85-1.95Z"/>
          <path d="M215.74,30.76s.07,0,.09.05h0s-.08.06-.13.08h0s.02-.11.05-.13Z"/>
          <path d="M171.07,45.24c-.74-.86-.41-1.58.72-1.59,0,0,.26,0,.53.3l.51.56c.3.84.08,1.65-.5,1.78l-.29-.21c-.62-.44-.96-.84-.96-.84Z"/>
          <path d="M236.71,55.34c-.04-.19.06-.32.22-.29l.07.05s.08.2.05.21c-.08.05-.23.12-.27.08-.07-.05-.07-.06-.07-.06Z"/>
          <path d="M317.53,97.28c-.66.29-1.27-.05-1.37-.74l.2-.3.21-.32c.52-.16,1.09.15,1.25.68l-.15.36-.14.32Z"/>
          <path d="M228.1,9.01c-.05-.32.18-.58.51-.56l.11.11.1.09c-.02.24-.23.47-.47.52l-.13-.09-.11-.08Z"/>
          <path d="M276.83,45.04c-.37-.36-.27-.76.21-.9l.21.08.23.09c.18.28.1.66-.17.85l-.2-.04c-.25-.05-.28-.08-.28-.08Z"/>
          <path d="M292.2,6.15c.49-.05.97.09,1.05.31.08.22-.14.82-.66.89l-.45-.06c-.09-.01-.26-.75-.11-.93l.18-.22Z"/>
          <path d="M257.14,60.17c-.25-.11-.42-.36-.36-.55.06-.19.61-.55,1.12-.44l.27.29.16.17c-.17.5-.93.64-1.18.53Z"/>
          <path d="M219.35.7c.16-.22.4-.31.54-.2.14.11.19.65-.1,1.04l-.32.3-.04.04c-.33-.26-.23-.97-.08-1.18Z"/>
          <path d="M218.55,37.9c-.4-.44-.32-1.08.17-1.42h.59c.25.42.18,1.04-.16,1.4h-.32l-.28.02Z"/>
          <path d="M208.46,81.4c-.09.19-.29.22-.45.07v-.11l-.02-.12c.1-.14.29-.17.42-.06l.03.12.03.11Z"/>
          <path d="M256.06,72.57c-.52.35-1.21.1-1.54-.56l.14-.19.28-.39c.55-.26,1.14-.06,1.31.43l-.1.39-.09.32Z"/>
          <path d="M151.22,25.95c-.75,0-1.22-.76-1.03-1.71l.2-.05c.41-.1,1.04.02,1.32.3.19.2.09,1.02-.15,1.21l-.34.26Z"/>
          <path d="M243.41,99.36s-.37.11-.85.22c0,0-.09.02-.57.13h0c-.03-.11.35-.24.84-.29,0,0,.09,0,.59-.06h0Z"/>
          <path d="M290.13,16.89s-.05-.07-.02-.1h.03s.06.02.06.03c0,.03-.02.07-.04.07h-.03Z"/>
          <path d="M171.13,93.24c.16.32,0,.75-.38.96l-.06-.06-.2-.21c-.13-.32-.01-.68.26-.81l.2.06.18.06Z"/>
          <path d="M297.69,8.85c-.48-.36-.42-.91.14-1.24l.27.08.26.07c.19.43.12.97-.15,1.21l-.19-.04-.34-.08Z"/>
          <path d="M155.34,58c.23-.22.58-.18.77.09l-.02.17-.02.15c-.22.14-.55.1-.73-.08v-.33Z"/>
          <path d="M305.2,79.11c.11.07.19.16.17.21-.02.05-.15.13-.26.08l-.08-.07s.05-.19.11-.21l.07-.02Z"/>
          <path d="M313.05,92.84c-.03-.09-.03-.18,0-.2.03-.02.13-.05.16,0,.02.04.02.19-.05.24l-.05-.02h-.05Z"/>
          <path d="M222.65,76.55c-.04.12-.24.13-.44.02l-.1-.12s.08-.28.16-.3l.16-.04c.2.03.26.33.22.45Z"/>
          <path d="M217.15,40.29c.03.47-.14.79-.38.71-.24-.08-.67-.54-.58-.88l.18-.25c.05-.07.56.03.64.18l.14.25Z"/>
          <path d="M248.37,8.82c-.1-.1-.12-.23-.05-.31.07-.07.38-.09.57.08l.1.2.03.06c-.17.17-.56.06-.65-.03Z"/>
          <path d="M202.9,42.34c-.04-.06-.02-.14.04-.18.06-.04.3-.03.4.09l-.02.07-.03.1c-.14.07-.35-.02-.39-.08Z"/>
          <path d="M191.89,2.9c-.24-.08-.19-.45.09-.82l.25-.11c.14-.06.6.16.6.27l.02.3c-.13.34-.74.44-.97.36Z"/>
          <path d="M223.78,8.92c.04-.17.39-.41.79-.53l.1.12.17.2c0,.37-.17.7-.39.73s-.7-.34-.66-.52Z"/>
          <path d="M174.72,29.84c-.1-.14.06-.35.35-.46l.2.02c.1.01.26.32.22.42l-.08.19c-.2.16-.58-.03-.68-.18Z"/>
          <path d="M306.7,22.78c-.08-.2-.07-.42.01-.48.08-.06.35-.12.41,0,.06.11.05.47-.15.55l-.16-.04-.11-.03Z"/>
          <path d="M292.52,10.38c.64.11,1.22.72,1.29,1.36l-.26.26-.23.23c-.63-.12-1.2-.72-1.27-1.34l.25-.27.22-.24Z"/>
          <path d="M144.74,64.9c-.54.09-.94-.06-.9-.33.05-.27.49-.79.91-.74l.34.15c.07.03.06.63-.08.73l-.27.19Z"/>
          <path d="M304.37,52.33c-.18-.06-.22-.24-.09-.41h.1l.09-.02c.11.12.15.3.08.4h-.07l-.11.02Z"/>
          <path d="M232.68,83.13c-.49.02-.83-.15-.77-.39.06-.24.51-.7.89-.62l.28.17c.08.05,0,.6-.13.68l-.26.15Z"/>
          <path d="M214.3,25.21s.14-.04.24,0v.05l.02.07c-.05.09-.13.14-.18.11-.05-.03-.11-.19-.08-.23Z"/>
          <path d="M258.6,82.6c-.05-.11.08-.36.28-.55l.13.03.17.04c.15.23.17.48.04.56-.12.09-.58.02-.63-.09Z"/>
          <path d="M261.12,68.26c.03.18-.07.34-.22.37-.16.03-.54-.2-.58-.55l.07-.3.02-.09c.33-.03.68.4.71.57Z"/>
          <path d="M207.25,44.72c-.06.03-.14,0-.16-.07-.03-.07,0-.29.12-.36l.03.03.09.08c.06.13-.02.3-.08.32Z"/>
          <path d="M188.99,75.51c-.36-.08-.65-.44-.65-.8l.16-.18.09-.11c.36.09.66.45.67.8l-.15.17-.11.12Z"/>
          <path d="M106.29,62.39c-.1-.25.02-.59.28-.74l.05.05.2.19c.15.28.06.57-.19.65l-.17-.07-.16-.07Z"/>
          <path d="M244.86,3.36c-.03-.13-.02-.25.03-.28.05-.03.2-.05.23.01.03.07.01.28-.11.32l-.09-.03-.06-.02Z"/>
          <path d="M302.37,73.37s-.07-.07-.04-.15l.04-.06s.12-.02.12,0l.03.07c.01.08-.1.14-.15.14Z"/>
          <path d="M78.45,63.19c-.36-.2-.54-.68-.39-1.08l.25-.15.15-.09c.36.24.55.74.42,1.11l-.23.11-.2.09Z"/>
          <path d="M306.2,70.36c.3-.28.84-.33,1.19-.11v.21l.02.23c-.3.27-.83.32-1.18.11l-.02-.21-.02-.23Z"/>
          <path d="M152.1,69.8c-.24-.1-.36-.28-.28-.39.08-.11.44-.25.61-.06l.12.2s-.16.28-.23.28l-.22-.02Z"/>
          <path d="M269.32,40.66s.03,0,.04.02c0,.01,0,.05-.04.06h-.02l-.02-.02s.02-.06.04-.07Z"/>
          <path d="M218.66,53.36s-.01-.09.02-.11h.06s.01.1-.02.12h-.06Z"/>
          <path d="M313.98,51.56c-.06.14-.27.14-.48,0l-.12-.17c-.05-.07.04-.36.09-.36l.23-.02c.26.03.33.41.28.54Z"/>
          <path d="M271.9.5s.07.04.06.08c0,.04-.09.11-.16.07l-.05-.05-.02-.02c.01-.05.13-.09.17-.08Z"/>
          <path d="M188.63,26.07c-.31.23-.76.15-.98-.17v-.22c0-.11.4-.36.57-.32.19.04.45.35.43.53l-.02.18Z"/>
          <path d="M170.2,72.34c-.12-.08-.19-.2-.15-.28.04-.07.35-.14.6.01l.2.17.02.02c-.12.19-.55.16-.67.08Z"/>
          <path d="M297.44,100.61c-.1-.15-.12-.29-.04-.32.08-.03.32.03.37.19v.14s-.18.11-.21.09l-.12-.1Z"/>
          <path d="M259,30.05s-.02-.02-.02-.04c0-.02,0-.06,0-.04,0,.02.02.07.02.07Z"/>
          <path d="M166.08,16.16c-.08-.06-.12-.19-.08-.29h.05c.05-.03.17.04.18.09.01.05-.05.17-.1.18l-.05.02Z"/>
          <path d="M263.21,37.98s-.03-.04-.02-.06c.01-.01.05-.02.07,0v.03s-.02.04-.02.04h-.02Z"/>
          <path d="M123.5,24.37c.05-.16.14-.32.21-.34.07-.02.23.01.23.13,0,.11-.15.4-.33.38l-.05-.08-.06-.09Z"/>
          <path d="M165.16,16.25c-.02.07-.07.12-.1.1-.04-.02-.09-.11-.05-.17l.05-.04s.1.03.1.05v.06Z"/>
          <path d="M300.94,57.21c-.05.07-.25.1-.46.07l-.09-.1-.07-.09c.04-.2.18-.33.31-.28.13.04.36.33.31.4Z"/>
          <path d="M139.6,30.8s.11-.17.17-.37c.07-.2.29-.71.34-.67s.07.26-.07.43c-.13.17-.47.62-.44.62Z"/>
          <path d="M135.56,40.75c.03.08,0,.17-.07.21-.07.03-.24-.05-.28-.24v-.2c.13-.04.32.16.35.24Z"/>
          <path d="M251.11,56.28c0,.09-.05.13-.13.09-.08-.04-.09-.11-.02-.16.07-.05.14-.02.15.07Z"/>
          <path d="M111.6,83.4s0-.02.02-.03h.02s0,.03,0,.04c-.01,0-.04,0-.04,0Z"/>
          <path d="M159.61,98.46c-.05.05-.24.06-.41.02l-.07-.1-.05-.07c.07-.17.21-.27.32-.21.11.05.26.31.21.36Z"/>
          <path d="M196.02,33.79s.03-.09.1-.12h.07s.06.08.05.09l-.04.06c-.06.05-.16,0-.18-.03Z"/>
          <path d="M145.7,85.96c.01-.1.1-.13.19-.06.09.07.08.15-.03.18-.1.03-.18-.02-.16-.12Z"/>
          <path d="M211.04,71.03s-.07.02-.08-.06l.03-.04.03-.04c.07-.02.06.09.03.14Z"/>
          <path d="M212.74,57.62c-.06.08-.12.07-.15-.03-.02-.09.02-.16.1-.14.08.02.1.09.05.17Z"/>
          <path d="M199.66,54.04c.07-.1.16-.08.19.04.03.11-.02.19-.13.17-.1-.02-.13-.11-.06-.21Z"/>
          <path d="M190.39,66.69s.03-.02.04,0c.01.02,0,.04-.02.04-.02,0-.03-.02-.02-.04Z"/>
          <path d="M186.59,82.33s.02.05,0,.07c-.02.02-.07.03-.06,0,0-.04.05-.08.07-.06Z"/>
          <path d="M160.93,87.91s-.07-.03-.06-.08c.02-.05.05-.06.09-.01.03.04.02.08-.03.09Z"/>
          <path d="M259.1,96.41c.07,0,.09.05.04.11-.04.06-.1.05-.12,0-.02-.06.01-.11.08-.1Z"/>
          <path d="M180.29,82.68c-.05-.03-.09-.11-.09-.17,0-.06.13-.18.26-.13l.05.09.04.08c-.04.14-.21.16-.26.13Z"/>
          <path d="M251.47,80.62s.03.06,0,.08c-.02.02-.07.04-.08,0,0-.04.04-.1.07-.08Z"/>
          <path d="M87.24,36.98c.06.02.05.07,0,.1-.06.03-.1,0-.1-.04,0-.05.05-.08.1-.05Z"/>
          <path d="M272.56,20.84s.05.04.02.08c-.03.04-.06.03-.07-.01s0-.08.05-.07Z"/>
          <path d="M137.14,76.75c0-.08.08-.07.17.02l.03.09v.03c-.1.07-.2-.07-.2-.14Z"/>
        </g>
      </g>
    </mask>
  </defs>
  <g id="img">
    <g class="cls-1">
      <g>
        <path class="cls-3" d="M183.89,91.03c.59.06,1.19-.07,1.78-.04s1.17.15,1.76.15,1.18.1,1.77.07,1.17-.23,1.75-.29,1.17-.08,1.76-.16,1.31-.07,1.89-.18c-.4-.35-.83-.83-1.19-1.16-.4-.36-.89-.58-1.24-.91-.4-.37-.75-.68-1.09-1-.57.06-1.12-.11-1.69-.08s-1.14.26-1.71.27-1.14-.18-1.71-.21-1.16.15-1.73.09c-.61-.06-1.19-.31-1.78-.42s-1.23-.05-1.82-.19-1.17-.38-1.73-.56-1.15-.42-1.7-.65-1.11-.51-1.64-.79-1.04-.63-1.54-.97c-.51.03-1.09.15-1.71.19-.54.03-1.11.02-1.72.05-.55.03-1.12.03-1.72.07.44.45.9.88,1.39,1.29s1.02.74,1.54,1.1c.5.35,1.01.69,1.55,1s1.1.53,1.67.79,1.08.59,1.66.8,1.14.48,1.73.66,1.2.3,1.8.43,1.19.34,1.8.44,1.23.13,1.85.19Z"/>
        <path class="cls-3" d="M199.06,96.93c-.58.15-1.11.48-1.7.6s-1.2.06-1.79.16-1.15.39-1.74.47-1.2.05-1.79.11-1.2-.04-1.79,0-1.18.18-1.78.19-1.19.12-1.79.11-1.19-.13-1.78-.17-1.17-.24-1.77-.3c-.61-.06-1.23-.01-1.84-.11s-1.24-.05-1.85-.17-1.14-.53-1.74-.69-1.25-.1-1.84-.28-1.17-.38-1.75-.6-1.11-.54-1.68-.79-1.1-.54-1.65-.82-1.14-.48-1.67-.8-1.07-.62-1.58-.98c-.47-.33-.77-.89-1.23-1.25s-1.06-.53-1.49-.92-.8-.83-1.21-1.25-.64-.97-1.01-1.41-.83-.81-1.17-1.28c-.46-.64-.94-1.19-1.34-1.87-.66.04-1.24-.12-1.89-.08s-1.24.17-1.88.2c.33.67.51,1.36.89,2s.79,1.29,1.22,1.89c.38.54.86,1.01,1.28,1.51s.96.91,1.41,1.38.84,1.02,1.33,1.46,1.1.74,1.61,1.15,1.03.82,1.56,1.19c.51.35.91.86,1.43,1.17s1.16.46,1.69.75,1.03.69,1.58.95,1.15.44,1.72.67,1.12.51,1.7.71,1.21.26,1.79.43,1.15.45,1.74.6,1.24.1,1.84.21,1.16.5,1.77.59,1.24.06,1.84.13c.58.06,1.15.11,1.73.15s1.16-.05,1.74-.04,1.15-.03,1.73-.03,1.16.21,1.74.18,1.14-.25,1.72-.29,1.16.02,1.74-.04,1.13-.29,1.7-.38,1.14-.18,1.71-.29,1.17-.06,1.73-.18,1.1-.37,1.66-.51c.63-.16,1.25-.37,1.87-.55s1.24-.38,1.86-.58,1.23-.33,1.84-.56c-.44-.25-.81-.55-1.24-.82s-.82-.6-1.24-.88-.93-.39-1.34-.68c-.43.14-.87.15-1.31.27s-.88.22-1.32.33Z"/>
        <path class="cls-3" d="M166.48,84.57c-.69.04-1.34,0-2.05.04s-1.35.11-2.05.15c.21.34.46.55.69.87.39.54.66,1.17,1.1,1.68s1.02.87,1.5,1.33.87,1.02,1.39,1.45,1.11.75,1.66,1.13c.48.33.91.73,1.41,1.03s1.07.46,1.59.72.95.72,1.48.95,1.13.32,1.67.52,1.05.55,1.6.72,1.19.08,1.75.22,1.09.44,1.66.55,1.15.16,1.73.25,1.15.21,1.72.28c.57.06,1.15-.1,1.72-.06s1.13.14,1.7.15,1.14.21,1.72.2,1.15-.04,1.72-.07,1.13-.23,1.7-.28,1.15,0,1.72-.08,1.1-.37,1.66-.47,1.17,0,1.72-.12,1.07-.47,1.62-.61c.39-.1.74-.1,1.13-.21-.61-.45-1.1-1-1.67-1.45s-1.25-.8-1.81-1.27c-.59.13-1.15.18-1.74.28s-1.2.1-1.8.18-1.18.35-1.78.4-1.21.04-1.81.06-1.21-.09-1.81-.09-1.21.07-1.81.03-1.2-.1-1.8-.16c-.58-.06-1.15-.17-1.72-.26s-1.16-.13-1.72-.25-1.14-.23-1.7-.38-1.1-.37-1.65-.55-1.11-.36-1.64-.58-1.02-.55-1.54-.81-.99-.6-1.49-.89-1.11-.42-1.58-.75c-.52-.36-.99-.81-1.48-1.21s-.99-.81-1.44-1.26-.85-.88-1.25-1.37Z"/>
        <path class="cls-3" d="M240.71,36c-.04.24.03.51,0,.75.58.19,1.16.43,1.71.67s1.07.35,1.6.65c.1-.53.16-.94.25-1.47.1-.58.2-1.18.29-1.8s.15-1.19.23-1.81.35-1.17.42-1.79.05-1.21.11-1.83.03-1.21.09-1.83.31-1.19.36-1.8-.01-1.22.03-1.83-.03-1.22,0-1.83.17-1.21.21-1.82.19-1.21.22-1.82-.13-1.23-.1-1.84.28-1.21.31-1.82-.1-1.23-.08-1.83.05-1.22.07-1.83.08-1.22.09-1.83.13-1.23.14-1.83-.21-1.23-.2-1.83.1-1.23.1-1.83-.13-1.23-.13-1.82c0-.63.17-1.32.17-1.91-.85-.27-.92.16-1.8.17s-.95-.37-1.8-.09c0,.58-.02,1.22-.02,1.84,0,.58.02,1.18.01,1.79s-.11,1.18-.11,1.79.22,1.19.21,1.8-.04,1.19-.05,1.8-.23,1.19-.24,1.79.08,1.2.06,1.8-.06,1.19-.08,1.79,0,1.2-.03,1.79,0,1.2-.03,1.8-.15,1.19-.19,1.79-.24,1.19-.28,1.78.16,1.21.12,1.81-.09,1.2-.14,1.79-.32,1.18-.38,1.77,0,1.21-.06,1.8-.15,1.2-.22,1.78-.06,1.21-.14,1.8-.09,1.21-.18,1.79c-.09.61-.43,1.16-.53,1.73Z"/>
        <path class="cls-3" d="M229.87,35.85c.61-.09,1.19-.05,1.8-.1s1.25-.08,1.85-.08c.05-.27.15-.57.19-.84.1-.58.19-1.18.28-1.8.09-.58-.03-1.21.05-1.83s.38-1.16.45-1.78.05-1.21.11-1.82.06-1.21.12-1.82.13-1.2.17-1.81.17-1.2.21-1.81-.06-1.22-.02-1.82.25-1.2.28-1.81-.16-1.22-.13-1.83.31-1.2.34-1.81.06-1.22.08-1.82,0-1.22.02-1.82-.2-1.23-.18-1.83.11-1.22.12-1.82.08-1.22.09-1.82.01-1.23.02-1.82,0-1.23,0-1.82c0-.62.02-1.35.01-1.93-.85-.27-.93.08-1.82.09s-.94-.21-1.78.07c0,.58-.1,1.17-.1,1.79,0,.58.23,1.18.23,1.79s-.18,1.18-.19,1.79-.1,1.18-.11,1.78.03,1.18.01,1.79-.04,1.18-.06,1.79.04,1.19.02,1.79,0,1.19-.02,1.78-.07,1.19-.1,1.78-.04,1.19-.07,1.79-.03,1.2-.06,1.79-.18,1.19-.23,1.78-.19,1.19-.23,1.78.17,1.22.12,1.81-.17,1.19-.23,1.78-.06,1.2-.12,1.79-.36,1.17-.43,1.75-.22,1.18-.3,1.76c-.09.61-.01,1.22-.11,1.79-.09.55-.19,1.06-.29,1.62Z"/>
        <path class="cls-3" d="M235.63,35.15c-.03.19-.21.34-.24.53.6.04,1.17.19,1.76.28s1.18.07,1.76.21c.03-.17-.05-.3-.02-.47.1-.57.27-1.14.36-1.74s.3-1.14.38-1.74-.03-1.19.04-1.79.15-1.17.21-1.76.02-1.18.08-1.78.1-1.17.15-1.77.13-1.17.18-1.77.27-1.16.31-1.76.1-1.18.14-1.77-.02-1.19,0-1.78,0-1.19.03-1.78-.02-1.19,0-1.78.3-1.18.32-1.77.01-1.19.03-1.78.07-1.19.08-1.78-.1-1.2-.09-1.78.15-1.19.15-1.78-.15-1.2-.15-1.78.02-1.2.02-1.78c0-.61.04-1.34.03-1.92-.85-.26-.93.29-1.82.3s-.91-.31-1.75-.02c0,.59.07,1.11.08,1.74,0,.6-.25,1.21-.25,1.84s.06,1.21.05,1.84.04,1.22.03,1.84.09,1.22.07,1.84-.16,1.22-.18,1.83-.11,1.22-.14,1.83.09,1.23.06,1.84-.05,1.22-.08,1.84-.19,1.22-.23,1.83-.07,1.23-.11,1.84.07,1.24.03,1.85-.06,1.23-.1,1.84-.12,1.23-.18,1.83-.08,1.23-.14,1.84-.1,1.23-.17,1.83-.38,1.2-.45,1.8.08,1.26-.01,1.85c-.09.62-.15,1.24-.25,1.82Z"/>
        <path class="cls-3" d="M226.99,71.13c.3-.55.75-1.03,1.04-1.58s.46-1.18.75-1.74.65-1.08.92-1.65.56-1.13.81-1.7c.27-.6.48-1.22.74-1.82s.54-1.19.79-1.8.54-1.19.77-1.8.54-1.2.76-1.81.36-1.28.57-1.9c-.55-.21-1.15-.42-1.74-.55s-1.11-.07-1.72-.13c-.2.57-.36,1.08-.57,1.65s-.55,1.09-.76,1.65-.41,1.14-.64,1.7-.56,1.08-.8,1.63-.3,1.19-.55,1.74c-.24.55-.64,1.04-.9,1.58s-.57,1.06-.85,1.6-.55,1.07-.83,1.61-.44,1.14-.73,1.66c-.3.52-.72.97-1.03,1.49s-.59,1.05-.91,1.56-.59,1.05-.92,1.55-.81.9-1.16,1.39c-.35.49-.56,1.09-.93,1.58s-.74.97-1.12,1.44-.9.83-1.29,1.29-.59.96-1,1.4c.59.26,1.1.4,1.68.62s1.16.62,1.74.83c.35-.4.68-.85,1.01-1.25s.66-.82.99-1.24.57-.9.88-1.32.85-.69,1.16-1.12c.37-.51.61-1.12.96-1.64s.62-1.1.96-1.64.84-.96,1.17-1.51.41-1.22.73-1.77Z"/>
        <path class="cls-3" d="M235.81,56.16c-.21.62-.32,1.27-.54,1.88s-.47,1.22-.7,1.83-.5,1.2-.75,1.81-.56,1.18-.81,1.78-.55,1.18-.82,1.78c-.26.59-.56,1.16-.84,1.74s-.54,1.16-.83,1.74-.62,1.12-.93,1.69-.58,1.15-.89,1.71c-.32.56-.51,1.2-.84,1.76s-.87.99-1.21,1.53-.64,1.13-1,1.67-.65,1.12-1.03,1.65c-.37.52-.89.93-1.28,1.44s-.75,1.03-1.15,1.53-.59,1-1.01,1.49c.66.2,1.17.38,1.76.53.68.18,1.29.36,1.87.49.46-.57.95-1.09,1.39-1.67s.73-1.28,1.15-1.87c.32-.44.63-.88.93-1.33s.66-.87.95-1.32.54-.94.83-1.4.69-.85.96-1.32.42-1.01.7-1.48c.32-.59.71-1.13,1.03-1.72s.68-1.16.98-1.75.6-1.2.88-1.8.43-1.27.7-1.88c.25-.54.54-1.06.78-1.6s.42-1.11.64-1.66.61-1.03.83-1.58.42-1.11.62-1.67.49-1.15.69-1.71c-.45-.46-1.06-.82-1.54-1.2s-1-.78-1.53-1.08Z"/>
        <path class="cls-3" d="M228.69,54.47c-.65.02-1.36.03-2.04.13-.64.09-1.34.24-2.01.39-.22.54-.31,1.22-.57,1.79-.25.54-.72.99-.99,1.56s-.33,1.19-.61,1.74-.73.99-1.03,1.53-.46,1.14-.76,1.67-.8.95-1.1,1.48-.44,1.16-.76,1.69-.68,1.03-1,1.54-.61,1.07-.93,1.58-.71,1.01-1.04,1.51-.8.95-1.13,1.45c-.35.53-.51,1.16-.84,1.65-.36.53-.72,1.03-1.06,1.5-.38.54-.77,1.01-1.1,1.46-.41.56-.88,1.04-1.21,1.45.52.33,1.1.65,1.63.95s1.11.49,1.65.76c.23-.24.55-.69,1.03-1.36.3-.41.6-.92.97-1.47.3-.45.67-.91,1.01-1.43.31-.47.71-.91,1.04-1.42.31-.48.55-1.02.87-1.53.3-.48.71-.92,1.02-1.43s.66-.96.97-1.47.43-1.11.73-1.62.7-.95,1-1.46.65-.98.94-1.49.33-1.16.61-1.68.6-1.02.88-1.53.53-1.06.79-1.58.54-1.05.8-1.57c.27-.54.7-.99.94-1.5.25-.56.35-1.16.56-1.68.24-.57.56-1.12.74-1.63Z"/>
        <path class="cls-3" d="M237.66,70.48c.62.08,1.29.11,1.92.18s1.24.23,1.87.27,1.27-.14,1.9-.11,1.25.15,1.88.18,1.26.06,1.88.07c.6,0,1.21.19,1.81.2s1.21-.08,1.82-.08,1.21-.08,1.82-.08,1.21.11,1.81.11,1.21-.02,1.82-.02,1.21-.14,1.82-.14,1.21.04,1.82.05,1.21,0,1.82.01,1.21.18,1.82.18,1.21-.1,1.82-.1,1.21-.04,1.82-.04,1.21.22,1.82.22,1.21-.06,1.82-.06,1.21,0,1.82.01c.41,0,1.01-.13,1.79-.12.52,0,1.12.02,1.79.03.55,0,1.15.13,1.79.13.56,0,1.16-.14,1.79-.14.57,0,1.17.11,1.79.11.57,0,1.17.1,1.78.11.58,0,1.17-.02,1.78-.02.58,0,1.18,0,1.79,0s1.18-.2,1.79-.2,1.18.22,1.79.22,1.18-.25,1.79-.25,1.18.07,1.79.07,1.18-.07,1.79-.07,1.19.22,1.79.22,1.19-.04,1.79-.04,1.19-.19,1.79-.19,1.19.13,1.79.13,1.19-.12,1.79-.12,1.19.04,1.79.04,1.19.19,1.79.19,1.19-.13,1.79-.13,1.19-.06,1.79-.06,1.19-.05,1.79-.05,1.19.17,1.79.17,1.19.07,1.79.07,1.19,0,1.79,0,1.19-.21,1.79-.21,1.19-.06,1.79-.06,1.19.2,1.79.2,1.2-.14,1.79-.14,1.2.04,1.79.04,1.2-.03,1.8-.03,1.2.05,1.8.05,1.2.03,1.8.03,1.2-.05,1.8-.05,1.2-.11,1.8-.11,1.2.08,1.79.08,1.2.15,1.79.15,1.2-.24,1.79-.24,1.2.19,1.79.19,1.2-.08,1.79-.08,1.2.05,1.79.05,1.2.13,1.79.13,1.2,0,1.79,0,1.2,0,1.79,0,1.2-.19,1.79-.19,1.2-.02,1.79-.02,1.2.05,1.79.05,1.2,0,1.79,0,1.2-.05,1.79-.05,1.21,0,1.79,0,1.21.09,1.79.09,1.21,0,1.8,0c.62,0,1.21.09,1.79.09.62,0,1.22-.09,1.79-.09.62,0,1.22,0,1.79,0,.63,0,1.23-.06,1.79-.06.64,0,1.24.16,1.79.16.67,0,1.27-.07,1.79-.07.77,0,1.37-.08,1.78-.08.45,0,1.08,0,1.83-.01.54,0,1.16-.09,1.83-.1.57,0,1.18-.05,1.83-.05.59,0,1.2.05,1.83.05.59,0,1.21.1,1.83.1s1.21-.17,1.83-.17,1.22.03,1.83.02,1.22,0,1.84-.01,1.23.08,1.84.08,1.23.13,1.84.13,1.24-.15,1.84-.15c.63,0,1.25.04,1.83.03.65,0,1.26.03,1.84.03.67,0,1.29.02,1.84.01.75,0,1.37-.12,1.83-.13.59-.01,1.19,0,1.78-.02s1.19-.03,1.78-.04,1.19-.11,1.78-.13,1.19.05,1.78.02,1.2-.03,1.79-.06,1.18-.17,1.77-.21,1.23-.01,1.82-.06c.2-.87-.07-.9-.16-1.79s.5-1.22-.12-1.86c-.51-.52-.83,0-1.56.05s-.71.3-1.43.34c-.76.04-.76.06-1.53.1s-.78-.22-1.54-.19c-.69.02-1.38.22-2.08.24s-1.39.08-2.08.1-1.39.01-2.08.02c-.45.01-1.07-.03-1.83-.02-.54,0-1.16-.05-1.83-.04-.57,0-1.18.06-1.83.07-.58,0-1.2.02-1.83.03-.59,0-1.2-.12-1.83-.12s-1.21.14-1.83.14-1.21-.08-1.83-.08-1.22.15-1.83.15-1.23-.09-1.83-.08-1.23-.06-1.83-.05-1.24-.04-1.83-.04c-.63,0-1.24.12-1.83.12-.65,0-1.26.11-1.83.11-.67,0-1.29.02-1.83.02-.75,0-1.37-.14-1.82-.13-.41,0-1.01-.06-1.79-.06-.52,0-1.12.23-1.79.23-.55,0-1.15.03-1.79.03-.56,0-1.16,0-1.79,0-.57,0-1.17-.08-1.79-.08-.57,0-1.17.06-1.78.06-.58,0-1.17-.2-1.78-.2-.58,0-1.18.06-1.78.06s-1.18.06-1.79.06-1.18-.11-1.79-.11-1.18.24-1.79.24-1.18.03-1.79.03-1.18-.13-1.79-.13-1.19-.1-1.79-.1-1.19-.06-1.79-.06-1.19.14-1.79.14-1.19.02-1.79.02-1.19.04-1.79.04-1.19-.08-1.78-.08-1.19.12-1.79.12-1.19-.02-1.79-.02-1.19-.1-1.79-.1-1.19.03-1.79.03-1.19.05-1.79.05-1.19.02-1.79.02-1.19-.13-1.79-.13-1.19.16-1.79.16-1.19-.16-1.79-.16-1.19.08-1.79.08-1.19-.12-1.79-.12-1.2.24-1.79.24-1.2-.09-1.79-.09-1.2-.05-1.8-.05-1.2.17-1.8.17-1.2-.18-1.8-.18-1.2.14-1.8.14-1.2.04-1.79.03-1.2-.03-1.79-.03-1.2,0-1.79,0-1.2-.02-1.79-.02-1.2-.15-1.79-.15-1.2.14-1.79.14-1.2.05-1.79.05-1.2-.01-1.79-.01-1.2-.27-1.79-.27-1.2.09-1.79.08-1.2,0-1.79,0-1.2-.03-1.79-.03-1.2.11-1.79.11-1.2.07-1.79.07-1.2.03-1.79.03-1.21.02-1.79.02-1.21-.16-1.79-.16c-.62,0-1.21.07-1.79.07-.62,0-1.21-.03-1.79-.04-.62,0-1.22-.15-1.79-.15-.63,0-1.23.05-1.79.05-.64,0-1.24.19-1.79.19-.67,0-1.27-.04-1.79-.04-.77,0-1.37.05-1.78.05-.6,0-1.21-.26-1.81-.26s-1.21.06-1.81.05-1.21.15-1.81.15-1.21-.24-1.81-.24-1.21.26-1.82.25-1.21-.19-1.81-.19-1.21.14-1.82.14-1.21-.21-1.81-.22-1.21.09-1.82.08-1.21.02-1.82.02-1.21-.07-1.81-.07-1.21-.01-1.81-.02-1.21.03-1.81.02-1.21.06-1.81.05c-.65-.01-1.3-.24-1.95-.26s-1.32.16-1.97.12-1.29-.25-1.94-.3-1.24.04-1.89-.03c-.24.53-.54,1-.83,1.6-.26.54-.62,1.11-.92,1.7Z"/>
        <path class="cls-3" d="M168.01,48.52c.5-.37,1.03-.69,1.56-1.03s1.08-.62,1.62-.92,1.11-.55,1.67-.81,1.09-.6,1.67-.83,1.17-.42,1.76-.61,1.19-.37,1.79-.52,1.19-.38,1.8-.5,1.24-.15,1.85-.24,1.24-.14,1.85-.2c.61-.07,1.22-.22,1.83-.26s1.23.05,1.85.05,1.23.02,1.84.05,1.22.16,1.83.23,1.21.16,1.82.26,1.26-.02,1.86.11,1.21.26,1.8.43,1.1.6,1.68.81,1.22.26,1.78.5c.56.23,1.14.46,1.68.72s1.08.58,1.61.88,1.03.66,1.54.99.98.72,1.48,1.08,1.01.68,1.49,1.06.95.76,1.41,1.16.82.91,1.26,1.33.96.77,1.38,1.21.77.95,1.16,1.41c.4.46.9.84,1.28,1.31s.68,1.01,1.04,1.5.66,1.02,1,1.52.64,1.03.96,1.54.76.98,1.07,1.5c.32-.58.57-1.25.9-1.87.31-.59.6-1.16.92-1.8-.34-.53-.55-1.08-.91-1.61s-.67-1.08-1.05-1.59-.94-.87-1.33-1.37-.81-.96-1.23-1.44c-.39-.45-.79-.9-1.2-1.35s-.77-.93-1.2-1.35-.9-.79-1.35-1.2-.77-.95-1.23-1.34-.97-.72-1.45-1.08-1-.67-1.5-1.01-.94-.77-1.46-1.08-1.15-.42-1.68-.71-1.07-.54-1.61-.8-1.03-.63-1.59-.86c-.57-.24-1.12-.56-1.7-.77s-1.16-.46-1.76-.64-1.24-.21-1.84-.36-1.22-.25-1.83-.37-1.23-.17-1.84-.25c-.6-.08-1.2-.23-1.8-.28s-1.22.03-1.82.01-1.21-.05-1.82-.04-1.22-.07-1.82-.03-1.21.11-1.81.18c-.75.07-1.47.22-2.19.33s-1.44.26-2.17.41c-1.13.27-1.16.15-2.28.44-.56.14-.52.28-1.08.45s-.61.04-1.17.25c-1.11.41-1.09.47-2.19.91-.72.34-1.5.6-2.21.96-.53.28-.43.47-.95.77s-.56.24-1.07.58c-.67.45-1.4.83-2.04,1.33-.52.39-.91.93-1.39,1.36s-1.08.73-1.54,1.19-.8,1.02-1.23,1.51-.81,1-1.21,1.51-.81,1.01-1.18,1.53c-.36.52-.71,1.04-1.03,1.58s-.64,1.08-.93,1.64-.7,1.07-.95,1.64-.37,1.21-.59,1.8-.39,1.2-.59,1.79c-.16.48-.31.96-.44,1.45s-.49,1.04-.6,1.54c.59.02,1.29,0,1.91.01s1.24.03,1.85.05c.17-.65.4-1.32.61-1.96.18-.53.26-1.1.46-1.62s.36-1.07.59-1.59.45-1.04.71-1.54.52-1.01.81-1.49.73-.87,1.06-1.33c.33-.47.61-.97.96-1.42s.75-.87,1.13-1.29.88-.74,1.28-1.14.78-.82,1.22-1.2.8-.82,1.26-1.17Z"/>
        <path class="cls-3" d="M379.97,73.22c-.41,0-1.01,0-1.79,0-.52,0-1.12-.05-1.79-.05-.55,0-1.15.13-1.79.13-.56,0-1.16-.07-1.79-.07-.57,0-1.17.12-1.79.12-.57,0-1.17-.27-1.78-.27-.58,0-1.17.25-1.78.25-.58,0-1.18-.24-1.79-.24s-1.18.23-1.79.23-1.18-.22-1.79-.22-1.18.26-1.79.26-1.18-.09-1.79-.09-1.19-.06-1.79-.06-1.19-.08-1.79-.08-1.19.09-1.79.09-1.19-.12-1.79-.12-1.19.14-1.79.14-1.19-.1-1.79-.1-1.19.19-1.79.19-1.19-.14-1.79-.14-1.19.02-1.79.02-1.19.03-1.79.03-1.19.11-1.79.11-1.19-.18-1.79-.18-1.19.13-1.79.13-1.19-.05-1.79-.05-1.19-.09-1.79-.09-1.19.03-1.79.03-1.19.1-1.79.1-1.2,0-1.79,0-1.2.03-1.79.03-1.2-.21-1.8-.21-1.2.18-1.8.18-1.2.05-1.8.05-1.2-.03-1.8-.03-1.2-.08-1.8-.08-1.2.13-1.79.13-1.2-.16-1.79-.16-1.2.13-1.79.13-1.2.02-1.79.02-1.2.01-1.79.01-1.2-.16-1.79-.16-1.2.08-1.79.08-1.2-.21-1.79-.21-1.2.07-1.79.07-1.2-.06-1.79-.06-1.2.09-1.79.09-1.2.08-1.79.08-1.2.02-1.79.02-1.2-.03-1.79-.03-1.21.02-1.79.02-1.21-.12-1.8-.12-1.21.09-1.8.09c-.62,0-1.21-.11-1.79-.11-.62,0-1.22.12-1.79.12-.62,0-1.22-.15-1.79-.15-.63,0-1.23.18-1.79.18-.64,0-1.24-.1-1.79-.1-.67,0-1.27.05-1.79.05-.77,0-1.37-.14-1.78-.14-.61,0-1.21.08-1.82.08s-1.21.09-1.82.09-1.21.06-1.82.06-1.21-.24-1.82-.24-1.21.15-1.82.14-1.21.03-1.82.03-1.21-.02-1.82-.03-1.21-.2-1.82-.21-1.21.22-1.82.22-1.21-.12-1.82-.13-1.21-.05-1.82-.05-1.21-.07-1.82-.08-1.21-.06-1.82-.07-1.21.11-1.82.1c-.57-.01-1.14-.1-1.72-.12s-1.14-.1-1.71-.13-1.15.06-1.72.02-1.15,0-1.72-.06-1.15-.06-1.72-.12-1.14-.29-1.71-.36c-.3.55-.59,1.14-.92,1.7s-.51,1.06-.84,1.61c.57.08,1.03.16,1.61.23s1.14.27,1.71.33,1.15.16,1.73.21,1.17-.09,1.75-.05,1.14.29,1.72.32,1.16-.05,1.74-.03,1.16.14,1.74.16c.61,0,1.22-.19,1.82-.18s1.21.19,1.82.19,1.22-.05,1.82-.04,1.21,0,1.82.01,1.21-.04,1.82-.04,1.21,0,1.82.01,1.21-.09,1.82-.08,1.21.05,1.82.06,1.21-.03,1.82-.03,1.21.15,1.82.16,1.21.08,1.82.08,1.21.05,1.82.06,1.21-.11,1.82-.1,1.21-.09,1.82-.08c.41,0,1.01.21,1.79.22.52,0,1.12-.18,1.79-.18.55,0,1.15,0,1.79,0,.56,0,1.16-.1,1.79-.1.57,0,1.17.12,1.79.12.57,0,1.17.11,1.78.11.58,0,1.17.02,1.79.02.58,0,1.18-.18,1.79-.18s1.18.07,1.79.07,1.18-.11,1.79-.11,1.18.08,1.79.08,1.18.07,1.79.07,1.19.01,1.79.01,1.19.04,1.79.04,1.19-.24,1.79-.24,1.19.19,1.79.19,1.19-.06,1.79-.06,1.19.11,1.79.11,1.19-.23,1.79-.23,1.19.09,1.79.09,1.19.02,1.79.02,1.19.17,1.79.17,1.19-.1,1.79-.1,1.19-.1,1.79-.1,1.19.09,1.79.09,1.19-.04,1.79-.04,1.19-.15,1.79-.15,1.19.03,1.79.03,1.19,0,1.79,0,1.2.17,1.79.17,1.2-.11,1.8-.11,1.2-.05,1.8-.05,1.2.21,1.8.21,1.2-.07,1.8-.07,1.2,0,1.8,0,1.2-.13,1.8-.13,1.2.02,1.79.02,1.2.13,1.79.13,1.2-.14,1.79-.14,1.2.11,1.79.11,1.2.1,1.79.1,1.2-.02,1.79-.02,1.2,0,1.79,0,1.2-.2,1.79-.2,1.2.22,1.79.22,1.2-.25,1.79-.25,1.2.07,1.79.07,1.2-.07,1.79-.07,1.2.22,1.79.22,1.2-.04,1.79-.04,1.21-.19,1.79-.19,1.21.13,1.8.13,1.21-.12,1.8-.12c.62,0,1.21.04,1.8.04.62,0,1.22.19,1.79.19.62,0,1.22-.13,1.79-.13.63,0,1.23-.07,1.79-.07.64,0,1.24-.06,1.79-.06.67,0,1.27.16,1.79.16.77,0,1.37.07,1.78.06.45,0,1.08,0,1.84,0,.55,0,1.16-.22,1.83-.22.57,0,1.19-.06,1.83-.06.59,0,1.2.2,1.84.2.6,0,1.21-.14,1.83-.15s1.22.04,1.84.03,1.22-.03,1.84-.04,1.23.05,1.84.05,1.23.02,1.84.02,1.24-.06,1.84-.06,1.24-.11,1.84-.12c.64,0,1.25.07,1.84.07.65,0,1.27.14,1.84.14.67,0,1.29-.25,1.84-.26.76,0,1.38.17,1.84.16.61-.02,1.22-.11,1.84-.13s1.23.02,1.84,0,1.23.09,1.84.07,1.22-.05,1.84-.07,1.22-.05,1.84-.08,1.21-.26,1.82-.3,1.16-.06,1.77-.11c.21-.86-.04-.87-.12-1.75s.19-.95-.17-1.76c-.6.05-1.17.16-1.77.2s-1.2.08-1.8.11-1.2-.03-1.8,0-1.2.04-1.8.06-1.2-.05-1.8-.04-1.2.12-1.8.13-1.2.03-1.8.05c-.45.01-1.08.08-1.83.08-.55,0-1.16-.15-1.83-.14-.57,0-1.18.08-1.83.08-.59,0-1.2.08-1.83.08-.59,0-1.21,0-1.83,0s-1.21.09-1.83.1-1.22.05-1.83.05-1.23-.05-1.84-.05-1.23-.1-1.84-.1-1.23.17-1.84.17-1.24-.03-1.84-.03c-.63,0-1.25,0-1.84.01-.65,0-1.26-.08-1.84-.08-.67,0-1.29-.14-1.84-.13-.75,0-1.38.16-1.83.16Z"/>
        <path class="cls-3" d="M420.69,77.82c-.62.05-1.33.28-1.94.32s-1.24.09-1.86.12-1.25-.19-1.87-.17-1.23.16-1.85.18-1.24.04-1.86.06-1.24-.05-1.86-.04-1.23.18-1.85.2c-.46.01-1.08-.1-1.84-.09-.55,0-1.16,0-1.84,0-.57,0-1.19-.04-1.84-.03-.59,0-1.2.1-1.84.1-.6,0-1.21.07-1.84.08s-1.22.06-1.84.07-1.22.03-1.84.03-1.23-.13-1.84-.13-1.23.11-1.84.11-1.24.05-1.84.05-1.25-.26-1.84-.26c-.64,0-1.25.29-1.84.29-.65,0-1.27-.06-1.84-.06-.68,0-1.29.03-1.84.04-.76,0-1.38-.07-1.83-.07-.41,0-1.01.04-1.79.04-.52,0-1.12-.08-1.79-.08-.55,0-1.15.02-1.79.02-.56,0-1.16.15-1.79.15-.57,0-1.17-.21-1.79-.2-.57,0-1.17.05-1.78.05-.58,0-1.17.02-1.79.02-.58,0-1.18-.09-1.79-.09s-1.18.07-1.79.07-1.18.11-1.79.11-1.18-.1-1.79-.1-1.18-.08-1.79-.08-1.19,0-1.79,0-1.19.25-1.79.25-1.19-.01-1.79-.01-1.19-.14-1.79-.14-1.19-.08-1.79-.08-1.19.03-1.79.03-1.19.16-1.79.16-1.19-.01-1.79-.01-1.19-.13-1.79-.13-1.19-.08-1.79-.08-1.19.11-1.79.11-1.19.07-1.79.07-1.19-.11-1.79-.11-1.19-.04-1.79-.04-1.19.25-1.79.25-1.19-.27-1.79-.27-1.19.02-1.79.02-1.2.24-1.79.24-1.2-.26-1.8-.26-1.2.19-1.8.19-1.2.06-1.8.06-1.2-.05-1.8-.05-1.2-.11-1.8-.11-1.2.11-1.8.11-1.2-.18-1.79-.18-1.2-.02-1.79-.02-1.2.15-1.79.15-1.2.09-1.79.09-1.2-.16-1.79-.16-1.2.1-1.79.1-1.2-.06-1.79-.06-1.2-.1-1.79-.1-1.2-.05-1.79-.05-1.2.21-1.8.2-1.2-.08-1.79-.08-1.2.03-1.79.03-1.2.03-1.79.03-1.2.02-1.79.02-1.21.05-1.79.05-1.21-.04-1.8-.04-1.21-.1-1.8-.1c-.62,0-1.22.05-1.8.05-.62,0-1.22.03-1.79.03-.62,0-1.22-.03-1.79-.03-.63,0-1.23-.02-1.79-.02-.64,0-1.24,0-1.79,0-.67,0-1.27-.08-1.79-.08-.77,0-1.37.17-1.78.17-.61,0-1.21-.22-1.82-.22s-1.22.21-1.82.21-1.21-.09-1.82-.09-1.22.06-1.82.05-1.21,0-1.82,0-1.21-.13-1.82-.13-1.21-.09-1.82-.1-1.21.02-1.82.02-1.21.06-1.82.06-1.21-.05-1.82-.06-1.21-.16-1.82-.17-1.22.27-1.83.26-1.21-.27-1.82-.28-1.22.15-1.83.15c-.63-.01-1.26-.17-1.89-.19s-1.26.06-1.89.02-1.26-.02-1.89-.07-1.25-.13-1.88-.19-1.25-.2-1.87-.27-1.25-.18-1.87-.26-1.23-.03-1.85-.13c-.36.55-.88.95-1.25,1.48s-.73,1.18-1.12,1.7c.57.1,1.2.32,1.76.41.57.09,1.16-.02,1.73.05s1.13.19,1.7.26,1.15.04,1.72.1,1.13.19,1.7.24,1.13.21,1.7.25,1.15-.06,1.72-.03,1.15.01,1.72.03,1.15-.05,1.72-.03c.61,0,1.22.16,1.83.17s1.22-.06,1.83-.06,1.22-.05,1.83-.04,1.22.25,1.82.25,1.22.02,1.83.03,1.22-.13,1.83-.13,1.22.17,1.82.17,1.22-.02,1.82-.02,1.22-.11,1.82-.11,1.22.02,1.82.02,1.22.06,1.82.07,1.22-.12,1.82-.11,1.22.08,1.82.08,1.22-.11,1.83-.1c.41,0,1.01.28,1.79.28.52,0,1.12-.25,1.79-.25.55,0,1.15.24,1.79.24.56,0,1.16-.23,1.79-.23.57,0,1.17.23,1.79.23.57,0,1.17-.26,1.79-.26.58,0,1.17.09,1.79.09.58,0,1.18.06,1.79.06s1.18.08,1.79.08,1.18-.09,1.79-.09,1.18.13,1.79.13,1.19-.14,1.79-.14,1.19.1,1.79.1,1.19-.19,1.79-.19,1.19.14,1.79.14,1.19-.02,1.79-.02,1.19-.03,1.79-.03,1.19-.11,1.79-.11,1.19.18,1.79.18,1.19-.13,1.79-.13,1.19.05,1.79.05,1.19.09,1.79.09,1.19-.03,1.79-.03,1.19-.1,1.79-.1,1.19,0,1.79,0,1.19-.03,1.79-.03,1.19.21,1.79.21,1.19-.18,1.79-.18,1.2-.05,1.79-.05,1.2.03,1.8.03,1.2.08,1.8.08,1.2-.13,1.8-.13,1.2.16,1.8.16,1.2-.13,1.8-.13,1.2-.02,1.8-.02,1.2-.02,1.8-.02,1.2.16,1.79.16,1.2-.08,1.79-.08,1.2.21,1.79.21,1.2-.07,1.79-.07,1.2.06,1.79.06,1.2-.09,1.79-.09,1.2-.08,1.8-.08,1.2-.02,1.8-.02,1.2.03,1.8.03,1.2-.02,1.8-.02,1.2.11,1.8.11,1.2-.09,1.8-.09,1.21.11,1.79.11,1.21-.12,1.79-.12,1.21.14,1.79.14,1.21-.19,1.8-.19,1.21.1,1.8.1c.62,0,1.22-.05,1.8-.05.62,0,1.22.14,1.79.14.62,0,1.22-.09,1.79-.09.63,0,1.23-.1,1.79-.1.64,0,1.24-.07,1.79-.07.67,0,1.27.23,1.79.23.77,0,1.37-.16,1.78-.16.46,0,1.08-.05,1.84-.05.55,0,1.17,0,1.84,0,.58,0,1.19.19,1.84.18.59,0,1.2-.24,1.84-.24.6,0,1.21.1,1.84.1s1.22.03,1.84.03,1.22.05,1.84.05,1.23.04,1.85.04,1.24-.13,1.85-.13,1.24.07,1.85.07,1.25.05,1.85.05c.64,0,1.25-.13,1.84-.14.65,0,1.27-.09,1.85-.1.68,0,1.3-.07,1.85-.07.76,0,1.38.14,1.84.13.54,0,1.08-.05,1.62-.06s1.07-.16,1.61-.18,1.08.04,1.63.03,1.09.1,1.63.08c.83-.04.83,0,1.65-.04s.82-.22,1.64-.26c.56-.03,1.16.14,1.74.09s1.18-.22,1.76-.26c.19-.87-.1-.88-.06-1.77s.15-1.01-.22-1.82Z"/>
        <path class="cls-3" d="M171.27,52.83c.46-.34.89-.75,1.38-1.05s1.09-.42,1.6-.69,1.01-.54,1.54-.77,1.04-.51,1.58-.7,1.15-.17,1.71-.33,1.07-.42,1.64-.54,1.11-.34,1.68-.42,1.16.02,1.74-.04c.58-.06,1.15-.14,1.73-.17s1.16-.21,1.74-.21,1.15.22,1.73.26,1.16.05,1.73.13,1.14.22,1.7.33,1.17.1,1.73.25,1.13.29,1.68.48,1.1.39,1.63.61c.54.22,1.08.46,1.6.72s.94.72,1.44,1.02.98.63,1.46.95,1.02.57,1.49.92.84.8,1.29,1.18.97.66,1.4,1.06.81.84,1.21,1.26.67.96,1.06,1.4c.41.47.93.83,1.32,1.31s.68,1.04,1.04,1.54.69,1.02,1.03,1.53.77.97,1.1,1.5.73,1.01,1.03,1.54.48,1.23.77,1.77c.35-.54.61-1.26.99-1.86.34-.55.86-1.07,1.21-1.68-.33-.57-.6-1.21-.94-1.77s-.86-1.01-1.22-1.56-.67-1.13-1.06-1.66-.9-.96-1.31-1.48-.73-1.1-1.16-1.6c-.38-.44-.75-.88-1.15-1.3s-.88-.75-1.29-1.16-.68-.97-1.11-1.35-.96-.66-1.41-1.02-.91-.72-1.38-1.06-1.03-.54-1.51-.86-.89-.75-1.4-1.04-1.09-.41-1.61-.66-1-.57-1.54-.8c-.54-.23-1.06-.47-1.61-.67s-1.11-.34-1.67-.5-1.13-.28-1.69-.4-1.11-.37-1.69-.46-1.16-.1-1.74-.16-1.16-.13-1.74-.16-1.16-.01-1.75-.01-1.17-.02-1.75,0-1.15.18-1.73.25c-.58.05-1.14.23-1.72.31s-1.18,0-1.75.12-1.13.31-1.69.46-1.15.24-1.7.42-1.13.32-1.67.53-1.06.5-1.59.75-1,.61-1.51.9-1.1.43-1.6.75-.9.75-1.37,1.1c-.53.4-.96.91-1.45,1.36s-1.15.72-1.61,1.21-.77,1.1-1.19,1.61-.82,1.05-1.2,1.59c-.38.54-.71,1.11-1.04,1.67s-.6,1.17-.88,1.76-.76,1.11-1.01,1.72-.35,1.28-.56,1.9c-.15.47-.37,1.03-.5,1.5.62.02,1.33-.14,1.94-.13s1.24.11,1.84.12c.04-.13.17-.23.21-.36.18-.54.18-1.16.39-1.69s.62-.99.86-1.5.32-1.13.61-1.63.8-.85,1.14-1.32c.33-.47.67-.91,1.03-1.35s.54-1.04.93-1.45.82-.8,1.24-1.18.9-.7,1.36-1.05Z"/>
        <path class="cls-3" d="M213.91,69.35c-.3-.58-.63-1.19-.94-1.75s-.65-1.12-.99-1.68-.72-1.08-1.07-1.63-.69-1.1-1.06-1.63-.74-1.07-1.14-1.58-.85-.98-1.28-1.47c-.41-.47-.91-.86-1.35-1.31s-.83-.94-1.29-1.36-.87-.91-1.35-1.31-1.04-.71-1.54-1.07-1.02-.73-1.55-1.06-1.05-.69-1.6-.98-1.2-.39-1.77-.63c-.57-.24-1.09-.61-1.67-.81s-1.17-.42-1.77-.57-1.24-.08-1.85-.18-1.22-.12-1.83-.18-1.22-.16-1.84-.17-1.23-.18-1.85-.15-1.22.23-1.84.29c-.55.05-1.11,0-1.67.1s-1.09.25-1.63.35c-.78.19-.81.1-1.59.3-.39.1-.39.12-.77.24s-.34.23-.71.37c-.74.28-.81.13-1.53.44s-.72.32-1.42.67c-.35.18-.24.38-.58.58s-.48-.03-.8.19c-.43.3-.74.75-1.15,1.07-.55.42-1.04.89-1.54,1.37s-1.02.93-1.47,1.45-.84,1.09-1.24,1.65c-.4.56-.89,1.06-1.22,1.67s-.61,1.24-.88,1.87-.46,1.28-.68,1.93c.66.01,1.27.17,1.87.18.68,0,1.32-.11,1.89-.11.25-.63.59-1.23.9-1.82s.53-1.27.92-1.81c.33-.46.68-.92,1.04-1.34s.74-.87,1.15-1.25.85-.75,1.3-1.09c.33-.26.77-.38,1.11-.63.26-.18.17-.34.44-.5s.34-.06.63-.21c.58-.29.59-.27,1.18-.53s.64-.18,1.27-.41c.31-.12.27-.23.59-.33s.36,0,.69-.09c.67-.17.65-.24,1.32-.41.48-.09.98-.12,1.47-.2s.98-.26,1.46-.3c.62-.07,1.25.02,1.87,0s1.25-.12,1.86-.09,1.24.1,1.85.18,1.24.15,1.84.28,1.21.29,1.8.48,1.16.43,1.74.68c.59.24,1.13.59,1.69.89s1.14.57,1.68.92,1.08.67,1.59,1.07.98.82,1.46,1.25.88.92,1.33,1.38.83.96,1.25,1.45c.45.52.9,1.05,1.33,1.6s.85,1.09,1.25,1.67.74,1.17,1.11,1.76c.37.59.87,1.09,1.22,1.7s.54,1.28.87,1.9.67,1.3.98,1.94c.38-.46.8-1.11,1.24-1.68.37-.49.86-.99,1.27-1.57Z"/>
        <path class="cls-3" d="M4.26,76.59c.9.01.9.16,1.8.17s.9-.1,1.8-.09.9-.1,1.79-.09.9.11,1.8.11.9.17,1.8.17.9-.12,1.8-.11.9-.15,1.79-.15.89.29,1.79.29.9-.23,1.79-.22.9,0,1.8,0,.9.1,1.79.1.9.03,1.8.04.9-.12,1.8-.11.9-.03,1.8-.03c.42,0,1.02.27,1.78.27.52,0,1.12-.26,1.79-.26.55,0,1.14.06,1.78.06.56,0,1.16.19,1.79.19.57,0,1.16-.15,1.79-.15.57,0,1.17-.13,1.79-.13.58,0,1.17.21,1.79.21.58,0,1.17-.15,1.78-.15s1.18.21,1.78.21,1.18.01,1.78.01,1.18-.09,1.78-.09,1.18-.13,1.79-.13,1.18.13,1.79.13,1.18-.16,1.79-.16,1.18.02,1.79.02,1.19.2,1.79.2,1.19-.2,1.79-.2,1.19.14,1.79.14,1.19-.07,1.79-.07,1.19.07,1.79.07,1.19-.13,1.79-.13,1.19.13,1.79.13,1.18-.18,1.78-.18,1.19.28,1.78.28,1.19-.11,1.78-.11,1.19,0,1.78,0,1.19-.12,1.79-.12,1.19-.05,1.79-.05,1.19.23,1.79.23,1.19-.19,1.78-.19,1.19.13,1.79.13,1.19-.15,1.79-.15,1.19,0,1.79,0,1.19.16,1.79.16,1.19-.12,1.79-.12,1.19-.04,1.79-.04,1.2,0,1.79,0,1.2.07,1.79.07,1.2.1,1.79.1,1.19.07,1.79.07,1.19-.19,1.79-.19,1.19.12,1.79.12,1.19-.02,1.79-.02,1.2-.18,1.79-.18,1.2.1,1.79.1,1.2.11,1.79.11,1.2-.17,1.79-.17,1.2.04,1.79.04,1.2.19,1.79.19,1.2-.03,1.79-.03,1.2-.17,1.79-.17,1.2-.04,1.79-.04,1.2.22,1.79.22,1.2-.21,1.79-.21,1.2.17,1.79.17,1.2-.23,1.79-.23,1.2.17,1.79.17,1.2-.18,1.79-.18,1.2.07,1.79.07,1.21.02,1.79.02c.61,0,1.21.02,1.79.02.61,0,1.21.04,1.79.04.62,0,1.21-.09,1.79-.09.62,0,1.22.04,1.79.04.63,0,1.22.03,1.78.03.64,0,1.24-.02,1.78-.02.67,0,1.27-.08,1.79-.08.76,0,1.36,0,1.78,0,.9,0,.9-.07,1.79-.08s.9.09,1.79.08.9.07,1.8.06.9-.04,1.8-.05.9.08,1.79.07.9-.22,1.8-.23.9.04,1.8.03.9.06,1.8.05c.6-.01,1.2.03,1.8.02s1.2,0,1.8,0,1.2-.05,1.8-.06,1.19-.21,1.8-.22c.6-.02,1.21.18,1.81.16s1.19-.2,1.8-.22c.62-.03,1.23.08,1.84.06s1.21-.03,1.84-.09c.63-.05,1.25-.18,1.87-.26s1.25-.16,1.87-.28,1.22-.3,1.83-.45,1.18-.44,1.78-.62,1.22-.3,1.81-.52,1.17-.46,1.75-.71,1.14-.53,1.7-.8,1.19-.43,1.74-.73c.49-.27.95-.59,1.42-.88s.93-.61,1.39-.93,1-.52,1.44-.86.8-.79,1.22-1.15.79-.79,1.2-1.17.81-.76,1.19-1.17.79-.78,1.16-1.2c-.42-.43-.81-.88-1.24-1.28s-.91-.69-1.35-1.06c-.4.47-.72.95-1.15,1.39s-1.05.7-1.51,1.11-.9.85-1.38,1.24-.9.86-1.42,1.22-1.08.62-1.61.94-1.03.7-1.58.98-1.12.54-1.68.8-1.2.33-1.78.55-1.16.42-1.75.62-1.19.34-1.78.5-1.17.43-1.78.56-1.22.2-1.84.29-1.22.26-1.84.32c-.56.05-1.15.1-1.75.13s-1.17-.01-1.75.02c-.59.03-1.19-.1-1.79-.08s-1.19.14-1.78.15c-.6.02-1.19,0-1.79.02s-1.19.15-1.79.16-1.19.06-1.79.07-1.2-.26-1.79-.24c-.9.01-.89.16-1.79.17s-.9-.12-1.79-.11-.89.05-1.79.06-.9.02-1.79.03-.89.02-1.79.03-.9,0-1.79,0-.9.13-1.8.14-.9-.02-1.8,0c-.42,0-1.02.14-1.78.14-.52,0-1.12-.2-1.79-.2-.55,0-1.14-.03-1.78-.03-.56,0-1.16.22-1.79.22-.57,0-1.16-.14-1.79-.14-.57,0-1.17,0-1.79,0-.58,0-1.17-.08-1.79-.08-.58,0-1.17.14-1.78.14s-1.18-.04-1.78-.04-1.18.1-1.78.1-1.18-.13-1.78-.13-1.18-.05-1.78-.05-1.18.09-1.79.1-1.18-.04-1.79-.04-1.18.13-1.79.13-1.18-.16-1.79-.16-1.19-.05-1.79-.05-1.19.01-1.79.02-1.19.12-1.79.12-1.19-.11-1.79-.11-1.19.21-1.79.21-1.19-.19-1.79-.19-1.18.12-1.78.12-1.19-.12-1.78-.12-1.19-.03-1.78-.03-1.19,0-1.78,0-1.19,0-1.78,0-1.19-.04-1.79-.03-1.19.17-1.79.17-1.19-.18-1.78-.18-1.19.18-1.78.18-1.19,0-1.79,0-1.19.08-1.79.08-1.19-.24-1.79-.24-1.19.21-1.79.21-1.19,0-1.79,0-1.2.06-1.79.06-1.2-.03-1.79-.03-1.2-.25-1.79-.25-1.19.03-1.79.03-1.19.02-1.79.02-1.19.21-1.79.21-1.19-.19-1.79-.19-1.19-.05-1.79-.05-1.19.12-1.79.12-1.2.15-1.79.15-1.2-.28-1.79-.28-1.2.04-1.79.04-1.2.14-1.79.14-1.2.03-1.79.03-1.2-.05-1.79-.05-1.2-.09-1.79-.09-1.2.1-1.79.1-1.2.13-1.79.13-1.2-.25-1.79-.25-1.2,0-1.79,0-1.2.06-1.79.06-1.2.08-1.79.08-1.2-.09-1.79-.09-1.21.06-1.79.06c-.61,0-1.21-.09-1.79-.09-.61,0-1.21.07-1.79.07-.62,0-1.21-.02-1.79-.02-.62,0-1.22-.1-1.79-.1-.63,0-1.22.11-1.78.11-.64,0-1.24-.1-1.78-.1-.67,0-1.27.22-1.79.22-.76,0-1.36.06-1.78.06-.9,0-.9-.15-1.79-.16s-.89-.1-1.79-.1-.9.11-1.79.11-.9.05-1.79.05-.9.03-1.79.03-.9,0-1.8,0-.9-.09-1.8-.09-.9-.09-1.8-.1-.89.05-1.79.04-.9.12-1.79.11-.9-.06-1.79-.07-.9,0-1.8-.01-.89-.16-1.79-.17-.89-.05-1.79-.07-.9.21-1.79.19-1.03-.7-1.66-.11-.16.83-.22,1.72-.73,1.17-.11,1.82c.64.68.98.08,1.91.1s.9-.09,1.81-.07Z"/>
        <path class="cls-3" d="M4.36,71.09c.89.01.89.25,1.78.26s.89-.23,1.79-.22.89.06,1.78.07.89.13,1.79.13.9,0,1.79,0,.9.02,1.79.03.9,0,1.79,0,.89-.19,1.79-.19.89.24,1.79.25.9-.08,1.79-.08.9-.05,1.79-.05.9.03,1.79.03.9.08,1.8.08.9-.14,1.8-.13c.43,0,1.03.18,1.81.18.53,0,1.13-.22,1.81-.22.56,0,1.16.25,1.81.26.57,0,1.17.01,1.81.01.58,0,1.18-.04,1.81-.04.58,0,1.19-.23,1.81-.23.59,0,1.19.08,1.81.08.59,0,1.19.06,1.81.06s1.19,0,1.81,0,1.2,0,1.81,0,1.2.11,1.81.11,1.2-.07,1.81-.07,1.2-.05,1.81-.05,1.2.11,1.81.11,1.2-.23,1.81-.23,1.2.17,1.81.17,1.2.09,1.81.09,1.2-.05,1.81-.05,1.2,0,1.81,0,1.2-.08,1.81-.08,1.21-.05,1.81-.05,1.2.01,1.81.01,1.2-.02,1.81-.02,1.2-.04,1.81-.04,1.2.11,1.81.11,1.21.1,1.81.1,1.21-.27,1.81-.27,1.21.06,1.81.06,1.21-.07,1.81-.07,1.21.22,1.81.22,1.21.06,1.81.06,1.21-.17,1.81-.17,1.21.16,1.81.16,1.21-.11,1.82-.11,1.21.01,1.82.01,1.21-.19,1.82-.19,1.21.05,1.82.05,1.21,0,1.82,0,1.22-.02,1.82-.02,1.21.2,1.82.2,1.21-.09,1.82-.09,1.21-.09,1.82-.09,1.21.2,1.82.2,1.21-.11,1.81-.11,1.21-.12,1.81-.12,1.21.09,1.81.09,1.21.12,1.81.12,1.21-.2,1.81-.2,1.21.23,1.82.23,1.22-.15,1.82-.15,1.22,0,1.82,0,1.22.04,1.82.04,1.22.1,1.82.1,1.22-.23,1.82-.23,1.22.09,1.82.09,1.22-.14,1.81-.14,1.22.24,1.81.24,1.22-.15,1.81-.15,1.22.11,1.82.11,1.23,0,1.82,0c.62,0,1.23-.02,1.82-.02.63,0,1.23.1,1.81.1.63,0,1.23-.24,1.81-.24.64,0,1.24.01,1.81.01.65,0,1.25.19,1.81.19.68,0,1.28-.12,1.81-.13.77,0,1.38,0,1.8,0,.89,0,.89-.06,1.79-.07s.89-.07,1.79-.08.9.08,1.79.07.9.16,1.79.15.89-.25,1.79-.26.9-.01,1.79-.02.9.21,1.8.2.9-.12,1.79-.13c.59-.01,1.19,0,1.78,0s1.19-.1,1.78-.12,1.19-.09,1.78-.1,1.19-.04,1.78-.06c.59-.02,1.18.06,1.77.04s1.18-.08,1.77-.11c.56-.03,1.14-.08,1.71-.1.6-.03,1.19.12,1.71.07.58-.05,1.13-.28,1.71-.36s1.17-.02,1.74-.14,1.11-.34,1.68-.49,1.15-.22,1.7-.39,1.05-.51,1.59-.71,1.17-.23,1.69-.47.99-.63,1.51-.89,1.11-.41,1.6-.71.85-.83,1.33-1.16,1.05-.53,1.51-.89.87-.77,1.3-1.16.89-.75,1.3-1.17.61-.86.99-1.31c-.5-.38-.89-.7-1.35-1.02-.54-.37-1.02-.89-1.47-1.17-.36.41-.81.84-1.2,1.22s-.69.85-1.11,1.2-.92.58-1.36.91-.77.79-1.23,1.09-1.03.38-1.51.64c-.55.3-1.02.78-1.59,1.05s-1.17.48-1.76.7-1.23.3-1.84.48-1.17.51-1.79.66-1.26.2-1.88.29-1.27.07-1.89.12c-.35.03-.33.23-.68.26-.22.02-.56-.03-.83-.01-.86.04-.86-.09-1.72-.05-.57.03-1.15.13-1.74.15s-1.17.01-1.75.03c-.59.02-1.18,0-1.77.02s-1.18.09-1.77.1-1.18.05-1.78.06-1.19-.03-1.78-.02c-.89.01-.89.04-1.78.05s-.89-.09-1.78-.08-.89-.07-1.79-.06-.89.23-1.78.24-.89-.05-1.78-.04-.89.06-1.79.07-.9-.16-1.79-.15-.89.21-1.79.22c-.42,0-1.03-.18-1.81-.17-.53,0-1.13.2-1.81.2-.56,0-1.16-.1-1.81-.1-.57,0-1.17-.14-1.81-.14-.58,0-1.18.12-1.81.12-.58,0-1.19.11-1.81.11-.59,0-1.19-.1-1.81-.09-.59,0-1.19-.16-1.81-.16s-1.19.13-1.81.13-1.19.15-1.81.15-1.2-.28-1.81-.28-1.2.23-1.81.23-1.2,0-1.81,0-1.2-.1-1.81-.1-1.2-.03-1.81-.03-1.2.12-1.81.12-1.2.04-1.81.04-1.2-.27-1.81-.27-1.2.26-1.81.26-1.2-.06-1.81-.06-1.2-.19-1.81-.19-1.2.15-1.81.15-1.2.13-1.81.13-1.2-.21-1.81-.21-1.2.15-1.81.16-1.21-.2-1.81-.2-1.21-.01-1.81-.01-1.21.09-1.81.09-1.21.13-1.81.13-1.21-.13-1.81-.13-1.21.17-1.81.17-1.21-.02-1.81-.02-1.21-.2-1.81-.2-1.21.2-1.82.2-1.21-.14-1.82-.14-1.21.07-1.82.07-1.21-.07-1.82-.07-1.21.13-1.82.13-1.22-.13-1.82-.13-1.21.18-1.81.18-1.21-.28-1.82-.28-1.21.11-1.81.11-1.21,0-1.81,0-1.21.12-1.81.12-1.21.05-1.81.05-1.21-.23-1.81-.23-1.21.19-1.81.19-1.21-.13-1.81-.13-1.21.15-1.81.15-1.22,0-1.82,0-1.22-.16-1.82-.16-1.22.12-1.82.12-1.22.04-1.82.04-1.22,0-1.82,0-1.22-.07-1.81-.07-1.22-.1-1.81-.1-1.22-.07-1.81-.07-1.22.19-1.81.19-1.22-.12-1.82-.12-1.23.02-1.82.02c-.62,0-1.23.18-1.82.18-.63,0-1.23-.11-1.81-.11-.63,0-1.23-.11-1.81-.11-.64,0-1.24.17-1.81.17-.65,0-1.25-.04-1.81-.04-.68,0-1.28-.19-1.81-.19-.77,0-1.38.03-1.8.03-.89,0-.9.17-1.79.17s-.89.04-1.79.03-.89-.23-1.79-.23-.9.21-1.79.2-.89-.18-1.79-.18-.9.22-1.79.22-.9-.17-1.79-.18-.9.18-1.8.17-.89-.08-1.78-.09-.89-.03-1.78-.04-.89-.03-1.79-.03-.89-.04-1.79-.05-.89.08-1.77.07-.88-.06-1.77-.07-.88-.04-1.75-.06c-.74-.02-.97-.59-1.47-.04-.61.65.02.88-.04,1.77s-.72,1.04-.15,1.72c.52.63.76-.02,1.58-.03.89,0,.89.06,1.78.07Z"/>
        <path class="cls-3" d="M204.47,65.82c-.38.44-.83.85-1.23,1.26s-.81.82-1.23,1.21-.72.93-1.17,1.3-1.04.55-1.5.9-.79.88-1.27,1.2-1.07.48-1.56.78-.92.72-1.43.99c-.52.28-1.14.35-1.67.61s-.97.69-1.51.92-1.1.41-1.65.62-1.09.45-1.65.64-1.14.3-1.71.46-1.17.16-1.74.29-1.1.47-1.68.57-1.16.19-1.75.26-1.17.1-1.76.15c-.67.06-1.29,0-1.88.02-.63.03-1.24.08-1.88.11-.61.03-1.21.15-1.81.16s-1.21.03-1.82.05c-.6.02-1.2.08-1.81.09s-1.21-.02-1.81,0-1.2-.07-1.8-.06-1.2.11-1.8.12c-.9.01-.9-.1-1.8-.09s-.9-.05-1.79-.04-.9.21-1.79.22-.9-.12-1.8-.11-.9-.07-1.8-.06-.9.29-1.8.3-.9-.03-1.8-.02-.9.04-1.8.05c-.42,0-1.02,0-1.78,0-.52,0-1.12-.2-1.79-.2-.55,0-1.14.16-1.78.16-.56,0-1.16-.08-1.79-.07-.57,0-1.16.11-1.79.11-.57,0-1.17-.02-1.79-.02-.58,0-1.17-.03-1.79-.03-.58,0-1.17-.06-1.78-.06s-1.18-.03-1.78-.03-1.18-.03-1.78-.03-1.18.03-1.78.03-1.18-.04-1.79-.04-1.18.04-1.79.04-1.18.16-1.79.17-1.18-.23-1.79-.23-1.19.07-1.79.07-1.19.09-1.79.09-1.19-.18-1.79-.17-1.19.04-1.79.04-1.19.24-1.79.24-1.19-.09-1.79-.09-1.19-.02-1.79-.02-1.19-.07-1.78-.07-1.19.19-1.78.19-1.19,0-1.78,0-1.19-.06-1.78-.06-1.19.05-1.79.05-1.19-.14-1.79-.14-1.19.15-1.79.15-1.19-.08-1.78-.08-1.19-.06-1.79-.05-1.19,0-1.79,0-1.19.15-1.79.15-1.19-.06-1.79-.06-1.19.05-1.79.05-1.2-.18-1.79-.18-1.2.01-1.79.01-1.2-.09-1.79-.09-1.2.16-1.79.16-1.19.1-1.79.1-1.19-.16-1.79-.16-1.19.14-1.79.14-1.2-.09-1.79-.09-1.2-.02-1.79-.02-1.2.06-1.79.06-1.2-.03-1.79-.03-1.2-.06-1.79-.06-1.2-.08-1.79-.08-1.2.08-1.79.08-1.2-.01-1.79-.01-1.2.17-1.79.17-1.2,0-1.79,0-1.2-.14-1.79-.14-1.2.03-1.79.03-1.2-.11-1.79-.11-1.2.2-1.79.2-1.2-.15-1.79-.15-1.2-.05-1.79-.05-1.2,0-1.79,0-1.21.15-1.79.15c-.61,0-1.21-.14-1.79-.14-.61,0-1.21.04-1.79.04-.62,0-1.21.07-1.79.07-.62,0-1.22-.17-1.79-.17-.63,0-1.22.19-1.78.19-.64,0-1.24,0-1.78,0-.67,0-1.27-.17-1.79-.17-.76,0-1.36.25-1.78.24-.9,0-.9,0-1.8,0s-.9-.19-1.79-.19-.9.05-1.8.04-.9,0-1.8,0-.9.1-1.79.1-.9-.27-1.8-.28-.9.14-1.8.14-.9.08-1.8.08-.9-.22-1.79-.22-.9.26-1.8.25-.9-.14-1.8-.15-.9-.09-1.8-.1-.9.11-1.81.1-.9.06-1.81.04-.91-.09-1.81-.12c-.97-.03-1.26-.8-2.01-.18-.69.57.08.97.02,1.86s-.81,1.13-.16,1.73c.77.72,1.02-.06,2.07-.03.92.03.92.02,1.83.03s.91.05,1.82.06.91.2,1.82.21.9.03,1.8.04.9-.08,1.8-.08.9-.05,1.81-.04.9-.06,1.81-.06.9.26,1.8.26.9-.02,1.79-.02.9.04,1.8.04.9-.12,1.8-.12.9.13,1.8.13.9-.16,1.8-.15.9.02,1.8.02.9.15,1.8.15c.42,0,1.02-.28,1.78-.28.52,0,1.12.04,1.79.04.55,0,1.14,0,1.79,0,.56,0,1.16.25,1.79.25.57,0,1.17-.07,1.79-.07.57,0,1.17-.06,1.79-.06.58,0,1.17-.11,1.79-.11.58,0,1.17.13,1.78.13s1.18.08,1.78.08,1.18-.13,1.78-.13,1.18,0,1.79,0,1.18.13,1.79.13,1.18,0,1.79,0,1.18-.15,1.79-.15,1.18-.03,1.79-.03,1.19.02,1.79.02,1.19-.03,1.79-.03,1.19-.02,1.79-.02,1.19.23,1.79.23,1.19-.24,1.79-.24,1.19.05,1.79.05,1.19.12,1.79.12,1.19,0,1.78,0,1.19.01,1.78.01,1.19,0,1.78,0,1.19-.2,1.78-.2,1.19.24,1.79.24,1.19-.08,1.79-.08,1.19-.05,1.79-.05,1.19.02,1.78.02,1.19.07,1.79.07,1.19-.14,1.79-.14,1.19.18,1.79.18,1.19-.22,1.79-.22,1.19.25,1.79.25,1.2,0,1.79,0,1.2-.04,1.79-.04,1.2-.23,1.79-.23,1.2.08,1.8.08,1.19.06,1.79.06,1.2,0,1.79,0,1.2,0,1.79,0,1.2.1,1.79.1,1.2-.07,1.79-.07,1.2-.05,1.79-.05,1.2.11,1.79.11,1.2-.23,1.79-.23,1.2.17,1.79.17,1.2.09,1.79.09,1.2-.05,1.79-.05,1.2,0,1.79,0,1.2-.08,1.79-.08,1.2-.05,1.79-.05,1.2.01,1.79.01,1.2-.02,1.79-.02,1.2-.04,1.79-.04,1.2.11,1.79.11,1.2.1,1.79.1,1.2-.27,1.79-.27,1.21.06,1.79.06c.61,0,1.21-.07,1.79-.07.61,0,1.21.22,1.79.22.62,0,1.21.06,1.79.06.62,0,1.22-.17,1.79-.17.63,0,1.22.16,1.79.16.64,0,1.24-.12,1.78-.12.67,0,1.27,0,1.79,0,.76,0,1.36-.19,1.78-.19.9,0,.9.04,1.8.03s.9,0,1.8-.02.9-.03,1.8-.04.9.19,1.8.18.9-.1,1.8-.11.9-.1,1.8-.11.91.2,1.81.19.9-.12,1.81-.13c.61-.01,1.21-.15,1.81-.16s1.21.07,1.82.06,1.21.09,1.81.08,1.21-.23,1.81-.24c.62-.02,1.23.2,1.85.18s1.21-.19,1.83-.22c.94-.04.94-.03,1.87-.07.33-.02.6.02.97,0,.54-.04.55.06,1.1.02.58-.05,1.13-.34,1.7-.41s1.16-.07,1.73-.17,1.11-.34,1.67-.46,1.18-.02,1.74-.17,1.08-.45,1.63-.62,1.14-.24,1.68-.43,1.09-.4,1.62-.61,1.06-.46,1.59-.69,1.1-.39,1.61-.65.92-.73,1.43-1c.52-.28,1.04-.57,1.55-.88s1.12-.46,1.61-.8.91-.78,1.39-1.13.96-.71,1.42-1.09.88-.8,1.32-1.2.83-.85,1.26-1.27.89-.78,1.29-1.22c-.3-.53-.49-1.12-.85-1.61s-.85-.93-1.23-1.4Z"/>
        <path class="cls-3" d="M179.04,37.09c.57-.09,1.17-.09,1.78-.15s1.23-.13,1.84-.17c-.09-.58-.13-1.24-.21-1.83s-.3-1.15-.37-1.73-.16-1.17-.24-1.76-.05-1.18-.11-1.77-.14-1.17-.2-1.76-.17-1.17-.23-1.76.04-1.19,0-1.78c-.04-.57-.34-1.16-.38-1.82-.03-.58-.03-1.2-.06-1.84-.03-.59-.01-1.21-.04-1.84s-.05-1.21-.07-1.84-.14-1.22-.17-1.84.17-1.23.15-1.85-.15-1.23-.17-1.84.13-1.24.11-1.85-.21-1.23-.23-1.84-.09-1.24-.1-1.84c-.02-.63.12-1.25.11-1.85-.02-.64-.03-1.26-.04-1.84-.02-.65-.02-1.39-.04-1.96-.85-.25-.92.21-1.81.23s-.95-.35-1.79-.06c.01.57-.02,1.22,0,1.88.01.59.22,1.21.24,1.85.01.6.02,1.22.04,1.85s-.16,1.23-.14,1.86.06,1.23.07,1.86.21,1.23.23,1.85-.23,1.25-.22,1.87.18,1.24.2,1.86.14,1.25.16,1.86.02,1.25.04,1.86c.03.64-.04,1.26,0,1.86.03.65.22,1.26.26,1.85.04.66-.03,1.29,0,1.86.05.59-.02,1.2.03,1.79s.24,1.17.3,1.77.15,1.18.21,1.77.15,1.18.22,1.77.13,1.18.2,1.77.05,1.19.14,1.78.2,1.17.29,1.76Z"/>
        <path class="cls-3" d="M224.35,41.99c.58-.11,1.14-.33,1.73-.41s1.19.08,1.78.03,1.17-.15,1.76-.16,1.18-.07,1.77-.04,1.19.01,1.77.08,1.15.3,1.73.4,1.2.03,1.77.18,1.09.5,1.65.69,1.19.19,1.73.41c.61.24,1.12.72,1.72,1.01s1.18.58,1.75.9,1.14.66,1.69,1.02,1.2.6,1.72.99c.53.39.93.94,1.43,1.37s1.06.78,1.54,1.24.93.93,1.38,1.42.83,1.02,1.24,1.54c.37.47.6,1.03.93,1.53s.67.98.97,1.49.63,1.01.89,1.54.59,1.04.82,1.59.49,1.09.68,1.66.21,1.18.35,1.76.38,1.13.48,1.72.08,1.23.14,1.83c.6,0,1.24-.19,1.83-.18s1.16.1,1.73.1c-.05-.62-.15-1.18-.24-1.79s-.22-1.21-.36-1.81-.26-1.2-.44-1.79-.28-1.21-.5-1.78-.53-1.12-.78-1.68-.56-1.09-.84-1.64-.36-1.21-.68-1.74-.77-.98-1.12-1.49-.78-.95-1.16-1.44c-.36-.47-.67-.98-1.05-1.42s-.78-.89-1.19-1.31-.94-.72-1.37-1.12-.83-.83-1.28-1.21-.84-.84-1.31-1.19c-.57-.46-1.13-.89-1.72-1.3-.3-.2-.66-.28-.97-.48-.49-.29-.42-.39-.91-.67-.65-.37-1.3-.78-2-1.09-.69-.31-1.4-.58-2.12-.82-.56-.23-1.11-.46-1.68-.64s-1.14-.38-1.72-.53-1.19-.18-1.78-.29-1.19-.12-1.78-.2-1.17-.27-1.77-.32-1.2.07-1.8.06-1.19-.08-1.79-.06-1.2.03-1.79.08-1.2.03-1.79.11-1.18.24-1.76.36c-.58.11-1.17.13-1.74.26s-1.13.32-1.69.49-1.11.37-1.66.56-1.06.51-1.6.72-1.13.34-1.66.58-1.1.43-1.62.69-1,.62-1.51.9-.93.62-1.43.92c.5.38.92.78,1.38,1.19s.93.8,1.37,1.24c.56-.32,1.06-.72,1.64-1.01s1.26-.36,1.85-.62,1.13-.65,1.73-.88,1.21-.45,1.83-.65,1.23-.4,1.86-.56,1.28-.22,1.91-.34Z"/>
        <path class="cls-3" d="M254.28,84.52c-.3.54-.62,1.07-.97,1.58-.33.51-.79.93-1.16,1.41s-.63,1.06-1.04,1.51-.88.85-1.32,1.27-.91.81-1.38,1.2-1.04.64-1.54.99-.99.7-1.51,1.01c-.51.31-.99.66-1.52.93s-1.1.46-1.64.69-1.07.53-1.63.73-1.09.5-1.67.66-1.2.11-1.78.24-1.12.49-1.71.58c-.57.09-1.18-.05-1.75.01s-1.14.22-1.72.25-1.15.15-1.73.16-1.16,0-1.74-.02-1.15-.13-1.73-.18-1.15-.12-1.72-.19c-.61-.08-1.2-.24-1.8-.34s-1.19-.24-1.79-.36-1.2-.23-1.79-.38-1.19-.28-1.77-.45-1.17-.34-1.75-.54-1.15-.41-1.72-.62-1.11-.5-1.68-.73-1.14-.44-1.69-.69-1.15-.42-1.7-.69-1.07-.6-1.6-.88-1.12-.5-1.65-.8c-.57-.32-1.1-.71-1.67-1.05s-1.13-.67-1.68-1.02-1.04-.81-1.58-1.17-1.09-.73-1.62-1.11-1.07-.76-1.59-1.15c-.64-.51-.61-.55-1.25-1.06s-.6-.57-1.24-1.08-.82-.3-1.45-.82c-.42-.36-.74-.82-1.14-1.2-.72.23-1.42.33-2.09.48-.75.17-1.38.37-2.04.46.51.48,1.02.88,1.53,1.36s.97,1.02,1.49,1.48c.66.55.62.6,1.29,1.14s.78.4,1.45.95.66.55,1.34,1.09c.46.34.8.84,1.27,1.17s1.01.55,1.49.87.98.59,1.46.9.86.78,1.34,1.09,1.02.54,1.51.83.97.61,1.47.89c.52.29,1.06.55,1.59.83s1.05.56,1.59.83,1.13.39,1.67.64,1.04.59,1.59.82,1.13.38,1.69.59,1.11.41,1.68.61,1.05.6,1.62.78,1.18.22,1.76.38,1.14.36,1.72.5,1.14.38,1.73.5,1.18.21,1.77.31,1.18.22,1.77.29c.63.08,1.27.1,1.9.15s1.27.06,1.91.08,1.27.1,1.91.09,1.26-.29,1.89-.33,1.26-.05,1.9-.12,1.27-.07,1.9-.18c.56-.09,1.11-.27,1.68-.39s1.1-.29,1.66-.44,1.14-.18,1.69-.37,1.03-.51,1.57-.72,1.05-.45,1.57-.69,1.11-.34,1.62-.61.98-.6,1.47-.9c.51-.31,1.05-.57,1.55-.91s.86-.84,1.33-1.21.99-.66,1.44-1.06.8-.88,1.22-1.3.89-.8,1.28-1.25.87-.83,1.23-1.31.56-1.07.89-1.57c.37-.54.72-1.08,1.04-1.64s.72-1.13,1-1.72c-.62-.02-1.32-.09-2-.12-.63-.03-1.28.03-1.95,0Z"/>
        <path class="cls-3" d="M209.76,84.38c.5.28,1,.56,1.51.83s1.01.55,1.53.8,1.06.45,1.59.68,1.01.56,1.55.77,1.05.49,1.59.69,1.15.19,1.7.37,1.05.51,1.61.66,1.15.15,1.71.28,1.11.31,1.68.41,1.14.18,1.71.25c.6.08,1.2.14,1.8.18s1.21-.02,1.81-.02,1.21.04,1.8.01,1.21-.06,1.8-.13,1.21-.09,1.8-.21,1.14-.42,1.72-.58,1.16-.32,1.72-.53,1.12-.43,1.67-.68,1.06-.56,1.57-.88c.51-.31.98-.65,1.45-1s1-.65,1.43-1.05.92-.85,1.32-1.29c-.54-.04-1.15.03-1.67-.01s-1.07-.1-1.58-.15c-.54-.06-1.05-.17-1.56-.23-.38.28-.85.38-1.26.63-.49.3-.92.7-1.46.94s-1.05.47-1.61.66-1.12.25-1.69.39-1.1.34-1.68.42-1.14.21-1.72.25-1.16.06-1.74.06-1.15-.19-1.73-.22-1.14-.11-1.72-.18c-.58-.08-1.17-.07-1.76-.18s-1.12-.35-1.7-.48-1.13-.28-1.7-.45-1.14-.27-1.7-.46-1.08-.47-1.63-.68-1.18-.23-1.72-.47-1.04-.56-1.57-.82-1.12-.4-1.64-.67-1.01-.62-1.52-.91c-.49-.27-.93-.62-1.41-.91s-.99-.53-1.46-.83-.93-.62-1.39-.94-.95-.6-1.4-.92-.92-.64-1.37-.98c-.79-.63-.63-.85-1.56-1.24-.46.41-.89.73-1.36,1.1s-1,.74-1.49,1.08c.34.66.53.53,1.11,1s.59.45,1.17.91c.47.35.97.68,1.45,1.02s.93.74,1.41,1.07,1.02.6,1.52.92,1.02.61,1.52.91,1.06.52,1.58.81Z"/>
        <path class="cls-3" d="M245.66,48.79c-.49-.37-.87-.91-1.38-1.25s-1.15-.49-1.68-.79-.99-.76-1.55-1.03-1.09-.6-1.67-.83c-.58-.23-1.23-.26-1.82-.45s-1.17-.42-1.77-.56-1.24-.1-1.85-.19-1.21-.28-1.83-.33-1.24-.09-1.86-.1-1.24.12-1.85.16-1.26-.13-1.87-.06-1.21.3-1.82.42c-.58.11-1.15.23-1.72.37s-1.09.44-1.65.62-1.17.21-1.71.42-1.03.58-1.56.82-1.1.4-1.63.66-1.07.51-1.58.8c.41.45.84.9,1.22,1.36s.77.92,1.12,1.39c.52-.27,1.07-.41,1.6-.66s1.04-.55,1.58-.76,1.1-.39,1.65-.58,1.11-.38,1.67-.53,1.14-.23,1.72-.34c.6-.12,1.19-.31,1.8-.39s1.22-.23,1.83-.26,1.23.16,1.84.18,1.23,0,1.83.07,1.2.24,1.8.36,1.17.33,1.76.5,1.18.32,1.74.55c.5.2,1.04.31,1.52.54s.87.64,1.34.91.98.44,1.43.74.96.51,1.39.83c.43.32.69.86,1.1,1.21s.92.58,1.31.96.77.76,1.13,1.16.73.8,1.06,1.23c.33.42.68.83.97,1.27s.37,1.02.64,1.48.62.87.85,1.35.31,1.02.5,1.51c.24.67.65,1.29.82,1.98s.22,1.42.31,2.12c.59,0,1.19.12,1.8.12s1.12-.17,1.72-.16c-.06-.62,0-1.18-.11-1.79s-.48-1.16-.64-1.76-.13-1.26-.35-1.85-.45-1.17-.71-1.73-.77-1-1.08-1.54-.6-1.08-.95-1.59-.66-1.05-1.04-1.54c-.38-.49-.75-.98-1.16-1.44s-.82-.93-1.26-1.36-.86-.89-1.33-1.29-1.09-.61-1.59-.97Z"/>
        <path class="cls-3" d="M226.41,52.6c.65-.12,1.3-.19,1.94-.25s1.31-.12,1.96-.12,1.31.05,1.96.13,1.29.24,1.92.4,1.22.44,1.83.69c.38.11.75.28,1.11.43.37.15.74.31,1.09.52.26.15.25.17.52.32.18.11.33.31.51.43.36.25.71.53,1.04.81.45.34.89.68,1.31,1.04s.84.74,1.22,1.14.72.85,1.06,1.29c.32.42.77.74,1.05,1.18s.41.97.65,1.44.41.96.59,1.44c.26.72.6,1.39.74,2.12.54,0,1.12-.01,1.77,0,.56,0,1.06-.03,1.7-.02-.08-.59-.05-1.08-.19-1.67s-.35-1.14-.55-1.7c-.23-.6-.55-1.16-.84-1.74s-.43-1.24-.78-1.79-.83-1-1.23-1.51c-.41-.52-.92-.95-1.38-1.43s-.81-1.07-1.31-1.51-1.04-.83-1.57-1.23c-.54-.4-1.18-.63-1.73-.98s-1.04-.85-1.62-1.15-1.21-.54-1.82-.78c-.52-.21-1.04-.45-1.58-.61s-1.12-.15-1.67-.26-1.1-.16-1.66-.23-1.11-.09-1.67-.11-1.11,0-1.67.02-1.13-.13-1.69-.06-1.12.13-1.67.23c-.65.12-1.27.39-1.91.57s-1.3.27-1.93.5-1.18.61-1.79.88-1.2.5-1.79.81c.36.51.56,1.07.86,1.55.35.54.79.93,1.07,1.4.49-.25,1-.39,1.5-.6s1.02-.4,1.53-.58,1.01-.46,1.53-.6,1.07-.27,1.61-.36Z"/>
        <path class="cls-3" d="M225.27,95.49c.65.09,1.31.1,1.96.15s1.31.04,1.97.06,1.31,0,1.97-.03,1.31.01,1.97-.05,1.32-.06,1.97-.17c.55-.09,1.09-.25,1.63-.37s1.05-.38,1.58-.54,1.07-.28,1.6-.46,1.04-.39,1.55-.61,1.08-.32,1.57-.58,1.01-.49,1.49-.77c.48-.29.83-.78,1.29-1.11s.92-.64,1.36-.99.94-.63,1.35-1.02.82-.78,1.19-1.2.76-.84,1.1-1.29.67-.91.98-1.38c.15-.22.25-.54.39-.76-.68-.04-1.4-.06-2.09-.11s-1.38-.04-2.06-.09c-.37.48-.78.92-1.2,1.36s-.87.84-1.32,1.24-.89.82-1.38,1.18-.93.79-1.45,1.11c-.5.29-1.04.51-1.56.77s-1.09.4-1.62.62-1.05.49-1.6.67-1.12.31-1.68.44-1.14.18-1.71.27c-.58.09-1.14.35-1.73.41s-1.19-.06-1.78-.04-1.17-.03-1.76-.04-1.18.16-1.77.12-1.18-.05-1.77-.13c-.6-.08-1.18-.23-1.78-.34s-1.15-.39-1.73-.52-1.21-.12-1.79-.28-1.12-.44-1.7-.62-1.16-.32-1.72-.52-1.09-.51-1.65-.73-1.12-.42-1.67-.66-1.13-.41-1.67-.67-1.02-.63-1.56-.91-1.04-.6-1.56-.9c-.53-.3-1.19-.38-1.71-.7s-.89-.88-1.4-1.2-1.16-.45-1.66-.79-1.03-.66-1.52-1.01-.94-.77-1.43-1.14-.99-.72-1.46-1.1-.88-.9-1.35-1.29c-.57.33-1.16.66-1.73.94-.6.29-1.15.59-1.72.83.47.41.83.93,1.31,1.33s1.05.7,1.54,1.09.95.82,1.45,1.2,1.1.62,1.61.98,1.02.71,1.54,1.06,1.05.67,1.58,1.01,1.05.68,1.58,1,1.02.72,1.57,1.03c.51.29,1.1.43,1.62.7s1,.62,1.53.88,1.03.57,1.56.81,1.05.52,1.6.75,1.12.35,1.67.56,1.08.47,1.64.66,1.14.31,1.7.47,1.11.38,1.68.53,1.17.17,1.74.29,1.13.36,1.71.46,1.17.11,1.75.19Z"/>
        <path class="cls-3" d="M188.78,58.04c-.39-.8-.69-1.68-1.04-2.5-.55.04-1.22.15-1.89.24-.57.08-1.21.18-1.85.3.24.59.39,1.25.65,1.83s.63,1.12.9,1.69c.22.46.37.97.61,1.42s.62.75.87,1.2c.56-.27.99-.6,1.48-.88.55-.31,1.13-.5,1.59-.81-.23-.41-.37-.87-.59-1.29s-.53-.79-.73-1.21Z"/>
        <path class="cls-3" d="M182.25,56.45c-.56.15-1.18.45-1.75.66s-1.06.41-1.61.66c.19.48.34.92.54,1.39s.33.98.54,1.45.52.89.75,1.35c.37.76.81,1.39,1.21,2.13.6-.15,1.14-.1,1.7-.28.59-.19,1.22-.45,1.77-.68-.24-.44-.54-.95-.77-1.39s-.54-.86-.75-1.31c-.31-.63-.53-1.31-.81-1.96s-.55-1.37-.81-2.02Z"/>
        <path class="cls-3" d="M177.14,58.73c-.52.3-.94.59-1.44.96s-1.16.63-1.61,1.06c.25.6.54,1.28.81,1.88s.56,1.19.85,1.78c.1.21.33.27.44.48.65-.01,1.27.14,1.89.08s1.4-.18,2.01-.29c-.32-.61-.75-1.27-1.04-1.89-.22-.46-.57-.86-.78-1.32s-.16-1.04-.36-1.51-.56-.75-.76-1.22Z"/>
        <path class="cls-3" d="M169.49.67c-.86-.24-.89.14-1.78.16s-.89-.21-1.74.07c.01.55-.15,1.01-.14,1.64.01.56.17,1.15.19,1.76.01.57-.11,1.16-.09,1.77s.07,1.16.08,1.76.04,1.17.05,1.77.04,1.17.06,1.77.02,1.18.04,1.77.16,1.18.18,1.77.01,1.19.03,1.77.17,1.18.2,1.77-.15,1.2-.13,1.78c.03.61.02,1.2.05,1.77.03.61.28,1.19.31,1.75.04.62-.07,1.22-.02,1.77.05.62.1,1.24.16,1.86s.03,1.24.09,1.86.26,1.22.33,1.84.1,1.24.17,1.86.25,1.22.33,1.84.03,1.25.12,1.86.13,1.24.23,1.85.28,1.21.38,1.82c.5-.25,1.06-.47,1.67-.73.53-.22,1.01-.53,1.61-.75-.09-.57-.03-1.09-.12-1.65s-.11-1.14-.19-1.71-.17-1.13-.24-1.7-.26-1.12-.32-1.69-.02-1.15-.08-1.72-.32-1.12-.38-1.69.08-1.16.03-1.73-.22-1.13-.27-1.7c-.04-.54.04-1.14,0-1.76-.03-.56-.04-1.14-.07-1.75-.03-.56-.06-1.15-.09-1.75s-.05-1.16-.07-1.75,0-1.16-.03-1.75-.21-1.16-.23-1.75.14-1.18.12-1.76-.21-1.17-.23-1.75-.03-1.18-.04-1.76-.11-1.18-.12-1.76.21-1.19.2-1.76c-.01-.6-.23-1.18-.25-1.75-.01-.61-.03-1.2-.04-1.75-.01-.62.05-1.23.04-1.77Z"/>
        <path class="cls-3" d="M175.63,24.83c-.04-.57-.04-1.2-.08-1.87-.04-.59,0-1.22-.03-1.87-.03-.6,0-1.22-.03-1.86s-.02-1.23-.05-1.86-.07-1.23-.09-1.86-.22-1.24-.24-1.86.17-1.25.15-1.87-.19-1.25-.21-1.86.1-1.26.08-1.87,0-1.26-.01-1.87c-.02-.64-.09-1.26-.1-1.87-.02-.65,0-1.27-.01-1.87-.02-.66-.09-1.3-.1-1.87-.85-.25-.89.14-1.78.16s-.93-.32-1.77-.04c.01.54.07,1.09.09,1.71.01.56.06,1.14.07,1.74.01.56-.12,1.15-.1,1.75s.08,1.15.09,1.74.05,1.16.07,1.75-.12,1.16-.1,1.75.16,1.16.18,1.75.11,1.17.13,1.75.02,1.17.04,1.75,0,1.18.01,1.75,0,1.18.03,1.75c.03.6.18,1.18.21,1.74.03.61.12,1.19.15,1.74.04.62-.17,1.22-.13,1.76.05.63.16,1.26.22,1.89s.25,1.25.32,1.88.05,1.27.11,1.9.22,1.25.29,1.88.13,1.26.21,1.88,0,1.28.08,1.91.23,1.33.33,1.95c.55-.17,1.22-.29,1.82-.44.56-.14,1.1-.41,1.71-.53-.09-.6-.15-1.19-.24-1.79s-.27-1.18-.35-1.78-.17-1.2-.24-1.8-.08-1.21-.15-1.81.02-1.22-.04-1.82-.22-1.19-.27-1.79-.22-1.19-.27-1.8Z"/>
      </g>
    </g>
  </g>
</svg>